/* XPM */
static char *CHlang2_xpm[] = {
/* columns rows colors chars-per-pixel */
"43 43 114 2",
"   c #B72F39",
".  c #D40001",
"X  c #DF0503",
"o  c #DC0E18",
"O  c #D6181A",
"+  c #DA1C1E",
"@  c #E40202",
"#  c #EC0201",
"$  c #ED0900",
"%  c #E5010A",
"&  c #EB030B",
"*  c #E70C0C",
"=  c #E90E0E",
"-  c #F50202",
";  c #FD0101",
":  c #F30902",
">  c #FD0A03",
",  c #F3040B",
"<  c #FE020A",
"1  c #F60C0B",
"2  c #FE0B0B",
"3  c #EB100E",
"4  c #EF190D",
"5  c #FC1200",
"6  c #F3130A",
"7  c #FC120E",
"8  c #E70A12",
"9  c #EC0811",
"0  c #FD0212",
"q  c #F20B16",
"w  c #FF0C10",
"e  c #FC031C",
"r  c #ED1210",
"t  c #E31E16",
"y  c #ED121A",
"u  c #E71D1D",
"i  c #EB1D1F",
"p  c #FB1A1E",
"a  c #E62119",
"s  c #F31625",
"d  c #CF2B34",
"f  c #D22E37",
"g  c #ED3D3D",
"h  c #F4463F",
"j  c #F37B65",
"k  c #E77C76",
"l  c #FD7B76",
"z  c #F3747D",
"x  c #FD7A7C",
"c  c #F4826A",
"v  c #EE817E",
"b  c #FC8076",
"n  c #F18279",
"m  c #F68D7A",
"M  c #F98B7A",
"N  c #F67D82",
"B  c #FC7E83",
"V  c #EF8184",
"C  c #F48582",
"Z  c #FC8283",
"A  c #F58A84",
"S  c #FF868A",
"D  c #FF8A8C",
"F  c #FB9088",
"G  c #FF8791",
"H  c #FFA7A4",
"J  c #FFABA8",
"K  c #FFD1AF",
"L  c #FFD6B4",
"P  c #F7CBCC",
"I  c #FFCDCB",
"U  c #EFD3C7",
"Y  c #F5D9CD",
"T  c #FFCBD4",
"R  c #FDD1D2",
"E  c #FFD6DB",
"W  c #FFDBDB",
"Q  c #DBFFD9",
"!  c #EBE7CA",
"~  c #E7F0C5",
"^  c #EDF6CB",
"/  c #FFE3D6",
"(  c #FDE2DC",
")  c #E0FFDE",
"_  c #F4F0D3",
"`  c #FFF7D3",
"'  c #FFFAD5",
"]  c #FFDEE1",
"[  c #DBFFFD",
"{  c #FFE6E2",
"}  c #FFEAE4",
"|  c #FFEFEB",
" . c #E0F7EF",
".. c #E8F5EE",
"X. c #EBFEED",
"o. c #FEF5E4",
"O. c #FFF9E5",
"+. c #FEF7EB",
"@. c #F6FFED",
"#. c #FBFEED",
"$. c #FFEEF0",
"%. c #FCEDFF",
"&. c #E2FFF5",
"*. c #EDFEF4",
"=. c #E5FFFF",
"-. c #ECFEFE",
";. c #F3F6F3",
":. c #FBF3F4",
">. c #F4FDF3",
",. c #FFFBF5",
"<. c #F5F7FF",
"1. c #FEF5FE",
"2. c #F4FEFD",
"3. c #FDFDFE",
/* pixels */
"# , - ; - - - - - - - - - - , - 8 & % & = % % e * @ X & < < - # - - - - - - , - : - : ",
"& - , - ; - - - ; ; ; < 2 ; ; ; - ; ; ; > > ; - - ; ; ; ; - - 6 ; ; ; < 2 ; ; ; ; - ; ",
"- , ; ; ; ; ; - ; ; ; ; ; ; ; ; ; ; ; ; - > 5 $ ; 2 2 2 ; ; ; ; ; ; ; ; ; ; ; ; ; ; ; ",
"- ; ; < ; ; ; ; ; < ; ; ; < ; ; < < 2 < # - < 2 @ # # # : > < < ; < ; ; ; < ; ; ; ; < ",
"- ; ; < ; ; ; ; ; ; ; ; ; ; ; ; - @ # < < ; ; ; 7 > ; - # : ; < ; ; ; ; ; ; ; ; ; < ; ",
"- ; ; ; ; ; ; ; ; ; ; ; ; ; ; ; 5 > # # > > - ; ; < ; > ; - - - ; ; ; ; ; ; ; ; ; ; < ",
"- - ; ; ; ; ; ; ; ; ; ; ; ; ; ; @ 2 3 . q 0 & q O % # ; > - - < ; ; ; ; ; ; ; ; ; ; - ",
"- - - ; ; ; ; ; ; ; ; ; ; ; ; ; f H / U W E P ( L j t # > : ; ; ; ; ; ; ; ; ; ; ; ; ; ",
"- ; < ; ; ; ; ; ; ; ; ; ; ; ; ; ; :.3.@.3.3.,.3.2.S , ; ; < ; ; ; ; ; ; ; ; ; ; ; ; ; ",
"- ; ; ; ; ; ; ; ; ; ; ; ; ; ; ; ; $.3.@.3.3.,.2.2.D 1 ; ; < ; - ; ; ; ; ; ; ; ; ; ; ; ",
"- - < ; ; ; ; ; ; ; ; ; ; ; ; ; ; ;.3.@.3.3.,.3.,.D - ; ; < ; ; ; ; ; ; ; ; ; ; ; ; ; ",
"- < ; ; ; ; ; ; ; ; ; ; ; ; ; ; ; :.3.@.3.3.,.2.2.S , ; ; ; ; ; ; ; ; ; ; ; ; ; ; ; ; ",
"- ; ; < ; ; ; ; ; ; ; ; ; ; ; ; ; :.3.>.3.3.,.3.2.D - ; ; < ; - ; ; ; ; ; ; ; ; ; ; ; ",
"1 ; ; ; ; ; ; ; ; ; ; ; ; ; ; ; ; ;.3.@.3.3.,.2.2.D 1 ; ; < ; ; ; ; ; ; ; ; ; ; ; ; ; ",
"- - < < ; ; ; ; ; ; ; ; ; ; ; ; ; :.3.#.3.3.,.3.,.S , ; ; < ; ; ; ; ; ; ; ; ; ; ; ; ; ",
"; - ; ; ; ; ; ; ; ; ; ; ; ; ; ; ; :.1.@.3.3.,.3.2.D , ; ; ; ; ; ; ; ; ; ; ; ; ; ; ; ; ",
"8 - ; < - 5 @ f ; ; ; ; ; ; ; ;   I ,.*.3.3.:.2.` M i ; ; - - - 0 - s ; - > > , ; ; ; ",
"9 ; > < @ ; 2 H :.$.:.$.:.$.:.:.I +.;.[ 3.3.:.3.=.;.] } +.O.o.:.Q ! ~ c > $ - ; ; ; ; ",
"% ; > 2 # @ r / 3.1.3.3.3.1.3.3.,.,.&.-.3.1.:.2.%.%.1.3.=.[ =.3.3.1.,.Z , # ; 5 ; ; ; ",
"% ; ; < 2 - . Y >.@.@.,.@.@.,.@...-.-.2.3.3.,.3.3.3.3.>.*.3.3.1.<.%.3.z < - ; ; ; ; ; ",
"* ; ; # 2 ; 9 W 3.3.3.3.3.3.3.3.,.3.3.1.:.3.3.>.*.@.#.+.,.,.,.:.=.3.*.n 0 > ; - ; ; ; ",
"% > > - ; ; 0 E 3.3.3.3.3.3.3.3.3.3.1.3.3.3.3.>.3.3.1.1.1.3.2.-.| :.#.l ; ; < 2 ; ; ; ",
"% ; 5 < ; ; & R ,.,.,.3.,.3.,.,.:.3.3.3.3.>.1.3.3.3.2.2.2.2.-.=.2.,.X.n < - ; 2 ; ; ; ",
"e - $ - ; ; 8 ( 3.2.3.3.3.2.3.3.2.,.,.*.2.3.3.1.3.,.*.2.2.,.:.:.3.1.*.N 0 ; ; : ; ; ; ",
"* ; ; $ 1 - + L 3.3.3.2.,.3.2.,.' =.%.3.>.3.1.3.[ 3.} #.>.,.,.>.3.,.} z s ; ; ; ; ; ; ",
"@ - 2 # > ; & j S S S S S D D D m ;.1.3.>.3.<.2.3.T S D A S G D V F l g , - ; : ; ; ; ",
"@ ; 2 $ ; ; - t , - # - - , - , u W 1.3.#.1.2.2.{ S o * % 0 < & > 6 4 $ - ; ; 1 ; ; ; ",
"q : ; # - > ; # ; ; ; ; ; ; ; ; - { 3.>.+.1.2.2.#.F & ; ; > ; ; ; - - ; ; < < - ; ; ; ",
"2 - ; - - > ; : ; ; - ; - ; ; - ; o.=.*.,.1.2.,.@.C % ; ; ; - : < < ; > > ; ; ; ; ; ; ",
"< - ; > - - : - < < < < < < < < > o.[ 2.,.1.-.3.2.G , ; > ; ; > q & , , ; ; ; ; ; ; ; ",
"- : ; < > - ; ; ; ; ; ; ; ; ; < - o.=.3.,.3.-.:.,.G < ; ; ; ; ; $ - - ; ; - ; ; ; ; ; ",
"@ 2 < - < ; < ; - ; ; - ; ; ; ; # } 3.%.3.-.=.,.X.D & ; - > ; ; > ; ; ; ; - : # ; ; ; ",
": - < ; ; ; ; ; ; ; ; ; ; ; ; ; < ) 2.3.[ :.*.3.3.V 2 - ; , @ > ; ; ; ; ; ; ; ; ; ; ; ",
"; ; < ; ; ; ; ; ; ; ; ; ; ; ; ; , _ 1.1.>.:.3.3.3.A $ - < , - 5 ; ; ; ; ; ; ; ; ; ; ; ",
"- ; ; ; ; ; ; ; ; ; ; ; ; ; ; ; p ^ ,.3.X.O.X.*.} b 4 ; ; & ; ; ; ; ; ; ; ; ; ; ; ; ; ",
"- ; < ; ; ; ; ; ; ; ; ; ; ; ; ; ; c B Z k x n Z Z h $ ; 2 , - ; ; ; ; ; ; ; ; ; ; ; ; ",
"- ; ; ; ; ; ; ; ; ; ; ; ; ; ; ; # 2 - 0 < < < 0 y # - ; < ; ; ; ; ; ; ; ; ; ; ; ; ; ; ",
", ; < ; ; ; ; ; ; ; ; ; ; ; ; ; > : # > - ; ; ; - ; ; < ; ; : - ; ; ; ; ; ; ; ; ; ; ; ",
"- - ; ; ; ; ; ; ; ; ; ; ; ; ; ; 1 - ; ; ; ; ; - ; 2 2 < ; ; ; - ; ; ; ; ; ; ; ; ; ; ; ",
"- ; < ; ; ; ; ; ; ; ; ; ; ; ; ; , ; > ; - w w # - : # - ; ; > - ; ; ; ; ; ; ; ; ; ; ; ",
"- - - ; ; ; ; ; ; ; ; ; ; ; ; ; ; ; ; ; ; ; ; ; ; ; ; ; ; ; ; ; ; ; ; ; ; ; ; ; ; - > ",
"- - ; ; ; ; ; - ; ; ; ; ; ; - ; ; ; ; ; ; - ; ; ; ; ; ; ; ; ; ; ; ; ; ; ; ; ; ; - ; ; ",
"- - ; ; ; ; - ; ; ; ; ; ; ; ; ; ; ; - ; ; ; ; ; ; ; ; - ; ; ; ; ; ; ; - ; ; ; ; ; ; - "
};
