/* XPM */
static char * fast_forward_xpm[] = {
"40 40 576 2",
"  	c None",
". 	c #000000",
"+ 	c #000001",
"@ 	c #011721",
"# 	c #023851",
"$ 	c #035578",
"% 	c #036A93",
"& 	c #0375A1",
"* 	c #0376A3",
"= 	c #036B96",
"- 	c #035679",
"; 	c #011722",
"> 	c #012031",
", 	c #044E74",
"' 	c #0675AC",
") 	c #0689C7",
"! 	c #0589C5",
"~ 	c #048DC7",
"{ 	c #0391CB",
"] 	c #0296D0",
"^ 	c #029AD3",
"/ 	c #0393CE",
"( 	c #038EC8",
"_ 	c #058AC6",
": 	c #022032",
"< 	c #021E30",
"[ 	c #075F92",
"} 	c #0877B5",
"| 	c #057BB9",
"1 	c #077BB6",
"2 	c #0880B8",
"3 	c #0C86BD",
"4 	c #108BC0",
"5 	c #148DC2",
"6 	c #148EC3",
"7 	c #128BC1",
"8 	c #1089BE",
"9 	c #0C84BB",
"0 	c #087FB7",
"a 	c #077BB5",
"b 	c #057AB8",
"c 	c #0875B3",
"d 	c #075D91",
"e 	c #021E31",
"f 	c #00070B",
"g 	c #064974",
"h 	c #086FB0",
"i 	c #066AA5",
"j 	c #0A74AD",
"k 	c #1585BB",
"l 	c #1B8DC0",
"m 	c #1F90C2",
"n 	c #2190C2",
"o 	c #208EC0",
"p 	c #1F8CBE",
"q 	c #1F8ABD",
"r 	c #1E89BC",
"s 	c #1E88BB",
"t 	c #1E87BA",
"u 	c #1E86B9",
"v 	c #1C84B8",
"w 	c #1880B6",
"x 	c #127BB3",
"y 	c #0A70A9",
"z 	c #0668A3",
"A 	c #096CAC",
"B 	c #064773",
"C 	c #00070C",
"D 	c #011625",
"E 	c #09619E",
"F 	c #0764A3",
"G 	c #0C70AA",
"H 	c #1888BD",
"I 	c #2195C6",
"J 	c #2193C4",
"K 	c #1F91C2",
"L 	c #1F8FC1",
"M 	c #1E8DC0",
"N 	c #1D8CBF",
"O 	c #1E8ABD",
"P 	c #1D8ABD",
"Q 	c #1C88BB",
"R 	c #1D87BA",
"S 	c #1C86B9",
"T 	c #1B84B8",
"U 	c #1C83B7",
"V 	c #1C82B6",
"W 	c #1C81B5",
"X 	c #1C81B4",
"Y 	c #1577AE",
"Z 	c #0C69A3",
"` 	c #0861A0",
" .	c #0A5C99",
"..	c #021625",
"+.	c #031D31",
"@.	c #085D9D",
"#.	c #08609C",
"$.	c #1680B5",
"%.	c #2096C8",
"&.	c #1F91C3",
"*.	c #1E90C2",
"=.	c #1C86BA",
"-.	c #1C85B9",
";.	c #1B84B7",
">.	c #1B83B7",
",.	c #1B82B6",
"'.	c #1A80B4",
").	c #1B7FB4",
"!.	c #1A7DB2",
"~.	c #1A7CB1",
"{.	c #126FA7",
"].	c #095C98",
"^.	c #095998",
"/.	c #031C31",
"(.	c #031A2C",
"_.	c #095A9A",
":.	c #0C64A0",
"<.	c #1D8FC3",
"[.	c #2198C9",
"}.	c #2093C4",
"|.	c #1F92C3",
"1.	c #1E8DBF",
"2.	c #1D8BBD",
"3.	c #1E8EC1",
"4.	c #1F8FC0",
"5.	c #1D8BBF",
"6.	c #1C87BA",
"7.	c #1B81B6",
"8.	c #1A7EB3",
"9.	c #197DB2",
"0.	c #1A7BB0",
"a.	c #197AB0",
"b.	c #197BAF",
"c.	c #1775AB",
"d.	c #0C5C98",
"e.	c #095595",
"f.	c #03182C",
"g.	c #010C16",
"h.	c #095798",
"i.	c #0E65A0",
"j.	c #2197C9",
"k.	c #2092C4",
"l.	c #1E8EC0",
"m.	c #2199CA",
"n.	c #229DCE",
"o.	c #229ECF",
"p.	c #239FD0",
"q.	c #23A0D0",
"r.	c #229FCF",
"s.	c #229CCE",
"t.	c #2096C7",
"u.	c #1C87BB",
"v.	c #1A7EB2",
"w.	c #1979AE",
"x.	c #1879AE",
"y.	c #1977AD",
"z.	c #1877AC",
"A.	c #1875AB",
"B.	c #0D5B96",
"C.	c #0B5292",
"D.	c #074377",
"E.	c #0E64A1",
"F.	c #2095C7",
"G.	c #1E90C1",
"H.	c #2093C5",
"I.	c #219ACC",
"J.	c #229CCD",
"K.	c #219CCD",
"L.	c #1C89BC",
"M.	c #1876AC",
"N.	c #1874AA",
"O.	c #1773A9",
"P.	c #0E5996",
"Q.	c #083F74",
"R.	c #042745",
"S.	c #0C5E9F",
"T.	c #2094C7",
"U.	c #1E8FC1",
"V.	c #229BCC",
"W.	c #219ACB",
"X.	c #197BB0",
"Y.	c #1772A9",
"Z.	c #1772A8",
"`.	c #1671A8",
" +	c #176FA6",
".+	c #0D5496",
"++	c #052342",
"@+	c #000305",
"#+	c #094C89",
"$+	c #1A84B8",
"%+	c #2098C9",
"&+	c #2098CA",
"*+	c #2198CA",
"=+	c #1A7CB2",
"-+	c #166FA7",
";+	c #1770A7",
">+	c #13659D",
",+	c #0A4583",
"'+	c #000205",
")+	c #04213F",
"!+	c #1370AE",
"~+	c #2095C8",
"{+	c #2097C9",
"]+	c #166DA4",
"^+	c #166EA5",
"/+	c #156DA4",
"(+	c #105C9C",
"_+	c #051F3C",
":+	c #094377",
"<+	c #1F95CA",
"[+	c #1990C3",
"}+	c #2294C5",
"|+	c #1F93C5",
"1+	c #2194C5",
"2+	c #2094C5",
"3+	c #156BA3",
"4+	c #166BA3",
"5+	c #156AA2",
"6+	c #156BA6",
"7+	c #093C70",
"8+	c #000209",
"9+	c #1370AD",
"0+	c #1B8FC2",
"a+	c #2A96C5",
"b+	c #5DAFD3",
"c+	c #1F90C3",
"d+	c #138ABF",
"e+	c #1D90C2",
"f+	c #2292C3",
"g+	c #5EB0D4",
"h+	c #2594C4",
"i+	c #128ABF",
"j+	c #1D8FC2",
"k+	c #1F92C4",
"l+	c #1D89BC",
"m+	c #156AA1",
"n+	c #1468A0",
"o+	c #105898",
"p+	c #000309",
"q+	c #031B32",
"r+	c #1C89C1",
"s+	c #2095C6",
"t+	c #1F8EC0",
"u+	c #1B8DBF",
"v+	c #208FC0",
"w+	c #E2F0F7",
"x+	c #FFFFFF",
"y+	c #F2F9FB",
"z+	c #6CB5D6",
"A+	c #0E86BC",
"B+	c #1C8DC0",
"C+	c #1D8DC0",
"D+	c #158ABE",
"E+	c #CEE6F1",
"F+	c #FBFDFD",
"G+	c #7CBDDA",
"H+	c #1388BD",
"I+	c #1A8CBF",
"J+	c #1877AD",
"K+	c #14679F",
"L+	c #1568A0",
"M+	c #1363A1",
"N+	c #03172F",
"O+	c #073154",
"P+	c #2099CB",
"Q+	c #1E8CBF",
"R+	c #1E8CBE",
"S+	c #1688BC",
"T+	c #439FC9",
"U+	c #F8FBFD",
"V+	c #FDFEFE",
"W+	c #C2E0ED",
"X+	c #3397C5",
"Y+	c #0C83B9",
"Z+	c #1C8BBE",
"`+	c #1989BD",
" @	c #2E94C3",
".@	c #EDF5F9",
"+@	c #D1E7F2",
"@@	c #409EC8",
"#@	c #0B82B9",
"$@	c #1A8ABD",
"%@	c #13669E",
"&@	c #14659E",
"*@	c #1568A3",
"=@	c #07284C",
"-@	c #0E5079",
";@	c #2097CA",
">@	c #1D8BBE",
",@	c #1585BA",
"'@	c #439DC8",
")@	c #FBFCFD",
"!@	c #FEFEFE",
"~@	c #87C0DB",
"{@	c #1082B8",
"]@	c #1182B9",
"^@	c #2E92C1",
"/@	c #98C9E1",
"(@	c #1786BA",
"_@	c #1484BA",
":@	c #166FA6",
"<@	c #13639C",
"[@	c #14639D",
"}@	c #1366A1",
"|@	c #0B3B67",
"1@	c #14648E",
"2@	c #1D88BB",
"3@	c #1482B7",
"4@	c #429AC6",
"5@	c #FAFCFD",
"6@	c #DFEEF5",
"7@	c #499EC7",
"8@	c #1E86BA",
"9@	c #ECF5F9",
"0@	c #ECF4F9",
"a@	c #5DA9CD",
"b@	c #0E7EB5",
"c@	c #13619A",
"d@	c #13649E",
"e@	c #0D4572",
"f@	c #166C95",
"g@	c #1F91C5",
"h@	c #1E8BBE",
"i@	c #1380B5",
"j@	c #4299C4",
"k@	c #AAD1E4",
"l@	c #EEF5F9",
"m@	c #AFD4E6",
"n@	c #1E85B8",
"o@	c #1A83B7",
"p@	c #197CB1",
"q@	c #12619A",
"r@	c #13629D",
"s@	c #0E4978",
"t@	c #176F97",
"u@	c #1E90C4",
"v@	c #1B81B5",
"w@	c #1A81B5",
"x@	c #127CB3",
"y@	c #4196C2",
"z@	c #B0D3E5",
"A@	c #0C79B1",
"B@	c #125F99",
"C@	c #13609A",
"D@	c #13609B",
"E@	c #0F4A79",
"F@	c #176C93",
"G@	c #1E8EC3",
"H@	c #1A7FB4",
"I@	c #1B7FB3",
"J@	c #127AB1",
"K@	c #4194C0",
"L@	c #D9E9F2",
"M@	c #0974AD",
"N@	c #1A7DB3",
"O@	c #125E98",
"P@	c #135F98",
"Q@	c #135F9B",
"R@	c #0F4978",
"S@	c #16658A",
"T@	c #1E8EC2",
"U@	c #1D87BB",
"V@	c #1A7CB0",
"W@	c #197CB0",
"X@	c #1177AE",
"Y@	c #4091BD",
"Z@	c #F3F7FA",
"`@	c #F4F8FA",
" #	c #FFFEFE",
".#	c #488EB9",
"+#	c #1479AF",
"@#	c #197AAF",
"##	c #125D96",
"$#	c #135D97",
"%#	c #135E9A",
"&#	c #0D436E",
"*#	c #114F6D",
"=#	c #1074AB",
"-#	c #3F8FBC",
";#	c #FCFDFE",
">#	c #A3C1D7",
",#	c #2876A8",
"'#	c #EBF3F7",
")#	c #FDFDFE",
"!#	c #BAD0E0",
"~#	c #1F6EA4",
"{#	c #0F71A9",
"]#	c #1979AF",
"^#	c #1774AA",
"/#	c #125C96",
"(#	c #135C96",
"_#	c #135E9B",
":#	c #0A3558",
"<#	c #0A3245",
"[#	c #1E90C6",
"}#	c #1071A9",
"|#	c #3F8DBA",
"1#	c #E2EAF1",
"2#	c #4780AE",
"3#	c #005F9B",
"4#	c #2880B2",
"5#	c #ECF4F8",
"6#	c #F0F3F7",
"7#	c #578BB4",
"8#	c #06609C",
"9#	c #1575AB",
"0#	c #125A94",
"a#	c #115B95",
"b#	c #135F9C",
"c#	c #072138",
"d#	c #020C11",
"e#	c #1E8FC7",
"f#	c #0F6EA6",
"g#	c #3F8BB8",
"h#	c #89A8C6",
"i#	c #0A5995",
"j#	c #0A69A3",
"k#	c #1271A8",
"l#	c #2A7EB1",
"m#	c #EDF4F8",
"n#	c #9BB5CE",
"o#	c #105C96",
"p#	c #0866A0",
"q#	c #1773AA",
"r#	c #14649D",
"s#	c #115994",
"t#	c #125A93",
"u#	c #135E9D",
"v#	c #01080E",
"w#	c #17709D",
"x#	c #1D88BE",
"y#	c #1A7FB3",
"z#	c #1670A7",
"A#	c #106DA5",
"B#	c #2B7AAC",
"C#	c #FCFEFE",
"D#	c #CBD6E3",
"E#	c #2D679B",
"F#	c #075D99",
"G#	c #1973A9",
"H#	c #136EA6",
"I#	c #196FA6",
"J#	c #EEF4F8",
"K#	c #DAE2EB",
"L#	c #3B70A0",
"M#	c #065B96",
"N#	c #1872A9",
"O#	c #1771A8",
"P#	c #125D97",
"Q#	c #115993",
"R#	c #125B98",
"S#	c #0E4A7D",
"T#	c #0D3E57",
"U#	c #1D8CC5",
"V#	c #1B80B5",
"W#	c #156CA4",
"X#	c #166DA5",
"Y#	c #0B649E",
"Z#	c #678EB3",
"`#	c #B4C3D7",
" $	c #6186AD",
".$	c #034E8C",
"+$	c #0F68A1",
"@$	c #166EA6",
"#$	c #156DA5",
"$$	c #0C66A0",
"%$	c #5582AC",
"&$	c #B6C4D7",
"*$	c #6F8FB4",
"=$	c #074F8C",
"-$	c #0D659F",
";$	c #14669F",
">$	c #115892",
",$	c #125D9D",
"'$	c #082845",
")$	c #010508",
"!$	c #146AA1",
"~$	c #166CA3",
"{$	c #055894",
"]$	c #024B89",
"^$	c #045895",
"/$	c #146CA3",
"($	c #156BA2",
"_$	c #075B97",
":$	c #025693",
"<$	c #136BA2",
"[$	c #105590",
"}$	c #10548F",
"|$	c #0C3F59",
"1$	c #1C89C2",
"2$	c #1771A7",
"3$	c #1467A0",
"4$	c #1568A1",
"5$	c #115792",
"6$	c #105691",
"7$	c #125C9C",
"8$	c #082947",
"9$	c #166B99",
"0$	c #1A7FB7",
"a$	c #1569A1",
"b$	c #13629C",
"c$	c #13649D",
"d$	c #126099",
"e$	c #115895",
"f$	c #0E487B",
"g$	c #03131C",
"h$	c #1B81B9",
"i$	c #1875AC",
"j$	c #125F98",
"k$	c #115691",
"l$	c #115897",
"m$	c #020C16",
"n$	c #072536",
"o$	c #1A7EB7",
"p$	c #1774AB",
"q$	c #14659D",
"r$	c #115692",
"s$	c #04192B",
"t$	c #08293C",
"u$	c #197BB3",
"v$	c #1874AB",
"w$	c #125B96",
"x$	c #115893",
"y$	c #125993",
"z$	c #115896",
"A$	c #051B2E",
"B$	c #051E2B",
"C$	c #1774AC",
"D$	c #1875AF",
"E$	c #13629B",
"F$	c #115690",
"G$	c #115997",
"H$	c #105591",
"I$	c #031423",
"J$	c #01080D",
"K$	c #10537C",
"L$	c #1878B4",
"M$	c #13649C",
"N$	c #125E97",
"O$	c #125A95",
"P$	c #0C3D69",
"Q$	c #01060A",
"R$	c #062132",
"S$	c #135F90",
"T$	c #1671AC",
"U$	c #1670AB",
"V$	c #1569A2",
"W$	c #14679E",
"X$	c #126098",
"Y$	c #135E98",
"Z$	c #135E97",
"`$	c #125B95",
" %	c #125C9A",
".%	c #0E4A7E",
"+%	c #05192A",
"@%	c #061F30",
"#%	c #0E466C",
"$%	c #13649A",
"%%	c #156DAC",
"&%	c #1569A5",
"*%	c #13619C",
"=%	c #135F9D",
"-%	c #1361A0",
";%	c #11558D",
">%	c #0B3A62",
",%	c #051829",
"'%	c #03131D",
")%	c #082B44",
"!%	c #0B3D61",
"~%	c #0E4772",
"{%	c #0E4B79",
"]%	c #0F4A78",
"^%	c #0D4470",
"/%	c #0B385D",
"(%	c #07263F",
"_%	c #02101B",
"                              . . . . . . . . . .                               ",
"                        . . + @ # $ % & * = - # ; + . .                         ",
"                    . . > , ' ) ! ~ { ] ^ / ( _ ) ' , : . .                     ",
"                . . < [ } | 1 2 3 4 5 6 6 7 8 9 0 a b c d e . .                 ",
"              . f g h i j k l m n o p q r s t u v w x y z A B C .               ",
"            . D E F G H I J K L M N O P Q R S T U V W X Y Z `  ....             ",
"          . +.@.#.$.%.I &.*.L M N P Q =.-.;.>.V ,.'.).!.!.~.{.].^./..           ",
"        . (._.:.<.[.}.|.*.L 1.2.P M 3.*.4.5.6.7.8.8.!.9.0.a.b.c.d.e.f..         ",
"      . g.h.i.%.j.k.&.*.l.l.&.m.n.o.p.p.q.p.r.s.t.u.v.w.b.x.y.z.A.B.C.g..       ",
"      . D.E.%.F.}.|.G.l.H.I.n.J.K.K.K.K.K.K.K.K.n.r.m.L.z.M.M.c.N.O.P.Q..       ",
"    . R.S.T.F.}.|.U.*.[.V.I.W.W.W.W.W.W.W.W.W.W.W.W.V.J.T.X.Y.N.Z.`. +.+++.     ",
"    @+#+$+%+H.|.G.&.&+*+*+*+*+*+*+*+*+*+*+*+*+*+*+*+*+[.*+*+=+-+`.;+-+>+,+'+    ",
"  . )+!+W.}.|.G.m F.~+~+~+F.~+~+~+~+F.~+~+~+~+F.~+~+~+~+F.%.{+X.]+^+/+^+(+_+.   ",
"  . :+<+}.&.*.L H.H.H.H.[+}+H.|+H.H.H.|+|+1+[+1+2+|+H.H.H.|+2+2+O.3+4+5+6+7+.   ",
"  8+9+[.|.*.U.m &.&.0+a+b+c+d+*.&.m m &.e+f+g+h+i+j+&.m m m c+k+l+m+5+n+5+o+p+  ",
". q+r+s+*.L t+l.l.u+v+w+x+y+z+A+B+t+l.C+D+E+x+F+G+H+I+4.l.l.l.l.|.J+K+L+n+M+N+. ",
". O+P+m L 1.Q+R+R+S+T+U+V+x+x+W+X+Y+Z+`+ @.@x+V+x++@@@#@$@R+R+R+1.=.K+%@&@*@=@. ",
". -@;@L M >@l+l+l+,@'@)@x+!@x+x+x+~@{@]@^@.@x+!@x+x+x+/@(@_@l+l+l+P :@<@[@}@|@. ",
". 1@T.1.N 2@=.=.=.3@4@5@x+x+x+!@x+x+6@7@8@9@x+x+x+!@x+x+0@a@b@=.=.l+M.c@<@d@e@. ",
". f@g@N h@-.T T T i@j@5@x+x+x+!@x+!@x+x+k@l@x+x+x+x+x+!@x+x+m@n@o@-.p@q@c@r@s@. ",
". t@u@O P v@w@w@w@x@y@5@x+x+x+x+x+!@!@x+x+x+!@x+x+x+x+!@!@x+x+z@A@w@v.B@C@D@E@. ",
". F@G@l+l+H@I@8.8.J@K@5@x+x+x+x+x+x+x+!@x+x+!@x+x+x+x+x+x+!@x+L@M@8.N@O@P@Q@R@. ",
". S@T@u.U@~.V@X.W@X@Y@5@x+x+x+!@x+!@x+x+Z@`@x+x+x+!@x+!@x+x+ #.#+#0.@###$#%#&#. ",
". *#G@R S a.w.w.w.=#-#5@x+x+x+x+;#x+x+>#,#'#x+x+x+x+)#x+x+!#~#{#]#w.^#/#(#_#:#. ",
". <#[#S -.a.A.M.M.}#|#5@x+x+!@x+x+1#2#3#4#5#x+x+!@x+x+6#7#8#9#z.M.J+]+0#a#b#c#. ",
"  d#e#T U p@Z.O.O.f#g#)@x+V+x+x+h#i#j#k#l#m#x+!@x+x+n#o#p#^#q#O.O.c.r#s#t#u#v#  ",
"  . w#x#,.y#z#z#z#A#B#C#x+x+D#E#F#G#;+H#I#J#x+x+K#L#M#N#O#z#z#z#z#:@P#Q#R#S#.   ",
"  . T#U#'.V#Y.W#X#^+Y#Z#`# $.$+$@$X##$^+$$%$&$*$=$-$@$X##$#$#$#$^+;$>$>$,$'$.   ",
"    )$y#8.!.X.!$m+5+~${$]$^$/$($5+5+m+m+~$_$]$:$<$3+5+5+m+5+5+5+m+0#>$[$}$@+    ",
"    . |$1$p@=+2$>+K+K+n+m+3$K+K+K+K+K+K+K+3$m+n+K+K+K+K+K+K+K+4$P@5$6$7$8$.     ",
"      . 9$0$@#@#a$b$c$c$c$c$c$c$c$c$c$c$c$c$c$c$c$c$c$c$c$c$r#d$5$6$e$f$.       ",
"      . g$h$w.y.i$&@j$c@c@c@c@c@c@c@c@c@c@c@c@c@c@c@c@c@c@c@O@>$6$k$l$m$.       ",
"        . n$o$J+p$N.q$/#$#$#$#$#$#$#$#$#$#$#$#$#$#$#$#$#P#/#5$6$r$l$s$.         ",
"          . t$u$v$Y.Z.a$w$x$0#0#0#0#0#0#0#0#0#0#0#0#0#0#y$5$6$k$z$A$.           ",
"            . B$C$D$ +:@W#E$y$F$k$k$k$k$k$k$k$k$k$>$s#y$>$6$G$H$I$.             ",
"              . J$K$L$#$4+3+5+M$N$s#5$k$k$k$5$Q#O$a#t#5$5$,$P$Q$.               ",
"                . . R$S$T$U$V$W$;$r#b$q@X$Y$Z$(#`$w$u# %.%+%. .                 ",
"                    . . @%#%$%%%&%}@d@r@*%D@Q@=%-%;%>%,%. .                     ",
"                        . . + '%)%!%~%{%]%^%/%(%_%. . .                         ",
"                              . . . . . . . . . .                               "};
