/* XPM */
static char * play_button_xpm[] = {
"40 40 256 2",
"  	c None",
". 	c #FFFFFF",
"+ 	c #FFFFCC",
"@ 	c #FFFF99",
"# 	c #FFFF66",
"$ 	c #FFFF33",
"% 	c #FFFF00",
"& 	c #FFCCFF",
"* 	c #FFCCCC",
"= 	c #FFCC99",
"- 	c #FFCC66",
"; 	c #FFCC33",
"> 	c #FFCC00",
", 	c #FF99FF",
"' 	c #FF99CC",
") 	c #FF9999",
"! 	c #FF9966",
"~ 	c #FF9933",
"{ 	c #FF9900",
"] 	c #FF66FF",
"^ 	c #FF66CC",
"/ 	c #FF6699",
"( 	c #FF6666",
"_ 	c #FF6633",
": 	c #FF6600",
"< 	c #FF33FF",
"[ 	c #FF33CC",
"} 	c #FF3399",
"| 	c #FF3366",
"1 	c #FF3333",
"2 	c #FF3300",
"3 	c #FF00FF",
"4 	c #FF00CC",
"5 	c #FF0099",
"6 	c #FF0066",
"7 	c #FF0033",
"8 	c #FF0000",
"9 	c #CCFFFF",
"0 	c #CCFFCC",
"a 	c #CCFF99",
"b 	c #CCFF66",
"c 	c #CCFF33",
"d 	c #CCFF00",
"e 	c #CCCCFF",
"f 	c #CCCCCC",
"g 	c #CCCC99",
"h 	c #CCCC66",
"i 	c #CCCC33",
"j 	c #CCCC00",
"k 	c #CC99FF",
"l 	c #CC99CC",
"m 	c #CC9999",
"n 	c #CC9966",
"o 	c #CC9933",
"p 	c #CC9900",
"q 	c #CC66FF",
"r 	c #CC66CC",
"s 	c #CC6699",
"t 	c #CC6666",
"u 	c #CC6633",
"v 	c #CC6600",
"w 	c #CC33FF",
"x 	c #CC33CC",
"y 	c #CC3399",
"z 	c #CC3366",
"A 	c #CC3333",
"B 	c #CC3300",
"C 	c #CC00FF",
"D 	c #CC00CC",
"E 	c #CC0099",
"F 	c #CC0066",
"G 	c #CC0033",
"H 	c #CC0000",
"I 	c #99FFFF",
"J 	c #99FFCC",
"K 	c #99FF99",
"L 	c #99FF66",
"M 	c #99FF33",
"N 	c #99FF00",
"O 	c #99CCFF",
"P 	c #99CCCC",
"Q 	c #99CC99",
"R 	c #99CC66",
"S 	c #99CC33",
"T 	c #99CC00",
"U 	c #9999FF",
"V 	c #9999CC",
"W 	c #999999",
"X 	c #999966",
"Y 	c #999933",
"Z 	c #999900",
"` 	c #9966FF",
" .	c #9966CC",
"..	c #996699",
"+.	c #996666",
"@.	c #996633",
"#.	c #996600",
"$.	c #9933FF",
"%.	c #9933CC",
"&.	c #993399",
"*.	c #993366",
"=.	c #993333",
"-.	c #993300",
";.	c #9900FF",
">.	c #9900CC",
",.	c #990099",
"'.	c #990066",
").	c #990033",
"!.	c #990000",
"~.	c #66FFFF",
"{.	c #66FFCC",
"].	c #66FF99",
"^.	c #66FF66",
"/.	c #66FF33",
"(.	c #66FF00",
"_.	c #66CCFF",
":.	c #66CCCC",
"<.	c #66CC99",
"[.	c #66CC66",
"}.	c #66CC33",
"|.	c #66CC00",
"1.	c #6699FF",
"2.	c #6699CC",
"3.	c #669999",
"4.	c #669966",
"5.	c #669933",
"6.	c #669900",
"7.	c #6666FF",
"8.	c #6666CC",
"9.	c #666699",
"0.	c #666666",
"a.	c #666633",
"b.	c #666600",
"c.	c #6633FF",
"d.	c #6633CC",
"e.	c #663399",
"f.	c #663366",
"g.	c #663333",
"h.	c #663300",
"i.	c #6600FF",
"j.	c #6600CC",
"k.	c #660099",
"l.	c #660066",
"m.	c #660033",
"n.	c #660000",
"o.	c #33FFFF",
"p.	c #33FFCC",
"q.	c #33FF99",
"r.	c #33FF66",
"s.	c #33FF33",
"t.	c #33FF00",
"u.	c #33CCFF",
"v.	c #33CCCC",
"w.	c #33CC99",
"x.	c #33CC66",
"y.	c #33CC33",
"z.	c #33CC00",
"A.	c #3399FF",
"B.	c #3399CC",
"C.	c #339999",
"D.	c #339966",
"E.	c #339933",
"F.	c #339900",
"G.	c #3366FF",
"H.	c #3366CC",
"I.	c #336699",
"J.	c #336666",
"K.	c #336633",
"L.	c #336600",
"M.	c #3333FF",
"N.	c #3333CC",
"O.	c #333399",
"P.	c #333366",
"Q.	c #333333",
"R.	c #333300",
"S.	c #3300FF",
"T.	c #3300CC",
"U.	c #330099",
"V.	c #330066",
"W.	c #330033",
"X.	c #330000",
"Y.	c #00FFFF",
"Z.	c #00FFCC",
"`.	c #00FF99",
" +	c #00FF66",
".+	c #00FF33",
"++	c #00FF00",
"@+	c #00CCFF",
"#+	c #00CCCC",
"$+	c #00CC99",
"%+	c #00CC66",
"&+	c #00CC33",
"*+	c #00CC00",
"=+	c #0099FF",
"-+	c #0099CC",
";+	c #009999",
">+	c #009966",
",+	c #009933",
"'+	c #009900",
")+	c #0066FF",
"!+	c #0066CC",
"~+	c #006699",
"{+	c #006666",
"]+	c #006633",
"^+	c #006600",
"/+	c #0033FF",
"(+	c #0033CC",
"_+	c #003399",
":+	c #003366",
"<+	c #003333",
"[+	c #003300",
"}+	c #0000FF",
"|+	c #0000CC",
"1+	c #000099",
"2+	c #000066",
"3+	c #000033",
"4+	c #000000",
"5+	c #BFBBBB",
"6+	c #BEBABA",
"7+	c #302F2F",
"8+	c #060505",
"9+	c #181717",
"0+	c #3C3A3A",
"a+	c #201F1F",
"b+	c #444242",
"c+	c #7F7C7C",
"d+	c #747171",
"e+	c #4E4C4C",
"f+	c #C9C5C5",
"g+	c #C5C1C1",
"h+	c #C2BEBE",
"i+	c #C0BCBC",
"j+	c #BCB8B8",
"k+	c #B9B5B5",
"l+	c #B5B1B1",
"m+	c #B1ADAD",
"n+	c #939090",
"o+	c #8A8787",
"p+	c #605E5E",
"q+	c #A9A6A6",
"r+	c #A19E9E",
"s+	c #CCC9C9",
"t+	c #E2E0E0",
"u+	c #DCDADA",
"v+	c #D6D4D4",
"w+	c #D1CFCF",
"x+	c #575656",
"y+	c #EDECEC",
"z+	c #BAB9B9",
"A+	c #BDBDBD",
"B+	c #282828",
"C+	c #111111",
"D+	c #0D0D0D",
"E+	c #080808",
"F+	c #030303",
"G+	c #010101",
"                                  t+t+t+t+u+u+                                  ",
"                          t+t+t+t+u+u+u+u+u+v+v+v+v+v+                          ",
"                      t+t+t+u+u+v+v+v+w+w+w+w+w+w+w+w+w+w+                      ",
"                  t+t+t+u+u+v+w+w+s+s+s+s+s+s+s+s+s+f f f s+s+                  ",
"                t+t+t+u+w+f s+f+g+h+h+i+i+i+h+h+g+g+f+f+s+s+s+f+                ",
"              t+t+u+v+f f+g+h+i+5+5+5+5+5+5+5+5+5+i+h+g+g+f+f+f+g+              ",
"            t+t+u+w+s+g+h+i+5+5+5+5+5+5+5+5+5+5+5+5+5+i+h+g+g+g+g+h+            ",
"          t+t+v+w+f+h+i+5+5+5+5+5+5+5+5+5+5+5+5+5+5+5+5+i+i+h+h+g+h+i+          ",
"        t+t+v+w+f+h+i+5+5+5+5+5+5+5+5+5+5+5+5+5+5+5+5+5+5+5+i+h+h+h+6+k+        ",
"      t+u+u+w+f+h+i+5+5+5+5+5+5+5+5+5+5+5+5+5+5+5+5+5+5+5+5+5+i+i+i+6+l+m+      ",
"      u+u+w+f+h+i+5+5+5+5+5+5+5+5+5+5+5+5+5+5+5+5+5+5+5+5+5+5+5+i+i+6+l+q+      ",
"    u+u+v+s+g+i+5+5+5+5+5+l+x+c+k+5+5+5+5+5+5+5+5+5+5+5+5+5+5+5+5+5+6+l+q+r+    ",
"    u+v+w+f+h+5+5+5+5+5+5+o+4+D+7+c+k+5+5+5+5+5+5+5+5+5+5+5+5+5+5+5+6+l+q+W     ",
"  u+v+w+s+g+i+5+5+5+5+5+5+c+4+4+4+C+7+c+j+5+5+5+5+5+5+5+5+5+5+5+5+5+6+l+q+W o+  ",
"  v+v+w+f+h+5+5+5+5+5+5+5+c+4+4+4+4+4+C+7+c+j+5+5+5+5+5+5+5+5+5+5+5+6+k+q+W o+  ",
"  v+w+s+g+i+5+5+5+5+5+5+5+c+4+4+4+4+4+4+4+9+7+c+j+5+5+5+5+5+5+5+5+5+5+k+q+n+o+  ",
"  w+w+s+g+5+5+5+5+5+5+5+5+c+4+4+4+4+4+4+4+4+4+9+7+c+j+5+5+5+5+5+5+5+5+j+q+n+c+  ",
"w+w+f f+h+5+5+5+5+5+5+5+5+c+4+4+4+4+4+4+4+4+4+4+4+a+7+c+j+5+5+5+5+5+5+j+q+n+c+d+",
"w+w+s+f+h+5+5+5+5+5+5+5+5+c+4+4+4+4+4+4+4+4+4+4+4+4+4+a+7+c+j+5+5+5+5+6+q+n+c+0.",
"f s+s+g+i+5+5+5+5+5+5+5+5+c+4+4+4+4+4+4+4+4+4+4+4+4+4+4+4+x+h+5+5+5+5+6+q+n+c+0.",
"s+s+f+g+i+5+5+5+5+5+5+5+5+c+4+4+4+4+4+4+4+4+4+4+4+4+4+4+4+y+w+5+5+5+5+6+q+o+d+p+",
"s+f+f+g+i+5+5+5+5+5+5+5+5+c+4+4+4+4+4+4+4+4+4+4+4+4+4+y+y+f 5+5+5+5+5+j+r+o+0.x+",
"  f+f+g+i+5+5+5+5+5+5+5+5+c+4+4+4+4+4+4+4+4+4+4+4+y+y+f 5+5+5+5+5+5+5+k+W c+0.e+",
"  g+g+g+h+5+5+5+5+5+5+5+5+c+4+4+4+4+4+4+4+4+4+y+y+f 5+5+5+5+5+5+5+5+6+l+n+d+x+  ",
"  g+g+h+h+5+5+5+5+5+5+5+5+c+4+4+4+4+4+4+4+y+y+f 5+5+5+5+5+5+5+5+5+5+6+q+o+0.e+  ",
"  h+h+h+h+5+5+5+5+5+5+5+5+c+4+4+4+4+4+y+y+f 5+5+5+5+5+5+5+5+5+5+5+5+k+r+c+p+b+  ",
"  5+5+i+i+5+5+5+5+5+5+5+5+o+4+4+4+y+y+f 5+5+5+5+5+5+5+5+5+5+5+5+5+6+m+n+d+e+0+  ",
"    k+j+6+5+5+5+5+5+5+5+5+q+4+y+y+f 5+5+5+5+5+5+5+5+5+5+5+5+5+5+6+k+r+c+x+b+    ",
"    m+m+k+j+6+6+5+5+5+5+5+5+s+s+5+5+5+5+5+5+5+5+5+5+5+5+5+5+5+5+j+m+n+0.b+Q.    ",
"      q+q+l+k+6+6+5+5+5+5+5+5+5+5+5+5+5+5+5+5+5+5+5+5+5+5+5+5+j+l+W d+e+Q.      ",
"      r+r+q+m+k+j+6+5+5+5+5+5+5+5+5+5+5+5+5+5+5+5+5+5+5+5+5+6+l+r+c+x+0+7+      ",
"        n+W r+m+l+j+6+5+5+5+5+5+5+5+5+5+5+5+5+5+5+5+5+5+5+j+l+r+o+p+0+7+        ",
"          o+n+W q+l+k+6+6+5+5+5+5+5+5+5+5+5+5+5+5+5+5+6+j+m+r+c+p+0+7+          ",
"            o+o+n+r+q+l+j+6+5+5+5+5+5+5+5+5+5+5+5+6+6+k+q+W c+x+0+7+            ",
"              c+c+o+n+r+q+l+k+6+6+5+5+5+5+5+5+6+j+k+q+W o+0.e+Q.7+              ",
"                d+d+c+c+o+W r+q+m+l+k+k+k+l+m+q+r+n+o+d+x+b+7+7+                ",
"                  0.0.0.d+d+c+o+o+n+n+n+n+n+o+c+d+0.x+b+Q.7+7+                  ",
"                      x+x+p+p+0.0.0.d+d+0.0.p+x+e+b+Q.7+7+                      ",
"                          e+e+e+e+e+e+e+b+b+0+Q.7+7+7+                          ",
"                                    Q.7+7+7+                                    "};
