/* XPM */
static char * red_xpm[] = {
"40 40 2 1",
" 	c None",
".	c #D31C1C",
"............................            ",
"..............................          ",
"................................        ",
"..................................      ",
"   ................................     ",
"   .................................    ",
"  ...................................   ",
"  ..................................... ",
"  ......................................",
"  ......................................",
" ............     ......................",
" ............     ......................",
" ............    .......................",
" ............   ........................",
" ............   ........................",
" ............   ........................",
" ............  .........................",
" ............  .........................",
" ............  .................. ......",
" ............  ..................  .....",
" ............  ..................  .....",
" ............  ..................  .....",
"  ............  ................   .....",
"  ............. ................    ....",
"  .............................     ....",
"   ..........................       ....",
"   ........................        .....",
"   ..................             ......",
"    ....................         .......",
"     ...................................",
"      ..................................",
"       .................................",
"        ................................",
"         ...............................",
"          ..............................",
"            ............................",
"             ...........................",
"               .........................",
"                 ...................... ",
"                     ................   "};
