/* XPM */
static char * zmCH_xpm[] = {
"48 48 93 2",
"  	c #DE0403",
". 	c #EE0406",
"+ 	c #ED0405",
"@ 	c #ED0406",
"# 	c #EB0505",
"$ 	c #EE0405",
"% 	c #FF0000",
"& 	c #FD0101",
"* 	c #EC0405",
"= 	c #FD0000",
"- 	c #FE0000",
"; 	c #FB0101",
"> 	c #FD0303",
", 	c #FD0403",
"' 	c #F4CACB",
") 	c #F8EDEC",
"! 	c #F9EFED",
"~ 	c #FAECEB",
"{ 	c #F4DFDC",
"] 	c #FB0000",
"^ 	c #F6DAD9",
"/ 	c #FEFFFF",
"( 	c #FFFFFF",
"_ 	c #FBEFEC",
": 	c #FA0000",
"< 	c #F6D7D6",
"[ 	c #FEFDFE",
"} 	c #FEFEFE",
"| 	c #FFFCFC",
"1 	c #FBECE9",
"2 	c #F5D3D2",
"3 	c #FEFCFD",
"4 	c #FFFBFC",
"5 	c #FBEAE7",
"6 	c #F4CCCE",
"7 	c #F8D8D8",
"8 	c #F8D5D6",
"9 	c #F7D1D2",
"0 	c #FBF7F7",
"a 	c #FFFEFE",
"b 	c #FAF9F9",
"c 	c #F5D3D3",
"d 	c #F8D5D5",
"e 	c #F7D5D9",
"f 	c #F3E2E0",
"g 	c #FA0001",
"h 	c #FE0403",
"i 	c #F8EEED",
"j 	c #FEFCFE",
"k 	c #FFFDFF",
"l 	c #FAFFFF",
"m 	c #F90102",
"n 	c #FE0404",
"o 	c #FFFEFF",
"p 	c #FFFCFD",
"q 	c #FA0102",
"r 	c #F4DEDA",
"s 	c #FCEFEC",
"t 	c #FCECE8",
"u 	c #FCEBE7",
"v 	c #F8F7F9",
"w 	c #F8E9E6",
"x 	c #FCEDE9",
"y 	c #FAF6F3",
"z 	c #F20606",
"A 	c #FF0303",
"B 	c #FC0000",
"C 	c #F4D4D3",
"D 	c #F8EAE7",
"E 	c #F60000",
"F 	c #F90000",
"G 	c #FD0001",
"H 	c #F6D7D5",
"I 	c #EA0505",
"J 	c #F6D7D7",
"K 	c #FFFDFD",
"L 	c #FBEDEA",
"M 	c #F5E1DE",
"N 	c #FCFFFF",
"O 	c #FBFFFF",
"P 	c #F9F8F4",
"Q 	c #F80000",
"R 	c #F70201",
"S 	c #FA0203",
"T 	c #FC0103",
"U 	c #FD0103",
"V 	c #F40505",
"W 	c #FE0303",
"X 	c #FD0404",
"Y 	c #ED0506",
"Z 	c #FA0100",
"` 	c #EA0504",
" .	c #F80102",
"  . + @ @ @ @ @ @ @ @ @ @ @ @ @ @ @ @ @ @ @ @ @ @ @ @ @ @ @ @ @ @ @ @ @ @ @ @ @ @ @ @ @ @ @ @ # ",
"$ % % % % % % % % % % % % % % % % % % % % % % % % % % % % % % % % % % % % % % % % % % % % % % & ",
"* % = = = = = = = = = = = = = = = = = = = = = = = = = = = = = = = = = = = = = = = = = = = = - ; ",
"* % = = = - = = = = = = = - - = = - = = = = = - = = = - = = - = = = = = - = - = = = = = = = - ; ",
"* % = = = - = = = = = = = - - = = - = = = = = - = = = - = = - = = = = = - = - = = = = = = = - ; ",
"* % = = = - - - - - - - = - - - - - = - = - - - = = = - - = - - - - = - - = - = = - - - = = - ; ",
"* % = = = - - - - - - - = - - - - - - > , , , , , , , , > = - - - - = - - = - = = - - - = = - ; ",
"* % = = = - - - - - - - = - - - - - = - = = = = = = = = - = - - - - = - - = - = = - - - = = - ; ",
"* % = - = - - - - - - - = - - - - - % ' ) ! ! ! ! ! ! ~ { ] - - - - - - - - - - - - - - - - - ; ",
"* % = - = - - - - - - - = - - - - - - ^ / ( ( ( ( ( ( ( _ : - - - - - - - - - - - - - - - - - ; ",
"* % = - = - - - - - - - = - - - - - - < [ ( ( ( } ( ( | 1 : - - - - - - - - - - - - - - - - - ; ",
"* % = = = - - - - - - - = - - - - - - < [ ( ( ( } ( ( | 1 : - - - - = - - = - = = - - - = = - ; ",
"* % = = = - = = = = = = = - - = = - - < [ ( ( ( } ( ( | 1 : - = = = = = - = - = = = = = = = - ; ",
"* % = = = = - - - - - - = = = - - - - < [ ( ( ( } ( ( | 1 : - - - - = - = = = = = - - - = = - ; ",
"* % = = = - - - - - - - = - - - - - - < [ ( ( } ( ( } | 1 : - - - - = - - = - = = - - - = = - ; ",
"* % = - - - - - - - - - - - - - - - - < [ ( ( ( ( ( ( | 1 : - - - - - - - - - - - - - - - - - ; ",
"* % = = = = - - - - - - = = = - - - - < [ ( ( } } ( } | 1 : - - - - = - = = = = = - - - = = - ; ",
"* % = = = - - - - - - - = - - - - - - < [ ( ( ( ( ( ( | 1 : - - - - = - - = - = = - - - = = - ; ",
"* % = = = - - - % - - - - - - - - - % 2 3 ( ( ( } ( ( 4 5 ] - - - - - - - - - % - = = = = = - ; ",
"* % = = = - > - 6 7 8 8 8 8 8 8 8 8 9 0 a ( } } } } } a b c d 8 8 8 8 8 8 d e f g h - - = = - ; ",
"* % = = = - , = i ( j j j j j j j j 3 } } ( ( ( } ( ( ( } 3 j j j j j j j j k l m n = = = = - ; ",
"* % = - = - , = ! ( ( ( ( ( ( ( ( ( ( ( ( } ( ( ( ( ( } ( ( ( ( ( ( ( ( ( ( ( l m n - - - - - ; ",
"* % = - = - , = ! ( ( ( ( ( } ( } ( ( } ( ( ( ( } ( ( ( ( ( ( ( ( ( ( } } ( ( l m n - - - - - ; ",
"* % = = = - , = ! ( ( ( ( ( } ( } ( ( } ( ( ( ( } ( ( ( ( ( ( ( ( ( ( } } ( ( l m n - - = = - ; ",
"* % = - = - , = ! ( ( } } ( } } } } } } ( ( ( } } ( } ( } } ( } } ( ( } } } ( l m n = = - - - ; ",
"* % = = = - , = ! ( ( ( ( ( ( ( ( ( ( ( ( ( ( ( ( ( ( ( ( ( ( ( ( ( ( ( ( ( ( l m n = = = = - ; ",
"* % = = = - , = ! ( ( ( ( ( ( ( ( ( ( ( ( ( ( ( ( ( ( ( ( ( ( ( ( ( ( ( ( ( ( l m n = = = = - ; ",
"* % = - = - , = ~ ( | | | | | | | | 4 a o } ( ( ( ( ( } ( | | | | | | | | | p l q n - - - - - ; ",
"* % = - = - > - r s t t t t t t t t u b } ( ( ( ( ( ( ( v w t t t t t t t t x y z A - - - - - ; ",
"* % = = = - = - ] ] ] ] ] ] ] ] ] ] B C 3 ( ( ( } ( ( | D E ] ] ] ] ] ] ] ] ] F G = = = = = - ; ",
"* % = - - - - = - - - - - - - - - - % H [ ( ( ( ( ( ( | 1 : - - - - - - - - - - - = - - - - - ; ",
"* % = = = - - - - - - - = - - - - - - < [ ( ( ( ( ( ( | 1 : - = - - = - - = - = = - - - = = - ; ",
"* % = = = - - - - - - - = - - - - - - < [ ( ( ( } ( ( | 1 : - - - - = - - = - = = - - - = = - ; ",
"* % = - = - - - - - - - = - - - - - - < [ ( ( ( } ( ( | 1 : - - - - - - - - - - - - - - - - - ; ",
"* % = = - = = = = = = = - = = = = - - < [ ( ( ( } ( ( | 1 : - = = = = = = = = = = = = = = = - ; ",
"* % = = = - - - - - - - = - - - - - - < [ ( ( } } ( } | 1 : - - - - = - - = - = = - - - = = - ; ",
"I % = - = - - - - - - - = - - - - - - < [ ( ( } } ( } | 1 : - - - - - - - - - - - - - - - - - ; ",
"I % = = = - = = = = = = = - - = = - - H [ ( ( ( } ( ( | 1 : - = = = = = - = - = = = = = = = - ; ",
"* % = = = - - - - - - - = - - - - - - J } ( ( ( ( ( ( K L ] - - - - = - - = - = = - - - = = - ; ",
"* % = = = - = = = = = = = - - = = - % M N O O O O O O O P Q - = = = = = - = - = = = = = = = - ; ",
"* % = = = - = = = = = = = - - = = - - R S T T T T T T U V G - = = = = = - = - = = = = = = = - ; ",
"* % = - = - - - - - - - = - - - - - = W n n n n n n n X A = = - - - - - - - - - - - - - - - - ; ",
"* % = = = = - - - - - - = = = - - - = - = - - = = = = = - = - - - - = - = = = = = - - - = = - ; ",
"* % = - = - - - - - - - = - - - - - - - - - - - - - - - - - - - - - - - - - - - - - - - - - - ; ",
"* % = - = - = = = = = = = - - = = - - = - = = - - - - - = - - = = = - = - - - - - = = = - - - ; ",
"* % = = = = = = = = = = = = = = = - = = = = = = = = = = = = - = = = = = = = = = = = = = = = - ; ",
"Y % - - - - - - - - - - - - - - - - - - - - - - - - - - - - - - - - - - - - - - - - - - - - % Z ",
"` & ; ; ; ; ; ; ; ; ; ; ; ; ; ; ; ; ; ; ; ; ; ; ; ; ; ; ; ; ; ; ; ; ; ; ; ; ; ; ; ; ; ; ; ; ;  ."};
