/* XPM */
static char * zmEN_xpm[] = {
"48 48 256 2",
"  	c #00001D",
". 	c #210202",
"+ 	c #000026",
"@ 	c #020223",
"# 	c #0B0B29",
"$ 	c #1B1B33",
"% 	c #383739",
"& 	c #252534",
"* 	c #420400",
"= 	c #410300",
"- 	c #440B07",
"; 	c #560600",
"> 	c #570A07",
", 	c #4F1816",
"' 	c #552B2B",
") 	c #00004B",
"! 	c #00004E",
"~ 	c #05054D",
"{ 	c #04044B",
"] 	c #060651",
"^ 	c #0A0A50",
"/ 	c #0D0D52",
"( 	c #0E0E55",
"_ 	c #0B0C53",
": 	c #0F1055",
"< 	c #111256",
"[ 	c #141457",
"} 	c #151559",
"| 	c #131359",
"1 	c #1B1C5D",
"2 	c #17185B",
"3 	c #323245",
"4 	c #2D2E42",
"5 	c #1E1E61",
"6 	c #1F2060",
"7 	c #232364",
"8 	c #2C2C6A",
"9 	c #282867",
"0 	c #2F306D",
"a 	c #32326E",
"b 	c #353671",
"c 	c #3A3A75",
"d 	c #3D3D77",
"e 	c #3A3A74",
"f 	c #3E3E78",
"g 	c #373871",
"h 	c #3F4079",
"i 	c #4C4D57",
"j 	c #5D5C5D",
"k 	c #5B5555",
"l 	c #514548",
"m 	c #6A5758",
"n 	c #41417A",
"o 	c #45457D",
"p 	c #48497F",
"q 	c #6D5F60",
"r 	c #5F6060",
"s 	c #606161",
"t 	c #626565",
"u 	c #67676F",
"v 	c #7E7E7E",
"w 	c #7A7B7C",
"x 	c #797677",
"y 	c #746A6A",
"z 	c #AB0600",
"A 	c #AC0700",
"B 	c #AB0302",
"C 	c #AA0B01",
"D 	c #AD0900",
"E 	c #AE0C01",
"F 	c #AD0A05",
"G 	c #AE0D06",
"H 	c #AA0D05",
"I 	c #AE0E09",
"J 	c #AA0D09",
"K 	c #AE100B",
"L 	c #AF120D",
"M 	c #A9100C",
"N 	c #B0140F",
"O 	c #AF1512",
"P 	c #B01612",
"Q 	c #B11714",
"R 	c #B21915",
"S 	c #B21A13",
"T 	c #B31D1A",
"U 	c #B31F1D",
"V 	c #B21B19",
"W 	c #B00C01",
"X 	c #B4211E",
"Y 	c #B3201C",
"Z 	c #B42220",
"` 	c #B52522",
" .	c #B62625",
"..	c #B62826",
"+.	c #B42824",
"@.	c #B72A29",
"#.	c #B72D2B",
"$.	c #B82F2D",
"%.	c #B9312E",
"&.	c #B93231",
"*.	c #BA3432",
"=.	c #BB3635",
"-.	c #BB3936",
";.	c #BC3C3A",
">.	c #B63A38",
",.	c #BE403E",
"'.	c #BE4240",
").	c #BF4544",
"!.	c #BC4A4A",
"~.	c #C24D4C",
"{.	c #C14946",
"].	c #C3504E",
"^.	c #C45551",
"/.	c #C45554",
"(.	c #C65C5B",
"_.	c #C55856",
":.	c #C8615E",
"<.	c #C96564",
"[.	c #CB6969",
"}.	c #CC6D6C",
"|.	c #C96765",
"1.	c #CC716F",
"2.	c #CE7373",
"3.	c #D17D7C",
"4.	c #D07876",
"5.	c #CC6F70",
"6.	c #D3817F",
"7.	c #4D4E83",
"8.	c #4F5084",
"9.	c #515286",
"0.	c #555789",
"a.	c #5B5C8D",
"b.	c #57588A",
"c.	c #5D5E91",
"d.	c #5E6090",
"e.	c #636493",
"f.	c #6A6B98",
"g.	c #72739E",
"h.	c #78779F",
"i.	c #686996",
"j.	c #7C7DA5",
"k.	c #7778A2",
"l.	c #D17F80",
"m.	c #7E8080",
"n.	c #7F80A8",
"o.	c #8384AA",
"p.	c #898AAE",
"q.	c #8B8DB1",
"r.	c #8F90B3",
"s.	c #9393B5",
"t.	c #9697B8",
"u.	c #9B9BBB",
"v.	c #9798B9",
"w.	c #9FA0BE",
"x.	c #A0A1BE",
"y.	c #D48383",
"z.	c #D68C8B",
"A.	c #D88F8E",
"B.	c #D58886",
"C.	c #D8908F",
"D.	c #D99493",
"E.	c #DC9C9B",
"F.	c #D79897",
"G.	c #CE8483",
"H.	c #DDA3A3",
"I.	c #DFA8A8",
"J.	c #DEB5B6",
"K.	c #E0A7A7",
"L.	c #E2AEAD",
"M.	c #E1ABAA",
"N.	c #E0A8A7",
"O.	c #E2B0AF",
"P.	c #E3B1B1",
"Q.	c #E4B3B2",
"R.	c #E5B6B5",
"S.	c #E6B8B7",
"T.	c #E6BABA",
"U.	c #E7BDBD",
"V.	c #E7BCBB",
"W.	c #E8BEBE",
"X.	c #E5B7B8",
"Y.	c #E8C0BF",
"Z.	c #A3A4C2",
"`.	c #AAABC5",
" +	c #AEAFC9",
".+	c #A6A8C6",
"++	c #AFB0CA",
"@+	c #B2B4CC",
"#+	c #B8B9CF",
"$+	c #BCBDD2",
"%+	c #BFC0D5",
"&+	c #C1C2D7",
"*+	c #C4C6D9",
"=+	c #C7C8DA",
"-+	c #CBCCDD",
";+	c #CFD0DF",
">+	c #E9C2C1",
",+	c #EAC6C5",
"'+	c #EAC4C3",
")+	c #ECCAC9",
"!+	c #EDCDCD",
"~+	c #EBCBCB",
"{+	c #EBC7C7",
"]+	c #ECCFD0",
"^+	c #EED2D2",
"/+	c #EED3D4",
"(+	c #EAD9DA",
"_+	c #F0D6D6",
":+	c #F1DADA",
"<+	c #F2DDDD",
"[+	c #F2DCDC",
"}+	c #F1D7D8",
"|+	c #EED0CF",
"1+	c #CFD0E0",
"2+	c #D4D5E3",
"3+	c #D9DAE6",
"4+	c #DCDCE7",
"5+	c #DDDEE9",
"6+	c #DBDCE8",
"7+	c #D7D8E5",
"8+	c #CECFE0",
"9+	c #F2DFE0",
"0+	c #DFE1EC",
"a+	c #E0E1EB",
"b+	c #E2E2ED",
"c+	c #E5E5EE",
"d+	c #E4E4ED",
"e+	c #E8E6EE",
"f+	c #EAECEE",
"g+	c #F4E3E3",
"h+	c #F6E9EA",
"i+	c #F5ECED",
"j+	c #F8EEEE",
"k+	c #F8EBEB",
"l+	c #F3E7E8",
"m+	c #E6E7F0",
"n+	c #E9E9F1",
"o+	c #EDEEF4",
"p+	c #E7E8F0",
"q+	c #F3EEF2",
"r+	c #F9EFF0",
"s+	c #F1F1F6",
"t+	c #F5F6F6",
"u+	c #F4F2F4",
"v+	c #FAF2F2",
"w+	c #FAF5F5",
"x+	c #FCF7F7",
"y+	c #FAF3F4",
"z+	c #F6F6FA",
"A+	c #F2F3F8",
"B+	c #F9F9FA",
"C+	c #FCF9F9",
"D+	c #FAFAFC",
"E+	c #FEFFFF",
"F+	c #FBFCFD",
"G+	c #F7F8FB",
"f+t+t+u+9 ) ) ) ) ) ) ) ) ) ) ) ) ) ( B+(+z C C C C C G.t+p ) ) ) ) ) ) ) ) ) ) < e+R C C C J l+",
"z.E+E+E+E+g ! ! ! ! ! ! ! ! ! ! ! ! } E+/+D E E E E E E.E+h ! ! ! ! ! ! ! ! ! } y+Q E E E G j+E+",
"C (.E+E+E+E+n ! ! ! ! ! ! ! ! ! ! ! 1 E+!+D E E E E D N.E+a ! ! ! ! ! ! ! ! 1 q+N E E E I j+E+E+",
"C E ;.E+E+E+E+0.! ! ! ! ! ! ! ! ! ! 9 E+'+D E E E E D Q.E+9 ! ! ! ! ! ! ! 9 g+G E E E L v+E+E+E+",
"C E E @.F+E+E+E+a.! ! ! ! ! ! ! ! ! 8 E+U.D E E E E D U.E+1 ! ! ! ! ! ! 8 <+D E E E P y+E+E+E+d.",
"C E E E V x+E+E+E+g.! ! ! ! ! ! ! ! a E+R.D E E E E D '+E+} ! ! ! ! ! ) <+A E E E P C+E+E+E+a.! ",
"(.D E E E I h+E+E+E+j.) ! ! ! ! ! ! c E+L.D E E E E D ,+E+( ! ! ! ! ) 2+D E E E T C+E+E+E+e.! ! ",
"n+z.D E E E D [+E+E+E+v.! ! ! ! ! ! f E+H.E E E E E D ~+E+^ ! ! ! ~ 5+&.E E E ` E+E+E+E+0.! ! ! ",
"~ 4+P.D E E E D >+E+E+E+0 ! ! ! ! ! f E+H.E E E E E D !+E+~ ! ! ~ c+@.E E E @.E+E+E+E+o ! ! ! ! ",
") ) @+}+D E E E A P.E+E+E+o ! ! ! ! h E+E.E E E E E D !+E+! ! ^ q+Z E E E %.E+E+E+E+c ! ! ! ! ! ",
") ! ) s.g+I E E E D D.E+E+E+9.! ! ! h E+E.E E E E E D !+E+! ^ s+Z E E E &.E+E+E+E+f ! ! ! ! ! ! ",
") ! ! ) g.w+P E E E D 4.E+E+E+e.! ! d E+E.E E E E E D )+E+/ s+X E E E A E+E+E+E+n ! ! ! ! ! ! ! ",
") ! ! ! ! ) -+P.D E E E ~.E+E+E+s+< c E+I.E E E E E D ,+E+H.D E E E @.E+E+E+6+) ! ! ! ! ! ! ! ! ",
") ! ! ! ! ! ) ++,+A E E E ,.E+E+E+D+8.E+P.D E E E E D ,+E+V E E E ` E+E+E+3+) ! ! ! ! ! ! ! ! ! ",
") ! ! ! ! ! ! ) x._+F E E E &.E+E+E+E+E+O.D E E E E D >+E+Z E E ..E+E+E+5+) ! ! ! ! ! ! ! ! ! ! ",
") ! ! ! ! ! ! ! ) o.g+G E E E  .E+E+E+E+P.D E E E E D R.E+@.D Z E+E+E+E+) ) ) ) ) ) ) ) ) ) ) ) ",
") ! ! ) ) ) ) ) ~ ^ j.k+[.4.B.D.X.E+E+E+L.D E E E E D P.E+h+g+F+E+E+E+B+3+a+a+5+6+d+c+e+e+n+s+s+",
"q.@+2+d+o+A+D+E+E+E+E+E+E+E+E+E+E+E+E+E+L.D E E E E D M.E+E+E+E+E+E+E+E+E+E+E+E+E+E+E+E+E+E+E+E+",
"t+E+E+E+E+E+E+E+E+E+E+E+E+E+E+E+E+E+E+E+P.D E E E E D H.y+y+y+j+[+/+g+g+[+:+}+:+:+[+<+[+<+[+/+^+",
"t+E+C+h+|+'+P.I.A.2.<.{.*.X P N L G A A D E E E E E E D A A A A A D A A A D D D D A A A A A D D ",
"J F A A D D D E E E E E E E E E E E E E E E E E E E E E E E E E E E E E E E E E E E E E E E E E ",
"C E E E E E E E E E E E E E E E E E E E E E E E E E E E E E E E E E E E E E E E E E E E E E E E ",
"C E E E E E E E E E E E E E E E E E E E E E E E E E E E E E E E E E E E E E E E E E E E E E E E ",
"C E E E E E E E E E E E E E E E E E E E E E E E E E E E E E E E E E E E E E E E E E E E E E E E ",
"C E E E E E E E E E E E E E E E E E E E E E E E E E E E E E E E E E E E E E E E E E E E E E E E ",
"C E E E E E E E E E E E E E E E E E E E E E E E E E E E E E E E E E E E E E E E E E E E E E E E ",
"C E E E E E E E E E E E E E E E E E E E E E E E E E E E D D D D D D D D D D D D D D D D D D D D ",
"C E E D D D A A A A D G N S Y %.;.).~.^.` E E E E E E 4.L.P.P.R.V.U.>+>+,+)+!+~+,+,+)+)+)+!+!+^+",
"!.[.B.L.Y./+<+j+C+E+E+E+E+E+E+E+E+E+E+E+}.E E E E E D S.E+E+E+E+E+E+E+E+E+E+E+E+E+E+E+E+E+E+E+E+",
"t+E+E+E+E+E+E+E+E+E+E+E+E+E+E+E+E+E+E+E+}.E E E E E D R.E+E+E+E+E+E+E+E+E+E+E+E+E+E+E+E+E+E+E+E+",
"t+E+E+E+E+E+E+F+B+z+s+o+E+E+E+E+R.^.z.E+2.E E E E E D R.E+E+E+3.V V V Q Q.k._ ( _ ^ ] ] ] ] ~ ! ",
"g.c.n 8 1 _ ! ) ) ) ) [ E+E+E+R.A E [.E+2.E E E E E D Q.E+E+E+E+}.D E E D L.n.) ! ! ! ! ! ! ! ! ",
") ! ! ! ! ! ! ! ! ! < z+E+E+R.D E E [.E+}.E E E E E D O.E+E+E+E+E+3.D E E D E.o.) ! ! ! ! ! ! ! ",
") ! ! ! ! ! ! ! ! < z+E+E+U.A E E E <.E+}.E E E E E D L.E+b.F+E+E+E+D.D E E D z.s.) ! ! ! ! ! ! ",
") ! ! ! ! ! ! ! < z+E+E+'+D E E E I k+E+}.E E E E E E H.E+c 1 D+E+E+E+F.E E E D B.s.) ! ! ! ! ! ",
") ! ! ! ! ! ! [ z+E+E+E+D E E E F j+s.E+[.E E E E E E H.E+c ! < z+E+E+E+X E E E D y.s.) ! ! ! ! ",
") ! ! ! ! ) t.E+E+E+/+A E E D }.=+) f.E+[.E E E E E E E.E+d ! ! ) j.E+E+E+R.D E E E I h+1 ! ! ! ",
") ! ! ! ) p.E+E+E+:+D E E E <.8+) ! g.E+[.E E E E E E E.E+d ! ! ! ) g.E+E+E+T.A E E E G h+7 ! ! ",
") ! ! ) r.E+E+E+/+D E E E |.-+) ! ! k.E+|.E E E E E E F.E+d ! ! ! ! ) i.E+E+E+~+A E E E F g+8 ! ",
") ! ) u.E+E+E+/+D E E E <.1+) ! ! ! k.E+[.E E E E E E F.E+n ! ! ! ! ! ! b+E+E+E+~+D E E E D <+a ",
") ) u.E+E+E+^+D E E E D 2+) ! ! ! ! o.E+<.E E E E E E D.E+n ! ! ! ! ! ! ~ 6+E+E+E+^+D E E E D /+",
") `.E+E+E+]+A E E E D g+) ! ! ! ! ! o.E+<.E E E E E E D.E+n ! ! ! ! ! ! ! ) 2+E+E+E+[+D E E E E ",
"`.E+E+E+{+D E E E F g+0.! ! ! ! ! ! s.E+_.E E E E E E A.E+n ! ! ! ! ! ! ! ! ) -+E+E+E+<+D E E E ",
"t+E+E+'+A E E E F k+b.! ! ! ! ! ! ! v.E+!.E E E E E E A.E+d ! ! ! ! ! ! ! ! ! ) *+E+E+E+<+D E E ",
"t+E+R.A E E E I j+9.! ! ! ! ! ! ! ! Z.E+,.E E E E E E F.E+d ! ! ! ! ! ! ! ! ! ! ) &+E+E+E+g+F E ",
"t+'+A E E E G j+7.! ! ! ! ! ! ! ! !  +E+-.E E E E E E D.E+c ! ! ! ! ! ! ! ! ! ! ! ) ++E+E+E+g+F ",
"J.D E E E L v+8.! ! ! ! ! ! ! ! ! ! #+E+*.E E E E E E E.E+b ! ! ! ! ! ! ! ! ! ! ! ! ) &+E+E+E+j+",
"C E E E R x+c ! ! ! ! ! ! ! ! ! ! ! &+E+..E E E E E E K.E+a ! ! ! ! ! ! ! ! ! ! ! ! ! ) $+E+E+E+"};
