/* XPM */
static char * zmgolly_stop_xpm[] = {
"48 48 864 2",
"  	c None",
". 	c #D52B2C",
"+ 	c #D31E1F",
"@ 	c #D3191A",
"# 	c #D21617",
"$ 	c #D21313",
"% 	c #D41415",
"& 	c #D21011",
"* 	c #D00D0D",
"= 	c #D00E0D",
"- 	c #D21010",
"; 	c #D21112",
"> 	c #D11011",
", 	c #D21819",
"' 	c #D21E20",
") 	c #D32122",
"! 	c #D21414",
"~ 	c #D31213",
"{ 	c #D10F0F",
"] 	c #CE0404",
"^ 	c #CF0000",
"/ 	c #CE0000",
"( 	c #CF0405",
"_ 	c #D20D0E",
": 	c #D31415",
"< 	c #D41C1D",
"[ 	c #D62A2C",
"} 	c #DA5151",
"| 	c #D72729",
"1 	c #D41213",
"2 	c #D00505",
"3 	c #CC0000",
"4 	c #CB0000",
"5 	c #CB0001",
"6 	c #CA0001",
"7 	c #D10000",
"8 	c #D30E10",
"9 	c #D72224",
"0 	c #DB4244",
"a 	c #DF5F60",
"b 	c #DD4142",
"c 	c #D51112",
"d 	c #D00000",
"e 	c #CD0000",
"f 	c #CC0001",
"g 	c #C90001",
"h 	c #C80101",
"i 	c #C70001",
"j 	c #C60000",
"k 	c #C60101",
"l 	c #C60001",
"m 	c #C50001",
"n 	c #C50000",
"o 	c #D40708",
"p 	c #DA2C2D",
"q 	c #E15B5C",
"r 	c #E16F71",
"s 	c #E3696B",
"t 	c #E45E5F",
"u 	c #DC3030",
"v 	c #D20405",
"w 	c #C80000",
"x 	c #C40000",
"y 	c #C30000",
"z 	c #C20001",
"A 	c #C20101",
"B 	c #C20000",
"C 	c #C10000",
"D 	c #D30405",
"E 	c #D71819",
"F 	c #E04A4A",
"G 	c #E56C6D",
"H 	c #E26C6D",
"I 	c #E26768",
"J 	c #E77475",
"K 	c #D51314",
"L 	c #CB0101",
"M 	c #C70000",
"N 	c #C00001",
"O 	c #BF0000",
"P 	c #BE0000",
"Q 	c #C00000",
"R 	c #D20203",
"S 	c #D40C0D",
"T 	c #DA2F30",
"U 	c #E87677",
"V 	c #E67475",
"W 	c #E06264",
"X 	c #E36C6C",
"Y 	c #EB8B8C",
"Z 	c #E25A5B",
"` 	c #D30507",
" .	c #D20000",
"..	c #C80001",
"+.	c #BD0000",
"@.	c #BC0000",
"#.	c #BD0100",
"$.	c #CA0000",
"%.	c #D30A0B",
"&.	c #D82627",
"*.	c #EA8585",
"=.	c #E88080",
"-.	c #DE5859",
";.	c #E2696B",
">.	c #EC8E90",
",.	c #E87B7C",
"'.	c #D71C1C",
").	c #C10001",
"!.	c #D20001",
"~.	c #D41012",
"{.	c #E04D4D",
"].	c #EE9999",
"^.	c #E05F60",
"/.	c #E26869",
"(.	c #E67374",
"_.	c #EA8485",
":.	c #E25859",
"<.	c #C40001",
"[.	c #C30001",
"}.	c #D40F10",
"|.	c #DE4142",
"1.	c #E97E7E",
"2.	c #E87C7D",
"3.	c #E25D5F",
"4.	c #E87778",
"5.	c #E66565",
"6.	c #E97979",
"7.	c #E88687",
"8.	c #E5696B",
"9.	c #DF3F40",
"0.	c #D7181A",
"a.	c #D20303",
"b.	c #C40101",
"c.	c #D40C0E",
"d.	c #DA3435",
"e.	c #E25F5F",
"f.	c #E36566",
"g.	c #DF5455",
"h.	c #E86364",
"i.	c #F18384",
"j.	c #E75858",
"k.	c #EE7476",
"l.	c #EFA1A3",
"m.	c #ECA2A2",
"n.	c #E57374",
"o.	c #D72829",
"p.	c #C90000",
"q.	c #D00001",
"r.	c #DE3637",
"s.	c #E44546",
"t.	c #E14142",
"u.	c #E64B4C",
"v.	c #F16364",
"w.	c #F47E7F",
"x.	c #E85D5D",
"y.	c #EA5455",
"z.	c #ED7374",
"A.	c #F2A8A8",
"B.	c #EFAFAF",
"C.	c #E99090",
"D.	c #E15F60",
"E.	c #D82A2B",
"F.	c #D30809",
"G.	c #D50A0C",
"H.	c #DE1E1F",
"I.	c #E83132",
"J.	c #ED3637",
"K.	c #EB2F30",
"L.	c #E82C2E",
"M.	c #ED3738",
"N.	c #F35657",
"O.	c #F27777",
"P.	c #E86262",
"Q.	c #EB5F5E",
"R.	c #EA5759",
"S.	c #E95656",
"T.	c #F08786",
"U.	c #F6B7B7",
"V.	c #F09D9C",
"W.	c #E87273",
"X.	c #E15152",
"Y.	c #DC393A",
"Z.	c #D9292B",
"`.	c #D71E1F",
" +	c #D71516",
".+	c #D70E0E",
"++	c #D60809",
"@+	c #D40507",
"#+	c #D40405",
"$+	c #D50404",
"%+	c #D60405",
"&+	c #D70506",
"*+	c #DA0708",
"=+	c #DE0A0C",
"-+	c #E21214",
";+	c #E72122",
">+	c #EB2E2E",
",+	c #EC3132",
"'+	c #EF3031",
")+	c #F22B2D",
"!+	c #EE1D1E",
"~+	c #E60E0F",
"{+	c #E70F11",
"]+	c #EC2425",
"^+	c #F0494A",
"/+	c #F06D6D",
"(+	c #E86363",
"_+	c #EC6262",
":+	c #EB6161",
"<+	c #EB5D5D",
"[+	c #EF7575",
"}+	c #F08484",
"|+	c #EA5B5B",
"1+	c #EA5353",
"2+	c #EA5151",
"3+	c #E64444",
"4+	c #E23738",
"5+	c #E03032",
"6+	c #E22E2E",
"7+	c #E82D2D",
"8+	c #EC2929",
"9+	c #EC2223",
"0+	c #ED1919",
"a+	c #EE1213",
"b+	c #ED1011",
"c+	c #ED0F11",
"d+	c #EE1314",
"e+	c #EE1A1A",
"f+	c #EE2020",
"g+	c #EE2122",
"h+	c #EA1B1B",
"i+	c #E50E0D",
"j+	c #E10000",
"k+	c #E30000",
"l+	c #E50304",
"m+	c #E91113",
"n+	c #EF3A3C",
"o+	c #EF6364",
"p+	c #E86566",
"q+	c #ED6464",
"r+	c #EC6263",
"s+	c #EB6060",
"t+	c #F08685",
"u+	c #F39C9B",
"v+	c #EA5658",
"w+	c #E73030",
"x+	c #E62425",
"y+	c #E31819",
"z+	c #E20E0F",
"A+	c #E10A0B",
"B+	c #E10E0D",
"C+	c #E31211",
"D+	c #E51313",
"E+	c #E61010",
"F+	c #E60C0C",
"G+	c #E70808",
"H+	c #E60607",
"I+	c #E50606",
"J+	c #E40505",
"K+	c #E20504",
"L+	c #E00403",
"M+	c #DD0000",
"N+	c #DB0000",
"O+	c #DC0000",
"P+	c #DE0000",
"Q+	c #DF0000",
"R+	c #E20001",
"S+	c #E40000",
"T+	c #E70608",
"U+	c #ED3033",
"V+	c #EE5E5F",
"W+	c #E18A8B",
"X+	c #E96768",
"Y+	c #ED6667",
"Z+	c #EC6465",
"`+	c #EC6161",
" @	c #F08181",
".@	c #F29595",
"+@	c #EA5657",
"@@	c #E73435",
"#@	c #E52829",
"$@	c #E31618",
"%@	c #E10405",
"&@	c #D80000",
"*@	c #D60000",
"=@	c #D70000",
"-@	c #D90000",
";@	c #DA0000",
">@	c #E00000",
",@	c #E60709",
"'@	c #EE3032",
")@	c #E56062",
"!@	c #CA8082",
"~@	c #E4F0F0",
"{@	c #DA9898",
"]@	c #E35A5B",
"^@	c #F06B6C",
"/@	c #EC6666",
"(@	c #EC6261",
"_@	c #EE7676",
":@	c #F08081",
"<@	c #EA5050",
"[@	c #E73334",
"}@	c #E42425",
"|@	c #E21112",
"1@	c #E00202",
"2@	c #DC0100",
"3@	c #DB0200",
"4@	c #D80101",
"5@	c #D80001",
"6@	c #D70101",
"7@	c #DA0100",
"8@	c #DB0100",
"9@	c #E30001",
"0@	c #E71113",
"a@	c #F2383A",
"b@	c #DE5052",
"c@	c #AF777A",
"d@	c #E7E9EA",
"e@	c #CB9494",
"f@	c #CA3F3F",
"g@	c #ED6263",
"h@	c #F16D6D",
"i@	c #EC6564",
"j@	c #ED6868",
"k@	c #EC6767",
"l@	c #E94A4A",
"m@	c #E42323",
"n@	c #E10E0E",
"o@	c #DF0101",
"p@	c #D90100",
"q@	c #D70001",
"r@	c #E5090A",
"s@	c #EB2426",
"t@	c #EC2B2C",
"u@	c #C92C2D",
"v@	c #A37679",
"w@	c #A8ACB0",
"x@	c #E1DEDF",
"y@	c #E9E6E7",
"z@	c #D4BFC0",
"A@	c #AE4748",
"B@	c #C43131",
"C@	c #E96364",
"D@	c #EF6A6A",
"E@	c #EE6261",
"F@	c #EA5555",
"G@	c #E74646",
"H@	c #E53636",
"I@	c #E32324",
"J@	c #E10F10",
"K@	c #DE0101",
"L@	c #D50000",
"M@	c #E10202",
"N@	c #E30B0C",
"O@	c #E51A1C",
"P@	c #E12223",
"Q@	c #C80506",
"R@	c #A83739",
"S@	c #A49B9F",
"T@	c #ABA7AB",
"U@	c #C8C6C8",
"V@	c #E8E9E9",
"W@	c #D6D8D9",
"X@	c #D6D6D8",
"Y@	c #EAE2E3",
"Z@	c #EBEAEA",
"`@	c #C29FA0",
" #	c #9C2E2E",
".#	c #B32323",
"+#	c #D7494A",
"@#	c #E75B5B",
"##	c #ED5758",
"$#	c #ED4B4C",
"%#	c #E93A3B",
"&#	c #E52728",
"*#	c #E11314",
"=#	c #DF0303",
"-#	c #E10101",
";#	c #E40506",
">#	c #E30D0E",
",#	c #DE1315",
"'#	c #D30D0D",
")#	c #BA0000",
"!#	c #A12425",
"~#	c #A4898D",
"{#	c #B2B3B8",
"]#	c #B2ABB0",
"^#	c #BAB8BB",
"/#	c #CFD0D0",
"(#	c #E0E0DF",
"_#	c #C7CBCE",
":#	c #C5CACF",
"<#	c #E3DEE0",
"[#	c #EEE7E8",
"}#	c #E9E9EA",
"|#	c #C2A6A8",
"1#	c #9E4445",
"2#	c #9B1818",
"3#	c #B31E1E",
"4#	c #CF3334",
"5#	c #DC3C3E",
"6#	c #E23839",
"7#	c #E52C2D",
"8#	c #E61C1D",
"9#	c #E40A0B",
"0#	c #E20000",
"a#	c #DB0001",
"b#	c #DE0203",
"c#	c #DB0506",
"d#	c #D80709",
"e#	c #D00304",
"f#	c #BB0000",
"g#	c #A70808",
"h#	c #9E3C3C",
"i#	c #A79496",
"j#	c #B7BCC1",
"k#	c #BCB4B9",
"l#	c #BBB4B9",
"m#	c #9FA2A6",
"n#	c #AEB0B2",
"o#	c #D9D9D9",
"p#	c #D5D6D7",
"q#	c #BFC4C9",
"r#	c #BAC3C9",
"s#	c #CDD1D5",
"t#	c #E6E0E2",
"u#	c #EEE6E8",
"v#	c #EDEDEF",
"w#	c #D4CCCE",
"x#	c #B17F7F",
"y#	c #9E3F40",
"z#	c #951617",
"A#	c #9E0707",
"B#	c #B3090A",
"C#	c #C30F0F",
"D#	c #CC0E0F",
"E#	c #D10809",
"F#	c #D40202",
"G#	c #D70100",
"H#	c #D80100",
"I#	c #D30000",
"J#	c #AD0000",
"K#	c #A51515",
"L#	c #A33B3D",
"M#	c #A37477",
"N#	c #AFAFB4",
"O#	c #BBC0C4",
"P#	c #C2BCBF",
"Q#	c #C4BCBF",
"R#	c #A7A8AC",
"S#	c #868C91",
"T#	c #96999B",
"U#	c #C8C8C8",
"V#	c #DFDFDF",
"W#	c #C8CBCF",
"X#	c #BDC3C9",
"Y#	c #BCC3C9",
"Z#	c #BCC4CA",
"`#	c #CBD0D4",
" $	c #E4DFE2",
".$	c #EDE5E6",
"+$	c #EFEBEC",
"@$	c #EBECEE",
"#$	c #D2CDCE",
"$$	c #B89192",
"%$	c #A96061",
"&$	c #9E3B3C",
"*$	c #961B1D",
"=$	c #960405",
"-$	c #9E0000",
";$	c #A80000",
">$	c #AF0000",
",$	c #B50000",
"'$	c #B90000",
")$	c #B60000",
"!$	c #B00000",
"~$	c #A70000",
"{$	c #A30A0C",
"]$	c #A62324",
"^$	c #A83F40",
"/$	c #A75E60",
"($	c #A68487",
"_$	c #AEAEB2",
":$	c #BCC1C5",
"<$	c #C5C5C8",
"[$	c #CEC8CB",
"}$	c #CAC4C7",
"|$	c #ABACAF",
"1$	c #878C90",
"2$	c #7E8387",
"3$	c #85898D",
"4$	c #B0B1B2",
"5$	c #DCDCDB",
"6$	c #D7D9D9",
"7$	c #C1C7CB",
"8$	c #BEC4CB",
"9$	c #BBC2C8",
"0$	c #BDC5CC",
"a$	c #D9E1E6",
"b$	c #ECEDF2",
"c$	c #E7E4E5",
"d$	c #EDE7E7",
"e$	c #F2EEEF",
"f$	c #F1F1F2",
"g$	c #E5E8E9",
"h$	c #D1CCCD",
"i$	c #C2A7A9",
"j$	c #B88688",
"k$	c #B16E6E",
"l$	c #AC5A5B",
"m$	c #A84A4C",
"n$	c #A73F3F",
"o$	c #A63536",
"p$	c #A42F30",
"q$	c #A32C2D",
"r$	c #A32D2E",
"s$	c #A53132",
"t$	c #A53536",
"u$	c #A73D3E",
"v$	c #AA4A4B",
"w$	c #AD5A5B",
"x$	c #B06D6F",
"y$	c #B28587",
"z$	c #B49FA2",
"A$	c #B8B9BD",
"B$	c #C5CACE",
"C$	c #CECFD3",
"D$	c #D5D3D5",
"E$	c #DAD6D8",
"F$	c #D7D3D5",
"G$	c #D0CFD1",
"H$	c #C1C5CA",
"I$	c #989EA4",
"J$	c #7E8286",
"K$	c #7F8488",
"L$	c #7D8286",
"M$	c #9C9FA1",
"N$	c #CDCDCD",
"O$	c #D4D6D8",
"P$	c #C5CCD1",
"Q$	c #BBC3C9",
"R$	c #BDC4CA",
"S$	c #C7CED5",
"T$	c #E1EBF2",
"U$	c #E4EEF5",
"V$	c #CFD4DB",
"W$	c #D1D1D6",
"X$	c #E0DDE0",
"Y$	c #ECE6E8",
"Z$	c #F2ECEE",
"`$	c #F3EFF1",
" %	c #F4F3F4",
".%	c #F0F3F5",
"+%	c #E7ECEE",
"@%	c #DCE3E4",
"#%	c #D5D7D9",
"$%	c #D1CBCC",
"%%	c #CCC1C3",
"&%	c #C8B9BB",
"*%	c #C6B5B7",
"=%	c #C5B4B7",
"-%	c #C5B8BA",
";%	c #C6BCBE",
">%	c #C8C4C7",
",%	c #CBD0D3",
"'%	c #D1DADC",
")%	c #DBE2E5",
"!%	c #E2E7EA",
"~%	c #E4E5E7",
"{%	c #E6E4E5",
"]%	c #E8E4E6",
"^%	c #E6E2E3",
"/%	c #DEDCDE",
"(%	c #D8D8DB",
"_%	c #CCCFD3",
":%	c #BBC2C7",
"<%	c #AFB6BB",
"[%	c #8A8E93",
"}%	c #81868A",
"|%	c #A2A7AA",
"1%	c #C5C6C7",
"2%	c #E0DFDF",
"3%	c #D6D9DA",
"4%	c #D1D8DE",
"5%	c #BEC6CC",
"6%	c #D0D8DF",
"7%	c #E9F2F9",
"8%	c #D6DFE6",
"9%	c #BBC3CA",
"0%	c #BAC2C8",
"a%	c #C3C9CF",
"b%	c #CCD0D4",
"c%	c #D5D5D9",
"d%	c #DDDBDE",
"e%	c #E4E0E3",
"f%	c #EAE5E7",
"g%	c #F0E9EB",
"h%	c #F1EAEA",
"i%	c #F0E9EA",
"j%	c #F0EAEB",
"k%	c #EFECEC",
"l%	c #EEEBED",
"m%	c #EEECEE",
"n%	c #F0EDEE",
"o%	c #F1EDEF",
"p%	c #F0ECEF",
"q%	c #F0ECEE",
"r%	c #F1ECED",
"s%	c #EFEAEC",
"t%	c #EBE8E9",
"u%	c #E6E4E4",
"v%	c #E2E1E2",
"w%	c #D9DADC",
"x%	c #C3C5C8",
"y%	c #B3B8BC",
"z%	c #B8C0C6",
"A%	c #BDC4CB",
"B%	c #BFC7CD",
"C%	c #BEC4CA",
"D%	c #9BA1A7",
"E%	c #999FA4",
"F%	c #BABFC4",
"G%	c #C3C4C5",
"H%	c #DBDADA",
"I%	c #D8DADB",
"J%	c #D6DCE2",
"K%	c #CDD5DC",
"L%	c #C0C7CD",
"M%	c #D9E1E9",
"N%	c #E5EEF5",
"O%	c #CAD2D8",
"P%	c #BEC5CB",
"Q%	c #C1C8CE",
"R%	c #C6CCD0",
"S%	c #CACED2",
"T%	c #CED0D5",
"U%	c #D2D3D7",
"V%	c #D5D6D9",
"W%	c #D9D8DC",
"X%	c #DCDADD",
"Y%	c #DAD8DB",
"Z%	c #DAD8DA",
"`%	c #D9D7D9",
" &	c #D5D4D7",
".&	c #D3D3D6",
"+&	c #D4D4D7",
"@&	c #D3D4D6",
"#&	c #CFD0D3",
"$&	c #CBCED1",
"%&	c #C4C9CD",
"&&	c #C0C6CC",
"*&	c #BCC2C9",
"=&	c #A8AFB5",
"-&	c #9CA3A8",
";&	c #B7BEC4",
">&	c #C0C7CE",
",&	c #BFC6CC",
"'&	c #ACB2B7",
")&	c #9EA4A9",
"!&	c #C2CBD2",
"~&	c #BFC0BF",
"{&	c #E3E3E2",
"]&	c #CFD1D4",
"^&	c #D7DFE6",
"/&	c #CBD4DB",
"(&	c #CBD2DA",
"_&	c #E1E9F1",
":&	c #D9E2E8",
"<&	c #BCC3CA",
"[&	c #BAC2C9",
"}&	c #C1C8CD",
"|&	c #C0C7CC",
"1&	c #BDC4C9",
"2&	c #B3BAC1",
"3&	c #ACB5BB",
"4&	c #B5BDC3",
"5&	c #BAC1C7",
"6&	c #B8BFC5",
"7&	c #BAC1C8",
"8&	c #B8BEC4",
"9&	c #9FA5A9",
"0&	c #ADB3B9",
"a&	c #C5CCD2",
"b&	c #D2DBE2",
"c&	c #C7CFD5",
"d&	c #B2B4B4",
"e&	c #CDCCCB",
"f&	c #D0D1D0",
"g&	c #C8CBCE",
"h&	c #D7DFE7",
"i&	c #EAF3F9",
"j&	c #EEF6FC",
"k&	c #CED6DC",
"l&	c #BAC0C6",
"m&	c #BDC5CB",
"n&	c #B0B8C0",
"o&	c #A7B1BA",
"p&	c #B3BCC3",
"q&	c #BEC5CC",
"r&	c #A1A7AC",
"s&	c #A2A8AD",
"t&	c #DDE6EE",
"u&	c #CDD4DA",
"v&	c #ABAEB0",
"w&	c #BFBFBF",
"x&	c #E2E2E2",
"y&	c #E1E1E0",
"z&	c #C9C9C9",
"A&	c #C6CACD",
"B&	c #EBF0F2",
"C&	c #F4FAFD",
"D&	c #D7DFE5",
"E&	c #C5CCD3",
"F&	c #BBC3C8",
"G&	c #BEC5CA",
"H&	c #BFC6CB",
"I&	c #B2BAC2",
"J&	c #A7B0BA",
"K&	c #B1B9C1",
"L&	c #A7ADB2",
"M&	c #9DA2A7",
"N&	c #DCE5EC",
"O&	c #C2C8CE",
"P&	c #A8A9AB",
"Q&	c #BBBABA",
"R&	c #DCDCDC",
"S&	c #CBCBCA",
"T&	c #C6C6C5",
"U&	c #CED1D3",
"V&	c #D8DFE7",
"W&	c #D1D9E1",
"X&	c #B1BAC2",
"Y&	c #A4AFB7",
"Z&	c #ACB5BD",
"`&	c #BFC5CC",
" *	c #C4CBD1",
".*	c #ADB3B8",
"+*	c #C7CED6",
"@*	c #E0E8F0",
"#*	c #D2D9DF",
"$*	c #B2B7BA",
"%*	c #A7A9A9",
"&*	c #C0BFBF",
"**	c #DEDDDC",
"=*	c #D1D1D0",
"-*	c #BFC0C0",
";*	c #B9BBBD",
">*	c #C3C8CC",
",*	c #D0D6DD",
"'*	c #DFE8F0",
")*	c #D2DAE1",
"!*	c #C8D0D7",
"~*	c #C6CDD4",
"{*	c #C2C9D0",
"]*	c #C0C8CE",
"^*	c #B4BCC4",
"/*	c #A5AFB8",
"(*	c #AAB3BC",
"_*	c #BBC2C9",
":*	c #C2C9CF",
"<*	c #C7CED4",
"[*	c #CED6DD",
"}*	c #E3ECF3",
"|*	c #DCE4EB",
"1*	c #B4BBC1",
"2*	c #B1B7BC",
"3*	c #B8BCC1",
"4*	c #A9AAAC",
"5*	c #B2B2B2",
"6*	c #CCCCCB",
"7*	c #E5E4E4",
"8*	c #DFDDDD",
"9*	c #D0CFCD",
"0*	c #C0C0BF",
"a*	c #B8B9BA",
"b*	c #BDC0C2",
"c*	c #C8CCD1",
"d*	c #D2D8DE",
"e*	c #E2EBF3",
"f*	c #EBF4FC",
"g*	c #F0FAFF",
"h*	c #EFF8FF",
"i*	c #E5EFF7",
"j*	c #E0E9F1",
"k*	c #DBE4EC",
"l*	c #D7E0E7",
"m*	c #D5DEE5",
"n*	c #C5CED5",
"o*	c #B1BCC5",
"p*	c #B3BDC7",
"q*	c #C7CFD7",
"r*	c #DCE5ED",
"s*	c #DEE7EF",
"t*	c #DAE3EA",
"u*	c #D4DCE3",
"v*	c #CFD6DC",
"w*	c #C0C4C9",
"x*	c #A6A8AB",
"y*	c #A2A3A4",
"z*	c #B4B3B3",
"A*	c #C7C7C6",
"B*	c #E1E0E0",
"C*	c #D4D4D3",
"D*	c #C8C7C7",
"E*	c #BCBCBB",
"F*	c #B7B8B8",
"G*	c #BABDBF",
"H*	c #C0C4C8",
"I*	c #C7CDD1",
"J*	c #D0D6DB",
"K*	c #D4DBE0",
"L*	c #D7DEE5",
"M*	c #D9E1E8",
"N*	c #DAE1E8",
"O*	c #D8E0E7",
"P*	c #C7D0D7",
"Q*	c #B1BBC4",
"R*	c #AEB7BF",
"S*	c #C5CBD1",
"T*	c #C3CACF",
"U*	c #BEC4C8",
"V*	c #B7BCBF",
"W*	c #B0B3B5",
"X*	c #ACACAD",
"Y*	c #B1B1B1",
"Z*	c #C2C1C1",
"`*	c #CECECD",
" =	c #DADAD9",
".=	c #DEDEDE",
"+=	c #D4D4D2",
"@=	c #CCCACA",
"#=	c #C3C3C2",
"$=	c #BCBBBB",
"%=	c #B6B6B5",
"&=	c #B5B6B6",
"*=	c #B6B7B9",
"==	c #B8BABB",
"-=	c #B8BABD",
";=	c #B7B9BC",
">=	c #B6B8BB",
",=	c #B1B4B7",
"'=	c #AAADB0",
")=	c #A8ACAE",
"!=	c #ADAFB2",
"~=	c #B1B2B3",
"{=	c #B0B1B1",
"]=	c #AFB0AF",
"^=	c #B4B4B3",
"/=	c #BEBDBD",
"(=	c #C6C5C5",
"_=	c #DAD9D9",
":=	c #E6E5E6",
"<=	c #D6D6D5",
"[=	c #D2D2D1",
"}=	c #D0CFCF",
"|=	c #CAC9C9",
"1=	c #C8C8C7",
"2=	c #C7C6C6",
"3=	c #CAC9C8",
"4=	c #CBCACA",
"5=	c #CFCECE",
"6=	c #D3D2D2",
"7=	c #D7D7D6",
"                                                                                                ",
"                                                                                                ",
"                                                                                                ",
"                                                                                                ",
"                                                                                                ",
"                                                                                                ",
"                                . + @ # $ % & * = - ; > # , '                                   ",
"                          ) ! ~ { ] ^ ^ ^ ^ ^ ^ ^ ^ / ^ ^ / ( _ : < [                           ",
"                    } | 1 2 / / 3 4 5 5 5 6 6 6 6 6 6 6 6 4 3 / ^ 7 8 9 0                       ",
"                  a b c d e f g h i j k l l l l l l m m n l i g 5 / 7 o p q r                   ",
"                s t u v / 4 w j x y z A z B B B B B C C C C z n g 3 d D E F G H                 ",
"              I J t K d / L M m y C N O O O O O O O P P O P Q B l 4 d R S T U V W               ",
"              X Y Z `  ./ 5 ..m B C Q P +.+.+.+.@.@.+.#.+.+.O B m $.d R %.&.*.=.-.              ",
"              ;.>.,.'. .^ 3 6 i y ).Q O P +.P +.@.+.+.P P P Q y i 3 d !.~.{.].V ^.              ",
"              /.(._.:.'.7 / 3 $.i <.z C Q O O O O O O Q Q C [.M $.e d }.|.1.2.3.4.              ",
"              5.6.7.8.9.0.a.^ e 5 g i n x b.y x x x x x x l ..$.e ^ c.d.e.f.g.h.i.              ",
"              j.k.l.m.n.o.7 d d ^ e 4 $.p.g p.......g p.$.3 e / ^ q.: r.s.t.u.v.w.              ",
"              x.y.z.A.B.C.D.E.F.d d ^ / e e e 3 e e e e e e e ^ G.H.I.J.K.L.M.N.O.              ",
"              P.Q.R.S.T.U.V.W.X.Y.Z.`. +.+++@+#+$+%+&+*+=+-+;+>+,+'+)+!+~+{+]+^+/+              ",
"              (+_+:+<+[+}+|+1+2+3+4+5+6+7+8+9+0+a+b+c+b+d+e+f+g+h+i+j+j+k+l+m+n+o+              ",
"              p+q+r+s+t+u+v+w+x+y+z+A+B+C+D+E+F+G+H+I+J+K+L+M+N+O+P+Q+j+R+S+T+U+V+              ",
"            W+X+Y+Z+`+ @.@+@@@#@$@%@Q+M+N+&@*@*@=@=@=@&@-@;@N+M+M+Q+>@Q+>@k+,@'@)@!@            ",
"          ~@{@]@^@/@(@_@:@<@[@}@|@1@M+2@3@4@5@5@5@5@6@5@-@7@8@N+M+Q+Q+Q+>@9@0@a@b@c@            ",
"          d@e@f@g@h@i@j@k@l@@@m@n@o@O+8@p@q@*@*@*@*@*@q@&@;@8@N+M+P+Q+Q+j+r@s@t@u@v@w@          ",
"        x@y@z@A@B@C@D@E@F@G@H@I@J@K@O+;@-@=@*@L@L@*@=@q@5@;@N+N+O+P+Q+M@N@O@P@Q@R@S@T@U@V@      ",
"      W@X@Y@Z@`@ #.#+#@###$#%#&#*#=#O+;@-@&@q@*@=@&@&@&@-@;@N+O+Q+-#;#>#,#'#)#!#~#{#]#^#/#      ",
"    (#_#:#<#[#}#|#1#2#3#4#5#6#7#8#9#0#Q+P+O+a#;@N+O+O+M+P+Q+>@>@b#c#d#e#f#g#h#i#j#k#l#m#n#o#    ",
"    p#q#r#s#t#u#v#w#x#y#z#A#B#C#D#E#F#*@=@G#G#H#H#G#=@=@L@I#7 e M @.J#K#L#M#N#O#P#Q#R#S#T#U#    ",
"  V#W#X#Y#Z#`# $.$+$@$#$$$%$&$*$=$-$;$>$,$'$@.+.+.+.@.'$)$!$~${$]$^$/$($_$:$<$[$}$|$1$2$3$4$5$  ",
"  6$7$Y#8$9$0$a$b$c$d$e$f$g$h$i$j$k$l$m$n$o$p$q$r$s$t$u$v$w$x$y$z$A$B$C$D$E$F$G$H$I$J$K$L$M$N$  ",
"  O$P$Q$R$9$S$T$U$V$W$X$Y$Z$`$ %.%+%@%#%$%%%&%*%=%-%;%>%,%'%)%!%~%{%]%^%/%(%_%:%Z#<%[%J$}%|%1%2%",
"  3%4%5%:%R$6%7%8%9%0%a%b%c%d%e%f%g%h%i%j%k%l%m%m%n%o%p%q%r%s%t%u%v%w%x%y%z%9$A%B%C%D%K$E%F%G%H%",
"  I%J%K%9$L%M%N%O%9$P%Y#0%Y#Q%R%S%T%U%V%W%X%Y%Z%`% &.&+&@&#&$&W#%&&&*&=&-&;&>&P%R$,&'&)&!&:$~&{&",
"  o#]&^&/&(&_&:&L%Y#P%P%P%A%<&Q$0%[&Z#5%L%}&|&|&1&2&3&4&5&6&;&6&7&Z#Q%8&9&0&,&R$9$X#a&b&c&d&e&  ",
"    f&g&h&i&j&k&l&Y#Y#R$R$P%P%P%P%P%R$R$Y#Y#<&m&<&n&o&p&q&,&,&,&P%P%L%9$r&s&9$P%Q%6%t&u&v&w&x&  ",
"    y&z&A&B&C&D&E&L%R$F&9$9$Y#1&R$R$G&P%P%P%P%H&P%I&J&K&R$P%R$R$R$Y#R$Y#L&M&5&6%N&N&O&P&Q&R&    ",
"      y&S&T&U&6%V&M%W&c&Q%P%R$Y#9$9$9$9$*&Y#Y#R$R$X&Y&Z&9$R$Y#Y#Y#R$`& *X#.*+*@*#*$*%*&***      ",
"          =*-*;*>*,*M%_&'*M%)*K%!*~* *{*]*B%,&,&P%^*/*(*_*L%L%:*<*[*h&}*|*1*2*3*4*5*6*7*        ",
"            8*9*0*a*b*c*d*:&e*f*g*h*f*i*j*k*l*m*)*n*o*p*q*)*h&r*s*t*u*v*w*x*y*z*A*H%            ",
"                B*C*D*E*F*G*H*I*J*K*L*M*N*N*O*^&u*P*Q*R*A%S*T*O&U*V*W*X*Y*Z*`* =                ",
"                      .=+=@=#=$=%=&=*=a*==-=-=;=>=,='=)=!=~={=]=^=/=(=`*_=:=                    ",
"                              B*H%<=[=}=6*|=1=2=T&A*3=4=6*5=6=7=R&{&                            ",
"                                                                                                ",
"                                                                                                ",
"                                                                                                ",
"                                                                                                ",
"                                                                                                ",
"                                                                                                "};
