/* XPM */
static char * zmgolly_step_xpm[] = {
"48 48 780 2",
"  	c None",
". 	c #000000",
"+ 	c #000101",
"@ 	c #001620",
"# 	c #012839",
"$ 	c #023950",
"% 	c #02445F",
"& 	c #014C68",
"* 	c #014D69",
"= 	c #024560",
"- 	c #023A51",
"; 	c #000102",
"> 	c #000305",
", 	c #022334",
"' 	c #044C70",
") 	c #056A9A",
"! 	c #0578AD",
"~ 	c #0585BD",
"{ 	c #0491CC",
"] 	c #0498D5",
"^ 	c #039FDC",
"/ 	c #02A2DE",
"( 	c #039BD8",
"_ 	c #0493CE",
": 	c #0486BE",
"< 	c #044C71",
"[ 	c #022335",
"} 	c #000406",
"| 	c #010E17",
"1 	c #033754",
"2 	c #066AA0",
"3 	c #077BB6",
"4 	c #0681BE",
"5 	c #0485C2",
"6 	c #0486C2",
"7 	c #0589C2",
"8 	c #068CC4",
"9 	c #078FC7",
"0 	c #0692CA",
"a 	c #0695CC",
"b 	c #0691C9",
"c 	c #068DC5",
"d 	c #058AC4",
"e 	c #0487C2",
"f 	c #0486C3",
"g 	c #0680BD",
"h 	c #0779B5",
"i 	c #0769A0",
"j 	c #043654",
"k 	c #010F17",
"l 	c #000507",
"m 	c #043757",
"n 	c #07659D",
"o 	c #0875B4",
"p 	c #0674B0",
"q 	c #0575B0",
"r 	c #0A7DB6",
"s 	c #0E85BB",
"t 	c #1289BE",
"u 	c #158CC0",
"v 	c #188DC1",
"w 	c #198DC1",
"x 	c #198CC0",
"y 	c #1A8CC0",
"z 	c #188BBF",
"A 	c #1789BD",
"B 	c #1487BC",
"C 	c #1284BA",
"D 	c #0E80B7",
"E 	c #097AB3",
"F 	c #0673AF",
"G 	c #0873B2",
"H 	c #07639C",
"I 	c #043657",
"J 	c #000509",
"K 	c #021B2C",
"L 	c #075588",
"M 	c #086EAE",
"N 	c #066AA6",
"O 	c #086EA7",
"P 	c #107EB5",
"Q 	c #198ABE",
"R 	c #1C8FC1",
"S 	c #1F90C2",
"T 	c #2191C2",
"U 	c #208FC0",
"V 	c #1F8DBF",
"W 	c #1E8CBE",
"X 	c #1E8ABD",
"Y 	c #1E89BC",
"Z 	c #1E88BB",
"` 	c #1E87BA",
" .	c #1E87B9",
"..	c #1E86B9",
"+.	c #1C84B8",
"@.	c #1981B6",
"#.	c #167EB4",
"$.	c #0F77AE",
"%.	c #086BA4",
"&.	c #0768A4",
"*.	c #086BAB",
"=.	c #075286",
"-.	c #021B2D",
";.	c #043150",
">.	c #0965A4",
",.	c #0765A4",
"'.	c #0A6CA7",
").	c #137FB5",
"!.	c #1D90C3",
"~.	c #2194C6",
"{.	c #2194C4",
"].	c #2091C3",
"^.	c #1F8FC1",
"/.	c #1F8EC0",
"(.	c #1E8DBF",
"_.	c #1D8CBE",
":.	c #1D8ABD",
"<.	c #1C88BB",
"[.	c #1D88BB",
"}.	c #1C87B9",
"|.	c #1B85B8",
"1.	c #1B84B8",
"2.	c #1C83B7",
"3.	c #1C83B6",
"4.	c #1C82B6",
"5.	c #1C81B5",
"6.	c #197DB2",
"7.	c #1172AA",
"8.	c #0A67A2",
"9.	c #0862A2",
"0.	c #09609F",
"a.	c #052F4F",
"b.	c #06395F",
"c.	c #0964A6",
"d.	c #08619E",
"e.	c #1176AD",
"f.	c #1D8FC3",
"g.	c #2297C9",
"h.	c #2093C4",
"i.	c #1F92C3",
"j.	c #1E90C2",
"k.	c #1D89BC",
"l.	c #1C87BA",
"m.	c #1C86B9",
"n.	c #1C82B7",
"o.	c #1B82B6",
"p.	c #1A81B5",
"q.	c #1B80B4",
"r.	c #1B7FB3",
"s.	c #1A7DB2",
"t.	c #1B7EB3",
"u.	c #1879AF",
"v.	c #0F6AA3",
"w.	c #095D9A",
"x.	c #0A5FA1",
"y.	c #06375D",
"z.	c #000002",
"A.	c #063A61",
"B.	c #085B9C",
"C.	c #0A629D",
"D.	c #1883B8",
"E.	c #2197C8",
"F.	c #2195C7",
"G.	c #1F92C4",
"H.	c #1F91C3",
"I.	c #1E8EC0",
"J.	c #1B83B7",
"K.	c #1B81B5",
"L.	c #1A7FB4",
"M.	c #1A7DB3",
"N.	c #197CB1",
"O.	c #197BB0",
"P.	c #1A7CB1",
"Q.	c #197BAF",
"R.	c #146FA7",
"S.	c #0B5B97",
"T.	c #095798",
"U.	c #063660",
"V.	c #063459",
"W.	c #095C9F",
"X.	c #0D659F",
"Y.	c #1D8EC2",
"Z.	c #2199CB",
"`.	c #2095C6",
" +	c #2092C3",
".+	c #1D8CBF",
"++	c #1F93C5",
"@+	c #2196C8",
"#+	c #2199CA",
"$+	c #219ACB",
"%+	c #229ACA",
"&+	c #2197C9",
"*+	c #2094C6",
"=+	c #1E8FC2",
"-+	c #1D89BD",
";+	c #1C83B8",
">+	c #1A7EB2",
",+	c #1A7BB0",
"'+	c #197AAF",
")+	c #197AAE",
"!+	c #1979AE",
"~+	c #1A79AF",
"{+	c #1673A9",
"]+	c #0C5B97",
"^+	c #0A579A",
"/+	c #073055",
"(+	c #03213A",
"_+	c #09589A",
":+	c #0F66A1",
"<+	c #1E91C4",
"[+	c #2094C5",
"}+	c #2092C4",
"|+	c #2096C8",
"1+	c #219BCD",
"2+	c #229FCF",
"3+	c #229FD0",
"4+	c #23A0D0",
"5+	c #239FD0",
"6+	c #1C86BA",
"7+	c #1878AE",
"8+	c #1879AE",
"9+	c #1978AE",
"0+	c #1977AD",
"a+	c #1875AB",
"b+	c #1877AC",
"c+	c #1772A9",
"d+	c #0E5B97",
"e+	c #0B5295",
"f+	c #041F39",
"g+	c #010D16",
"h+	c #074983",
"i+	c #0E63A1",
"j+	c #1E92C4",
"k+	c #2097C9",
"l+	c #1E90C1",
"m+	c #2198CA",
"n+	c #219CCD",
"o+	c #229DCE",
"p+	c #229CCD",
"q+	c #219BCC",
"r+	c #229ECF",
"s+	c #1F94C6",
"t+	c #1A82B6",
"u+	c #1876AC",
"v+	c #1875AC",
"w+	c #1775AB",
"x+	c #1874AA",
"y+	c #1873AA",
"z+	c #1670A7",
"A+	c #0E5896",
"B+	c #094580",
"C+	c #010C15",
"D+	c #063763",
"E+	c #0C5E9F",
"F+	c #1E8EC2",
"G+	c #1E8FC1",
"H+	c #229BCC",
"I+	c #229ACC",
"J+	c #229CCE",
"K+	c #1E8CBF",
"L+	c #1878AD",
"M+	c #1773A9",
"N+	c #1671A8",
"O+	c #166CA3",
"P+	c #0D5596",
"Q+	c #07325F",
"R+	c #021627",
"S+	c #0A5393",
"T+	c #197FB4",
"U+	c #1770A7",
"V+	c #1771A9",
"W+	c #1771A8",
"X+	c #12639C",
"Y+	c #0B4B8D",
"Z+	c #021325",
"`+	c #063563",
" @	c #136EAA",
".@	c #2095C7",
"+@	c #1F91C4",
"@@	c #1877AD",
"#@	c #166EA5",
"$@	c #166DA4",
"%@	c #0F5A98",
"&@	c #010A16",
"*@	c #0D5896",
"=@	c #1D8EC3",
"-@	c #1F94C7",
";@	c #2094C7",
">@	c #1774AA",
",@	c #166CA4",
"'@	c #156DA4",
")@	c #1468A2",
"!@	c #0D4D8B",
"~@	c #042648",
"{@	c #1574B0",
"]@	c #2093C5",
"^@	c #1C91C3",
"/@	c #148DC1",
"(@	c #158EC1",
"_@	c #1D91C4",
":@	c #158DC1",
"<@	c #1B90C3",
"[@	c #156CA4",
"}@	c #156BA3",
"|@	c #166BA3",
"1@	c #1569A1",
"2@	c #115B9A",
"3@	c #052345",
"4@	c #083E70",
"5@	c #1E92C9",
"6@	c #1F91C2",
"7@	c #1B8FC1",
"8@	c #2392C3",
"9@	c #65B3D5",
"0@	c #58ACD2",
"a@	c #1C8FC2",
"b@	c #1189BE",
"c@	c #1D8FC2",
"d@	c #1D8FC1",
"e@	c #5EAFD4",
"f@	c #60B1D4",
"g@	c #2192C3",
"h@	c #1089BE",
"i@	c #1A8EC1",
"j@	c #1F93C4",
"k@	c #1568A1",
"l@	c #156AA2",
"m@	c #1468A0",
"n@	c #1569A0",
"o@	c #1469A6",
"p@	c #093768",
"q@	c #000813",
"r@	c #105E92",
"s@	c #2199CD",
"t@	c #1B8DBF",
"u@	c #198CBF",
"v@	c #A1D0E5",
"w@	c #FFFFFF",
"x@	c #CAE4F0",
"y@	c #4FA7CE",
"z@	c #0F86BC",
"A@	c #2190C1",
"B@	c #1D8DC0",
"C@	c #1389BD",
"D@	c #89C4DE",
"E@	c #D8EBF4",
"F@	c #5DAED2",
"G@	c #1288BD",
"H@	c #168ABE",
"I@	c #1E8BBE",
"J@	c #1568A0",
"K@	c #14679F",
"L@	c #146BA6",
"M@	c #0D4A81",
"N@	c #010811",
"O@	c #011225",
"P@	c #187BAF",
"Q@	c #1387BC",
"R@	c #3397C5",
"S@	c #DDEDF5",
"T@	c #92C8E0",
"U@	c #2791C1",
"V@	c #0F85BA",
"W@	c #1B8BBE",
"X@	c #238FC0",
"Y@	c #C3E0EE",
"Z@	c #A3D0E5",
"`@	c #3297C5",
" #	c #0E84BA",
".#	c #1A8BBE",
"+#	c #14669E",
"@#	c #13669E",
"##	c #1468A3",
"$#	c #115992",
"%#	c #021123",
"&#	c #05223A",
"*#	c #1C8AC0",
"=#	c #1D8BBE",
"-#	c #3697C5",
";#	c #DFEFF6",
">#	c #FDFEFE",
",#	c #D9EBF4",
"'#	c #61ADD0",
")#	c #0E82B9",
"!#	c #0F83B9",
"~#	c #1586BB",
"{#	c #268FC0",
"]#	c #C3DFED",
"^#	c #E6F2F7",
"/#	c #73B6D6",
"(#	c #1284B9",
"_#	c #1B89BD",
":#	c #1E8BBD",
"<#	c #1469A1",
"[#	c #13649D",
"}#	c #14649D",
"|#	c #1466A0",
"1#	c #12619D",
"2#	c #041B34",
"3#	c #09354F",
"4#	c #1E8DC0",
"5#	c #1182B8",
"6#	c #3595C3",
"7#	c #DFEEF5",
"8#	c #FEFEFE",
"9#	c #ACD3E6",
"0#	c #3896C3",
"a#	c #087DB5",
"b#	c #238BBD",
"c#	c #C4DFED",
"d#	c #BEDDEB",
"e#	c #449DC7",
"f#	c #1081B7",
"g#	c #1886BA",
"h#	c #1C87BB",
"i#	c #1D87BB",
"j#	c #166FA6",
"k#	c #13619B",
"l#	c #13639C",
"m#	c #1364A2",
"n#	c #072743",
"o#	c #0C3F5B",
"p#	c #2096CD",
"q#	c #1C85B9",
"r#	c #1180B6",
"s#	c #3593C1",
"t#	c #DFEDF5",
"u#	c #EEF5FA",
"v#	c #74B5D4",
"w#	c #1D86BA",
"x#	c #BBDAEA",
"y#	c #FFFEFE",
"z#	c #F8FBFD",
"A#	c #8DC2DC",
"B#	c #1D86B9",
"C#	c #107FB5",
"D#	c #13619A",
"E#	c #13629B",
"F#	c #1365A4",
"G#	c #082B48",
"H#	c #0E445F",
"I#	c #2098CE",
"J#	c #1B84B7",
"K#	c #107EB4",
"L#	c #3491BF",
"M#	c #FCFDFE",
"N#	c #C1DEEC",
"O#	c #D6E8F1",
"P#	c #CEE4EF",
"Q#	c #4097C3",
"R#	c #127FB5",
"S#	c #1979AF",
"T#	c #12619B",
"U#	c #12619A",
"V#	c #13609A",
"W#	c #1466A4",
"X#	c #092F4D",
"Y#	c #0E4761",
"Z#	c #1D8ABC",
"`#	c #0F7BB2",
" $	c #338FBD",
".$	c #DFEDF4",
"+$	c #D8E9F2",
"@$	c #2C8ABB",
"#$	c #117BB2",
"$$	c #125F99",
"%$	c #135F99",
"&$	c #1465A4",
"*$	c #09304E",
"=$	c #0E445D",
"-$	c #2096CC",
";$	c #1C89BC",
">$	c #1A80B5",
",$	c #1B7FB4",
"'$	c #0F79B0",
")$	c #338DBC",
"!$	c #4898C3",
"~$	c #0A76AE",
"{$	c #1B80B5",
"]$	c #136099",
"^$	c #125E98",
"/$	c #135E98",
"($	c #1464A3",
"_$	c #0E425A",
":$	c #2095CB",
"<$	c #1D8ABE",
"[$	c #1A7EB3",
"}$	c #1A7CB2",
"|$	c #0E76AE",
"1$	c #338BBA",
"2$	c #C7DCE9",
"3$	c #2481B3",
"4$	c #1279B0",
"5$	c #197AB0",
"6$	c #125D97",
"7$	c #135D98",
"8$	c #1462A1",
"9$	c #092C49",
"0$	c #0C374B",
"a$	c #1E90C5",
"b$	c #0E74AB",
"c$	c #3288B8",
"d$	c #DFECF3",
"e$	c #FCFCFD",
"f$	c #AAC6DB",
"g$	c #CCDEEA",
"h$	c #B5CEDF",
"i$	c #2B7BAD",
"j$	c #1175AC",
"k$	c #125C96",
"l$	c #135D97",
"m$	c #125F9C",
"n$	c #07253D",
"o$	c #082838",
"p$	c #1D8BC0",
"q$	c #0D71A9",
"r$	c #3187B6",
"s$	c #DEECF3",
"t$	c #D9E4EE",
"u$	c #568EB6",
"v$	c #0E67A0",
"w$	c #BCD6E6",
"x$	c #E7EEF4",
"y$	c #6E9DC0",
"z$	c #0A639D",
"A$	c #0E70A8",
"B$	c #1978AD",
"C$	c #1771A7",
"D$	c #125B95",
"E$	c #125D99",
"F$	c #115A93",
"G$	c #051B2D",
"H$	c #04141C",
"I$	c #1A7CAC",
"J$	c #1E8DC2",
"K$	c #1A7BB1",
"L$	c #0C6FA7",
"M$	c #3185B5",
"N$	c #8DAECB",
"O$	c #1F699F",
"P$	c #01629D",
"Q$	c #217CB0",
"R$	c #C2DBE9",
"S$	c #A0BBD3",
"T$	c #2A6FA3",
"U$	c #07639F",
"V$	c #1775AC",
"W$	c #1876AB",
"X$	c #125A94",
"Y$	c #115A95",
"Z$	c #125E9B",
"`$	c #105287",
" %	c #020E17",
".%	c #166A94",
"+%	c #1E8FC6",
"@%	c #1772A8",
"#%	c #1773AA",
"$%	c #0C6CA5",
"%%	c #3183B3",
"&%	c #DFEBF3",
"*%	c #C1D1E1",
"=%	c #4078A8",
"-%	c #015895",
";%	c #0B6BA4",
">%	c #1070A8",
",%	c #2179AE",
"'%	c #C2DAE8",
")%	c #FCFDFD",
"!%	c #D1DCE8",
"~%	c #5183AE",
"{%	c #025794",
"]%	c #0968A2",
"^%	c #1774AB",
"/%	c #14629B",
"(%	c #115994",
"_%	c #115A94",
":%	c #135F9D",
"<%	c #0E4675",
"[%	c #0E4864",
"}%	c #1D8CC3",
"|%	c #1A7FB3",
"1%	c #1770A8",
"2%	c #0C6AA4",
"3%	c #2A7BAE",
"4%	c #D9E7F0",
"5%	c #EFF2F6",
"6%	c #7196B9",
"7%	c #0E5893",
"8%	c #08619D",
"9%	c #1672A9",
"0%	c #106DA5",
"a%	c #1A71A8",
"b%	c #BFD7E6",
"c%	c #FAFBFC",
"d%	c #84A3C1",
"e%	c #175C95",
"f%	c #065E9A",
"g%	c #1571A8",
"h%	c #115993",
"i%	c #125994",
"j%	c #125D9B",
"k%	c #092F50",
"l%	c #041721",
"m%	c #1D87BD",
"n%	c #1C84B9",
"o%	c #136EA6",
"p%	c #0D669F",
"q%	c #8BAEC9",
"r%	c #ABBDD2",
"s%	c #30669A",
"t%	c #005491",
"u%	c #146EA5",
"v%	c #1871A8",
"w%	c #156FA6",
"x%	c #09659F",
"y%	c #729DC0",
"z%	c #BCCADB",
"A%	c #3D6E9F",
"B%	c #00528F",
"C%	c #116AA3",
"D%	c #1972A8",
"E%	c #14659E",
"F%	c #125893",
"G%	c #115996",
"H%	c #020F1A",
"I%	c #146087",
"J%	c #1C88BF",
"K%	c #136BA3",
"L%	c #0E5792",
"M%	c #3B699A",
"N%	c #306296",
"O%	c #054D8A",
"P%	c #075E9A",
"Q%	c #156EA5",
"R%	c #156DA5",
"S%	c #0B5994",
"T%	c #356598",
"U%	c #36669A",
"V%	c #084C8A",
"W%	c #055C97",
"X%	c #136DA4",
"Y%	c #166DA5",
"Z%	c #115892",
"`%	c #115691",
" &	c #115B98",
".&	c #0C3F6B",
"+&	c #072433",
"@&	c #1C87BE",
"#&	c #1B7EB2",
"$&	c #1267A0",
"%&	c #095994",
"&&	c #0B5C97",
"*&	c #1269A1",
"=&	c #156AA1",
"-&	c #1369A1",
";&	c #0A5A96",
">&	c #095A95",
",&	c #1168A0",
"'&	c #115792",
")&	c #105590",
"!&	c #115998",
"~&	c #041728",
"{&	c #135B80",
"]&	c #1C88C0",
"^&	c #14669F",
"/&	c #125993",
"(&	c #105691",
"_&	c #125C9B",
":&	c #0C3C67",
"<&	c #04141D",
"[&	c #1877A9",
"}&	c #1B80B7",
"|&	c #13659D",
"1&	c #105088",
"2&	c #020D16",
"3&	c #0A3349",
"4&	c #1B84BE",
"5&	c #12629B",
"6&	c #126099",
"7&	c #125B94",
"8&	c #115793",
"9&	c #125A9B",
"0&	c #06213A",
"a&	c #0F4A6B",
"b&	c #1B84BF",
"c&	c #135F98",
"d&	c #105690",
"e&	c #125C9D",
"f&	c #0A3256",
"g&	c #105074",
"h&	c #197DB7",
"i&	c #125A95",
"j&	c #115590",
"k&	c #125998",
"l&	c #0A365E",
"m&	c #000202",
"n&	c #0F4B6E",
"o&	c #1A7FBA",
"p&	c #1875AD",
"q&	c #176FA6",
"r&	c #115B95",
"s&	c #115893",
"t&	c #125892",
"u&	c #115894",
"v&	c #125C9C",
"w&	c #0A345A",
"x&	c #0C3D5A",
"y&	c #1877B1",
"z&	c #1876B0",
"A&	c #166EA6",
"B&	c #115690",
"C&	c #115692",
"D&	c #105692",
"E&	c #115A98",
"F&	c #115896",
"G&	c #082B4A",
"H&	c #062131",
"I&	c #136090",
"J&	c #1878B4",
"K&	c #166FA8",
"L&	c #156BA2",
"M&	c #125E97",
"N&	c #115591",
"O&	c #125D9C",
"P&	c #0E487B",
"Q&	c #041727",
"R&	c #01060A",
"S&	c #0B3B5A",
"T&	c #15689D",
"U&	c #1773AE",
"V&	c #156DA7",
"W&	c #14689F",
"X&	c #14639C",
"Y&	c #135E97",
"Z&	c #125A97",
"`&	c #0F5189",
" *	c #092D4D",
".*	c #000407",
"+*	c #030F17",
"@*	c #0A3653",
"#*	c #136397",
"$*	c #156CA7",
"%*	c #156EA9",
"&*	c #156CA9",
"**	c #1468A4",
"=*	c #1465A0",
"-*	c #13639D",
";*	c #135E99",
">*	c #135E9A",
",*	c #135E9B",
"'*	c #13609E",
")*	c #135E9C",
"!*	c #125B98",
"~*	c #105087",
"{*	c #010B13",
"]*	c #062031",
"^*	c #0C4164",
"/*	c #105585",
"(*	c #125C91",
"_*	c #1366A2",
":*	c #1467A4",
"<*	c #1466A5",
"[*	c #1465A3",
"}*	c #1463A1",
"|*	c #13609D",
"1*	c #105389",
"2*	c #0F4B7C",
"3*	c #0A375C",
"4*	c #051A2B",
"5*	c #000204",
"6*	c #03111C",
"7*	c #051E2F",
"8*	c #07283F",
"9*	c #082D49",
"0*	c #0A304D",
"a*	c #082C48",
"b*	c #07253E",
"c*	c #051B2C",
"d*	c #030F19",
"e*	c #000001",
"                                      . . . . . . . . . .                                       ",
"                              . . . + @ # $ % & * = - # @ ; . . .                               ",
"                          . . > , ' ) ! ~ { ] ^ / ( _ : ! ) < [ } . .                           ",
"                      . . | 1 2 3 4 5 6 7 8 9 0 a b c d e f g h i j k . .                       ",
"                    . l m n o p q r s t u v w x y z A B C D E q F G H I J .                     ",
"                . . K L M N O P Q R S T U V W X Y Z `  ...+.@.#.$.%.&.*.=.-.. .                 ",
"              . . ;.>.,.'.).!.~.{.].^./.(._.X :.<.[.}.|.1.2.3.4.5.6.7.8.9.0.a.. .               ",
"            . . b.c.d.e.f.g.h.i.j.^./.(._.:.k.<.l.m.|.1.n.o.p.q.r.s.t.u.v.w.x.y.z..             ",
"          . . A.B.C.D.E.F.G.H.j.^.I._.:.k.k.<.l.m.|.J.K.q.L.L.r.M.N.O.P.Q.R.S.T.U.. .           ",
"        . . V.W.X.Y.Z.`. +H.j.^.(..+I.S ++@+#+$+%+&+*+=+-+;+>+O.6.,+'+)+!+~+{+]+^+/+. .         ",
"        . (+_+:+<+Z.[+}+H.j.I.I.i.|+1+2+2+2+2+2+2+2+3+4+5+$+H.6+O.7+8+9+0+a+b+c+d+e+f+.         ",
"      . g+h+i+j+k+++}+i.l+I.H.m+n+o+p+1+q+1+1+n+n+1+q+q+q+p+r+p+s+t+u+v+u+w+x+y+z+A+B+C+.       ",
"      . D+E+F+Z.++ +H.G+G+`.$+H+I+$+$+$+$+$+$+$+$+$+$+$+$+$+$+H+J+H+K+L+M+x+c+N+c+O+P+Q+.       ",
"    . R+S+T+q+*+}+H.G+j.|+Z.#+m+m+m+m+m+m+m+m+m+m+m+m+m+m+m+m+m+m+#+1+G.7+U+V+z+U+W+X+Y+Z+.     ",
"    . `+ @k+`.}+H.l+S .@&+|+|+|+|+|+|+|+|+|+|+|+|+|+|+|+|+|+|+|+|+|+|+Z.+@@@#@U+#@#@$@%@Q+.     ",
"  . &@*@=@|+ +H.l+G+++.@-@;@F.F.;@s+-@-@s+-@-@s+-@;@F.F.;@s+-@-@s+-@-@*+k+=+>@,@'@O+O+)@!@&@.   ",
"  . ~@{@$+H.H.j.G+H.]@h.h.^@/@(@^@G.h.h.h.h.h.h.h._@:@:@<@G.h.h.h.h.h.h.G..@[.[@}@|@1@[@2@3@.   ",
"  . 4@5@[+H.j.G+^.6@S S 7@8@9@0@a@b@a@6@S S S S c@d@e@f@g@h@i@6@S S S S S S j@O.k@l@m@n@o@p@.   ",
". q@r@s@i.j.G+/.I.I.I.t@u@v@w@w@x@y@z@u@A@I.I.B@C@D@w@w@E@F@G@H@A@I.I.I.I.I.6@I@#@m@J@K@L@M@N@. ",
". O@P@m+j.^.I.K+(.(.(.Q@R@S@w@w@w@w@T@U@V@W@(.A X@Y@w@w@w@w@Z@`@ #.#(.(.(.(.(.^.'++#K@@###$#%#. ",
". &#*#.@^./.K+=#:.:.:.C -#;#w@w@>#w@w@,#'#)#!#~#{#]#w@w@>#w@w@^#/#(#)#_#:#:.:.K++.<#[#}#|#1#2#. ",
". 3#5@G./.4#:.[.[.[.[.5#6#7#w@8#8#8#w@w@w@9#0#a#b#c#w@8#8#8#w@w@w@d#e#f#g#Y h#i#:.j#k#l#[#m#n#. ",
". o#p#^.(._.[.q#m.m.m.r#s#t#w@8#8#8#8#8#w@w@u#v#w#x#w@8#8#8#y#8#w@w@z#A#B#C#B#q#[.a+D#E#E#F#G#. ",
". H#I#I._.I@q#J#1.1.1.K#L#t#w@8#8#w@8#w@8#M#w@w@N#O#w@8#8#w@8#w@w@M#w@w@P#Q#R#+.q#S#T#U#V#W#X#. ",
". Y#I#K+I@Z#o.p.K.p.p.`# $.$w@8#8#8#8#8#8#w@8#w@w@w@8#8#8#8#8#8#8#w@8#w@w@+$@$#$o.N.U#$$%$&$*$. ",
". =$-$I@:.;$>$,$,$,$,$'$)$.$w@8#8#8#8#8#8#8#8#8#w@w@8#8#8#8#8#8#8#8#8#8#w@w@!$~${$P.]$^$/$($*$. ",
". _$:$<$[.[.[$}$s.s.s.|$1$.$w@8#8#w@8#8#w@w@8#w@w@w@8#8#8#w@8#8#w@w@8#w@w@2$3$4$[$5$$$6$7$8$9$. ",
". 0$a$<$i#6+N.'+'+'+'+b$c$d$w@8#8#8#8#w@8#e$w@w@f$g$w@8#8#8#8#w@8#e$w@w@h$i$j$,+O.u+6$k$l$m$n$. ",
". o$l.p$l.q#O.@@9+L+L+q$r$s$w@8#8#8#8#w@w@w@t$u$v$w$w@8#8#8#8#w@w@w@x$y$z$A$!+B$S#C$k$D$E$F$G$. ",
". H$I$J$q#+.K$a+u+u+u+L$M$d$w@8#8#8#w@w@w@N$O$P$Q$R$w@8#8#8#w@w@w@S$T$U$V$B$W$W$L+l@X$Y$Z$`$ %. ",
"  . .%+%1.+.>+@%#%M+M+$%%%&%w@w@e$w@w@*%=%-%;%>%,%'%w@w@)%w@w@!%~%{%]%^%x+M+M+M+a+/%(%_%:%<%.   ",
"  . [%}%;+J.|%c+z+1%z+2%3%4%w@w@w@5%6%7%8%9%W+0%a%b%w@w@w@c%d%e%f%g%@%W+z+z+z+W+#@6$h%i%j%k%.   ",
"  . l%m%n%p.{$a+'@j#j#o%p%q%w@w@r%s%t%u%v%#@j#w%x%y%w@w@z%A%B%C%D%#@j#j#j#j#j#z+E%h%F%(%G%H%.   ",
"    . I%J%|%,$'+[@}@}@,@K%L%M%N%O%P%Q%$@}@}@}@,@R%S%T%U%V%W%X%Y%}@}@}@}@}@}@[@l@k$Z%`% &.&.     ",
"    . +&@&#&}$s.W+m@<#<#l@$&%&&&*&l@=&<#<#<#<#<#=&-&;&>&,&l@=&<#<#<#<#<#<#1@l@D#'&'&)&!&~&.     ",
"      . {&]&N.P.S#<#E%K@K@K@1@1@^&K@K@K@K@K@K@K@K@K@1@1@K@K@K@K@K@K@K@K@K@m@}#/&'&(&_&:&.       ",
"      . <&[&}&'+O.x+|&l#[#[#[#[#[#[#[#[#[#[#[#[#[#[#[#[#[#[#[#[#[#[#[#[#}#l#X$`%(&G%1&2&.       ",
"        . 3&4&N.9+9+U+5&6&D#k#D#D#k#D#D#k#D#D#k#D#D#k#D#D#k#D#D#k#D#k#E#D#7&'&(&8&9&0&.         ",
"        . . a&b&0+a+u+#@%$6$/$c&c&c&c&c&c&c&c&c&c&c&c&c&c&c&c&c&c&c&c&^$X$'&d&`%e&f&. .         ",
"          . . g&h&w+x+x+#@D#i&D$k$k$k$k$k$k$k$k$k$k$k$k$k$k$k$k$k$k$D$/&'&(&j&k&l&. .           ",
"            . m&n&o&p&W+W+q&E%r&Z%s&h%h%h%h%h%h%h%h%h%h%h%h%h%h%_%_%t&'&(&u&v&w&. .             ",
"              . . x&y&z&U+A&A&1@E#X$`%B&j&B&B&`%`%`%`%`%`%C&Z%/&X$/&'&D&E&F&G&. .               ",
"                . . H&I&J&K&L&O+}@1@l#M&_%'&`%N&j&`%`%'&h%X$r&_%F%B&u&O&P&Q&. .                 ",
"                    . R&S&T&U&V&l@1@W&K@^&X&T#$$M&^$l$Y&k$D$i&i&Z&v&`& *.*.                     ",
"                      . . +*@*#*$*%*&***=*-*E#D#]$;*/$>*,*'*)*!*~*G#{*. .                       ",
"                          . . > ]*^*/*(*E#_*:*<*[*}*|*X$1*2*3*4*5*. .                           ",
"                              . . . ; 6*7*8*9**$0*a*b*c*d*e*. . .                               ",
"                                      . . . . . . . . . .                                       "};
