/* XPM */
static char * zmgolly_zoomout_xpm[] = {
"48 48 744 2",
"  	c None",
". 	c #9DA8B2",
"+ 	c #A4AFBB",
"@ 	c #A8B4C0",
"# 	c #A9B6C2",
"$ 	c #A8B6C2",
"% 	c #A5B2BF",
"& 	c #9EACB9",
"* 	c #97A4B0",
"= 	c #8B98A4",
"- 	c #7E8A96",
"; 	c #A8B4BF",
"> 	c #B7C3D0",
", 	c #BFCDDB",
"' 	c #C6D5E3",
") 	c #C8D7E7",
"! 	c #C6D5E4",
"~ 	c #C2D2E2",
"{ 	c #BECEDE",
"] 	c #BACADB",
"^ 	c #B5C5D6",
"/ 	c #ABBBCB",
"( 	c #9EADBD",
"_ 	c #8F9DAC",
": 	c #7B8995",
"< 	c #ABB6C1",
"[ 	c #BDCAD7",
"} 	c #CBDAE8",
"| 	c #CFDEED",
"1 	c #C7D5E4",
"2 	c #B8C7D4",
"3 	c #AAB8C6",
"4 	c #A5B2C1",
"5 	c #A1AFBE",
"6 	c #9EACBB",
"7 	c #9CAAB9",
"8 	c #9BAAB9",
"9 	c #A0B1C0",
"0 	c #A6B7C8",
"a 	c #A5B7CA",
"b 	c #98A9BB",
"c 	c #8494A4",
"d 	c #6F7D8B",
"e 	c #A1ABB5",
"f 	c #B5C2CD",
"g 	c #CDDBE9",
"h 	c #D0DEEE",
"i 	c #A8B4C1",
"j 	c #9FACBC",
"k 	c #A3B1C3",
"l 	c #A7B4C9",
"m 	c #A9B8CE",
"n 	c #AAB9D0",
"o 	c #A8B8CF",
"p 	c #A3B3CA",
"q 	c #9CABC1",
"r 	c #92A1B5",
"s 	c #8796A7",
"t 	c #8595A6",
"u 	c #90A2B5",
"v 	c #95A8BC",
"w 	c #889AAD",
"x 	c #6D7D8E",
"y 	c #576471",
"z 	c #A4AFBA",
"A 	c #BECAD8",
"B 	c #D3E2F1",
"C 	c #C4D2E0",
"D 	c #A8B5C2",
"E 	c #A0ACBC",
"F 	c #B1BFD5",
"G 	c #C0CEE6",
"H 	c #CAD7F0",
"I 	c #D1DFF9",
"J 	c #D2DFF8",
"K 	c #D0DEF7",
"L 	c #CEDDF6",
"M 	c #CBDAF5",
"N 	c #C7D6F3",
"O 	c #BBCBE8",
"P 	c #AFBFDA",
"Q 	c #9AAAC2",
"R 	c #7C8B9E",
"S 	c #778899",
"T 	c #8699AD",
"U 	c #8498AD",
"V 	c #708093",
"W 	c #596775",
"X 	c #A3AEB9",
"Y 	c #BFCDDA",
"Z 	c #D1E0F0",
"` 	c #A0ACBA",
" .	c #B0BDD0",
"..	c #CEDAF2",
"+.	c #DAE6FD",
"@.	c #DEE9FF",
"#.	c #DFE9FF",
"$.	c #DFE9FE",
"%.	c #DDE8FD",
"&.	c #DBE5FC",
"*.	c #D7E2FA",
"=.	c #D2DFF7",
"-.	c #CCDBF5",
";.	c #C6D6F2",
">.	c #B2C4E1",
",.	c #7B90AE",
"'.	c #6A7C90",
").	c #7F91A4",
"!.	c #869AAF",
"~.	c #728395",
"{.	c #596574",
"].	c #9FA9B4",
"^.	c #BCC9D7",
"/.	c #CFDEEE",
"(.	c #B1BFCC",
"_.	c #C4D0E5",
":.	c #DFEBFF",
"<.	c #E1EBFF",
"[.	c #E2EBFF",
"}.	c #E0EAFF",
"|.	c #DEE9FE",
"1.	c #DAE6FC",
"2.	c #D3DFF7",
"3.	c #CBD9F2",
"4.	c #ADC3E9",
"5.	c #7B94BD",
"6.	c #6A7B91",
"7.	c #7C8EA0",
"8.	c #708192",
"9.	c #53606C",
"0.	c #B2BFCC",
"a.	c #CDDCEC",
"b.	c #B2C0CE",
"c.	c #CFD9ED",
"d.	c #E6EFFF",
"e.	c #E2ECFE",
"f.	c #E3ECFF",
"g.	c #E2EBFE",
"h.	c #E2EAFE",
"i.	c #E1EAFE",
"j.	c #E0EAFE",
"k.	c #DFEAFF",
"l.	c #D8E3FA",
"m.	c #C8D7F1",
"n.	c #A2BBE7",
"o.	c #7D98C2",
"p.	c #6A7D92",
"q.	c #697889",
"r.	c #A5B1BE",
"s.	c #C5D4E3",
"t.	c #B8C7D5",
"u.	c #9DA9B6",
"v.	c #CFD9EB",
"w.	c #E8F1FF",
"x.	c #E4EEFF",
"y.	c #E4EDFE",
"z.	c #E3ECFE",
"A.	c #E3EDFE",
"B.	c #E3EBFE",
"C.	c #E1EBFE",
"D.	c #E1EAFF",
"E.	c #DEE9FD",
"F.	c #BDCFF1",
"G.	c #9EB8E6",
"H.	c #7E97BF",
"I.	c #6D7E93",
"J.	c #8396AA",
"K.	c #7D90A4",
"L.	c #5F6D7C",
"M.	c #949FAA",
"N.	c #B4C3D1",
"O.	c #C1D1E0",
"P.	c #9AA7B5",
"Q.	c #C1CADC",
"R.	c #EAF3FF",
"S.	c #E4ECFE",
"T.	c #E5EEFE",
"U.	c #E6EEFE",
"V.	c #E5EDFE",
"W.	c #E2ECFF",
"X.	c #D3E1FC",
"Y.	c #B0C6EC",
"Z.	c #9CB7E4",
"`.	c #768CAE",
" +	c #738495",
".+	c #869AB0",
"++	c #4C5864",
"@+	c #9FACB9",
"#+	c #BECDDD",
"$+	c #A8B7C6",
"%+	c #A3AFBE",
"&+	c #E4ECFF",
"*+	c #E5EEFF",
"=+	c #DAE6FF",
"-+	c #DAE6FE",
";+	c #DBE6FF",
">+	c #E6EFFE",
",+	c #E5EDFF",
"'+	c #E0EBFF",
")+	c #DEE8FF",
"!+	c #C3D6F9",
"~+	c #ADC3EB",
"{+	c #92ACD8",
"]+	c #6C7F97",
"^+	c #8092A5",
"/+	c #7E91A5",
"(+	c #5E6C7B",
"_+	c #A9B8C6",
":+	c #B9C9D9",
"<+	c #92A0AF",
"[+	c #CBD4E6",
"}+	c #EBF3FF",
"|+	c #E6EEFF",
"1+	c #D9E6FE",
"2+	c #E7EEFE",
"3+	c #CFDEFF",
"4+	c #BFD2F6",
"5+	c #A8BFEB",
"6+	c #7E95BA",
"7+	c #738494",
"8+	c #6C7C8D",
"9+	c #909CA9",
"0+	c #AEBDCD",
"a+	c #A6B6C7",
"b+	c #9DAABA",
"c+	c #DFE8F9",
"d+	c #EAF1FF",
"e+	c #DBE7FE",
"f+	c #DCE7FE",
"g+	c #DCE8FE",
"h+	c #D2E0FF",
"i+	c #CBDBFD",
"j+	c #B7CCF3",
"k+	c #92AAD3",
"l+	c #6F8298",
"m+	c #8497AB",
"n+	c #77899B",
"o+	c #54606D",
"p+	c #93A1B0",
"q+	c #AEBFD0",
"r+	c #92A2B2",
"s+	c #AFBACA",
"t+	c #EDF4FF",
"u+	c #E7EFFF",
"v+	c #E8EFFF",
"w+	c #E9EFFE",
"x+	c #EBF2FF",
"y+	c #F1F6FF",
"z+	c #F0F5FF",
"A+	c #EEF4FF",
"B+	c #E9F1FF",
"C+	c #E3EDFF",
"D+	c #E1ECFF",
"E+	c #ECF3FF",
"F+	c #ECF4FF",
"G+	c #D2E1FE",
"H+	c #CFDFFF",
"I+	c #C2D5F8",
"J+	c #A2BAE4",
"K+	c #788CA9",
"L+	c #7E91A6",
"M+	c #5D6A79",
"N+	c #93A2B2",
"O+	c #A7B8CA",
"P+	c #8B9BAB",
"Q+	c #C0C9DA",
"R+	c #F0F6FF",
"S+	c #E8EFFE",
"T+	c #E9F0FE",
"U+	c #EBF1FF",
"V+	c #DEE8FC",
"W+	c #DEE7FC",
"X+	c #DDE6FB",
"Y+	c #DBE5FB",
"Z+	c #D6E2FB",
"`+	c #D1DFFA",
" @	c #CFDCFA",
".@	c #CDDCF9",
"+@	c #CCDBF9",
"@@	c #CAD9F9",
"#@	c #CAD8F8",
"$@	c #CFDCF8",
"%@	c #D3DEF8",
"&@	c #D3DEF7",
"*@	c #D6E1F8",
"=@	c #D6E3FF",
"-@	c #D0E0FF",
";@	c #CBDBFC",
">@	c #B3C9F2",
",@	c #8298B8",
"'@	c #75889A",
")@	c #8296AA",
"!@	c #647382",
"~@	c #91A1B1",
"{@	c #9EB0C2",
"]@	c #8A99A8",
"^@	c #CCD5E4",
"/@	c #EEF5FF",
"(@	c #EAF0FE",
"_@	c #EBF1FE",
":@	c #F4F8FF",
"<@	c #D8E3FB",
"[@	c #7094E9",
"}@	c #658BE4",
"|@	c #648AE1",
"1@	c #6287DE",
"2@	c #6185DB",
"3@	c #6083D8",
"4@	c #5D81D4",
"5@	c #597DD1",
"6@	c #567ACD",
"7@	c #5578CA",
"8@	c #5276C8",
"9@	c #5072C4",
"0@	c #4D70C1",
"a@	c #4D6EBE",
"b@	c #4767B7",
"c@	c #6B86C6",
"d@	c #D9E4F9",
"e@	c #DDE9FF",
"f@	c #D0DFFF",
"g@	c #BBD0F6",
"h@	c #8CA2C4",
"i@	c #75889C",
"j@	c #8397AB",
"k@	c #8D9CAD",
"l@	c #95A7BA",
"m@	c #8796A6",
"n@	c #D4DCEB",
"o@	c #EBF2FE",
"p@	c #EDF2FE",
"q@	c #F7FBFF",
"r@	c #D4E0FA",
"s@	c #507BE1",
"t@	c #426FDB",
"u@	c #416DD6",
"v@	c #3F6BD2",
"w@	c #3D68CE",
"x@	c #3B65CA",
"y@	c #3862C6",
"z@	c #3660C2",
"A@	c #345DBD",
"B@	c #315ABA",
"C@	c #2F57B6",
"D@	c #2D54B2",
"E@	c #2A52AE",
"F@	c #284FAA",
"G@	c #1E45A2",
"H@	c #4869B5",
"I@	c #CEDCF8",
"J@	c #DCEAFF",
"K@	c #D1E0FF",
"L@	c #D2E1FF",
"M@	c #C2D5F9",
"N@	c #92A8CA",
"O@	c #76889C",
"P@	c #8296AB",
"Q@	c #6D7C8D",
"R@	c #8596A7",
"S@	c #8CA0B3",
"T@	c #8190A1",
"U@	c #D6DCEB",
"V@	c #F1F5FF",
"W@	c #EEF3FE",
"X@	c #FAFCFF",
"Y@	c #D6E1F9",
"Z@	c #527BDD",
"`@	c #436FD7",
" #	c #436ED3",
".#	c #416BCF",
"+#	c #3F69CB",
"@#	c #3D66C7",
"##	c #3A63C3",
"$#	c #3861BF",
"%#	c #365EBB",
"&#	c #345BB7",
"*#	c #3258B4",
"=#	c #2E55B0",
"-#	c #2D52AC",
";#	c #2B50A8",
">#	c #2146A0",
",#	c #4A6AB4",
"'#	c #C8D7F8",
")#	c #DAE8FF",
"!#	c #D3E0FF",
"~#	c #D3E1FF",
"{#	c #C7D9FC",
"]#	c #97ACCE",
"^#	c #76889D",
"/#	c #707F90",
"(#	c #7E8FA1",
"_#	c #8699AE",
":#	c #79899A",
"<#	c #CFD7E4",
"[#	c #F3F9FF",
"}#	c #EFF4FE",
"|#	c #F0F5FE",
"1#	c #FBFDFF",
"2#	c #D8E2F9",
"3#	c #547CDA",
"4#	c #4670D4",
"5#	c #466FD0",
"6#	c #446CCD",
"7#	c #426AC9",
"8#	c #3F67C5",
"9#	c #3D64C1",
"0#	c #3B62BD",
"a#	c #395FB9",
"b#	c #375CB6",
"c#	c #3459B2",
"d#	c #3256AE",
"e#	c #3054AA",
"f#	c #2E52A7",
"g#	c #24489E",
"h#	c #4C6BB3",
"i#	c #DCE9FF",
"j#	c #D3E2FF",
"k#	c #CADBFE",
"l#	c #97ACCC",
"m#	c #788A9F",
"n#	c #899DB1",
"o#	c #728191",
"p#	c #748597",
"q#	c #8297AB",
"r#	c #718395",
"s#	c #C2CBD8",
"t#	c #F9FDFF",
"u#	c #F2F6FE",
"v#	c #F5F8FF",
"w#	c #EFF3FD",
"x#	c #D5DFF6",
"y#	c #D4DFF6",
"z#	c #D3DEF5",
"A#	c #D2DDF5",
"B#	c #D1DCF4",
"C#	c #D1DBF3",
"D#	c #CFDAF3",
"E#	c #CED9F2",
"F#	c #CDD8F1",
"G#	c #CBD7F0",
"H#	c #CAD5F0",
"I#	c #C8D5EF",
"J#	c #C8D3EE",
"K#	c #C5D1ED",
"L#	c #C4D2F1",
"M#	c #D5E2FD",
"N#	c #D7E4FF",
"O#	c #D4E2FF",
"P#	c #CCDEFF",
"Q#	c #94A7C5",
"R#	c #7E8FA2",
"S#	c #90A2B6",
"T#	c #72808E",
"U#	c #8397AC",
"V#	c #6B7E91",
"W#	c #ABB6C2",
"X#	c #FDFFFF",
"Y#	c #F3F7FF",
"Z#	c #F4F8FE",
"`#	c #F7FAFF",
" $	c #FFFFFF",
".$	c #FEFFFF",
"+$	c #FCFFFF",
"@$	c #FBFEFF",
"#$	c #FAFEFF",
"$$	c #F8FCFF",
"%$	c #F7FCFF",
"&$	c #D6E3FE",
"*$	c #D5E3FF",
"=$	c #D5E4FF",
"-$	c #C9DAFC",
";$	c #8DA0B9",
">$	c #8899AB",
",$	c #93A5B8",
"'$	c #6D7A87",
")$	c #657384",
"!$	c #7F92A7",
"~$	c #74889C",
"{$	c #8F9CAB",
"]$	c #F1F5FD",
"^$	c #F9FBFF",
"/$	c #F6F8FE",
"($	c #F6F9FE",
"_$	c #F7FAFE",
":$	c #F8FAFE",
"<$	c #F5F8FE",
"[$	c #F3F7FE",
"}$	c #F2F7FE",
"|$	c #F1F6FE",
"1$	c #EFF5FE",
"2$	c #EDF4FE",
"3$	c #ECF2FE",
"4$	c #EAF1FE",
"5$	c #D9E5FE",
"6$	c #D8E4FF",
"7$	c #D8E6FF",
"8$	c #BECFEF",
"9$	c #8798AD",
"0$	c #97A9BB",
"a$	c #91A2B3",
"b$	c #65707B",
"c$	c #788A9D",
"d$	c #8398AC",
"e$	c #6D7D8F",
"f$	c #DADFE7",
"g$	c #F8F9FE",
"h$	c #F8FAFF",
"i$	c #F9FBFE",
"j$	c #F9FAFE",
"k$	c #F9FAFF",
"l$	c #F7F9FF",
"m$	c #F4F7FF",
"n$	c #F1F5FE",
"o$	c #EFF4FF",
"p$	c #EEF4FE",
"q$	c #EDF3FE",
"r$	c #ECF2FF",
"s$	c #DDE8FE",
"t$	c #D8E5FF",
"u$	c #D9E7FF",
"v$	c #AEBFDC",
"w$	c #A3B5C8",
"x$	c #8999A8",
"y$	c #555E67",
"z$	c #6C7D8E",
"A$	c #8599AE",
"B$	c #6E8195",
"C$	c #9BA6B3",
"D$	c #FBFCFE",
"E$	c #F8FBFE",
"F$	c #D9E5FF",
"G$	c #93A3B7",
"H$	c #99AABB",
"I$	c #A3B4C6",
"J$	c #7C8895",
"K$	c #5C6B7A",
"L$	c #7B8EA2",
"M$	c #8194A9",
"N$	c #6A7B8D",
"O$	c #D8DDE3",
"P$	c #FDFDFE",
"Q$	c #FEFEFE",
"R$	c #FDFEFE",
"S$	c #FCFDFE",
"T$	c #FAFBFE",
"U$	c #F4F7FE",
"V$	c #DFEAFE",
"W$	c #DEE8FE",
"X$	c #D9E4FE",
"Y$	c #DEEBFF",
"Z$	c #B4C3DC",
"`$	c #8C9CAC",
" %	c #AABCCF",
".%	c #97A6B6",
"+%	c #656F78",
"@%	c #73869B",
"#%	c #84919F",
"$%	c #F7F8FA",
"%%	c #FEFEFF",
"&%	c #FBFCFF",
"*%	c #F2F6FF",
"=%	c #F0F6FE",
"-%	c #E4EDFF",
";%	c #CCD9F3",
">%	c #93A2B3",
",%	c #A4B6C7",
"'%	c #AABCCE",
")%	c #84919E",
"!%	c #556270",
"~%	c #75879A",
"{%	c #6B7E92",
"]%	c #949FAB",
"^%	c #D5E1F9",
"/%	c #9CAABB",
"(%	c #9FB0C0",
"_%	c #B7C8DA",
":%	c #98A6B5",
"<%	c #5F676F",
"[%	c #5F6E7D",
"}%	c #7B8FA2",
"|%	c #697B8F",
"1%	c #95A0AC",
"2%	c #FAFBFB",
"3%	c #FDFEFF",
"4%	c #E6EDFE",
"5%	c #E5EFFF",
"6%	c #D5E0F7",
"7%	c #9FACBE",
"8%	c #9EAEBE",
"9%	c #BACBDE",
"0%	c #93A3B4",
"a%	c #67727D",
"b%	c #647383",
"c%	c #7D91A4",
"d%	c #8693A1",
"e%	c #DFE2E5",
"f%	c #F8FBFF",
"g%	c #F7F9FE",
"h%	c #E9F0FF",
"i%	c #C7D2E6",
"j%	c #9BA9BA",
"k%	c #A2B2C2",
"l%	c #BECEE0",
"m%	c #97A6B5",
"n%	c #959DA6",
"o%	c #7E8EA0",
"p%	c #647282",
"q%	c #7C8EA2",
"r%	c #859AAF",
"s%	c #73879B",
"t%	c #6C7D8F",
"u%	c #A3ADB7",
"v%	c #E5E8EA",
"w%	c #F3F8FF",
"x%	c #F2F8FF",
"y%	c #F1F7FF",
"z%	c #E4EDFD",
"A%	c #D1DBED",
"B%	c #AAB7C8",
"C%	c #ACBDCD",
"D%	c #BFD0E1",
"E%	c #90A0B0",
"F%	c #516171",
"G%	c #A4ADB8",
"H%	c #D3DBE5",
"I%	c #8799AE",
"J%	c #5E6D7B",
"K%	c #8498AE",
"L%	c #8094AA",
"M%	c #9CA7B3",
"N%	c #BCC3CB",
"O%	c #D5DAE0",
"P%	c #E1E5EB",
"Q%	c #E5E9F2",
"R%	c #E1E7F2",
"S%	c #D9E1EC",
"T%	c #CCD5E2",
"U%	c #BAC4D3",
"V%	c #A7B4C3",
"W%	c #A4B4C4",
"X%	c #B8CADB",
"Y%	c #A6B3C1",
"Z%	c #5C6978",
"`%	c #44586E",
" &	c #6B7D93",
".&	c #AEB8C4",
"+&	c #D1DBE5",
"@&	c #6E767F",
"#&	c #4E4D4D",
"$&	c #5E5E5F",
"%&	c #525E6A",
"&&	c #6A7B8C",
"*&	c #7C8EA3",
"=&	c #8A9EB2",
"-&	c #8C9FB3",
";&	c #8093A8",
">&	c #7D8FA2",
",&	c #8798A9",
"'&	c #909FAE",
")&	c #95A2B2",
"!&	c #97A5B5",
"~&	c #98A7B7",
"{&	c #98A8B8",
"]&	c #9BABBC",
"^&	c #A8B9CA",
"/&	c #BACBDC",
"(&	c #ACBBCA",
"_&	c #94A0AD",
":&	c #697077",
"<&	c #43556A",
"[&	c #4A5E75",
"}&	c #65798F",
"|&	c #C2C7CE",
"1&	c #6C6B69",
"2&	c #393939",
"3&	c #555555",
"4&	c #5F5F5F",
"5&	c #5C6976",
"6&	c #8596A8",
"7&	c #92A4B7",
"8&	c #99ACC0",
"9&	c #9CAFC2",
"0&	c #9DB0C3",
"a&	c #A0B2C5",
"b&	c #A4B6C9",
"c&	c #A9BCCE",
"d&	c #AFC1D3",
"e&	c #B4C5D6",
"f&	c #B1C1D1",
"g&	c #A7B5C4",
"h&	c #929FAB",
"i&	c #77808A",
"j&	c #58697D",
"k&	c #B1BAC4",
"l&	c #A5A5A5",
"m&	c #434241",
"n&	c #313131",
"o&	c #3F3F3F",
"p&	c #545454",
"q&	c #5D5D5D",
"r&	c #5B6671",
"s&	c #6E7A87",
"t&	c #7D8B99",
"u&	c #92A1B0",
"v&	c #96A6B6",
"w&	c #99A9B9",
"x&	c #9BA9B8",
"y&	c #98A5B3",
"z&	c #8E9AA6",
"A&	c #7F8994",
"B&	c #69727A",
"C&	c #C6C4C3",
"D&	c #CBCAC9",
"E&	c #AAAAAA",
"F&	c #717171",
"G&	c #444444",
"H&	c #323232",
"I&	c #656666",
"J&	c #727272",
"K&	c #B9B9B9",
"L&	c #B0B0B0",
"M&	c #464646",
"N&	c #767676",
"O&	c #B8B8B8",
"P&	c #B1B1B1",
"Q&	c #777777",
"R&	c #B7B7B7",
"S&	c #4C4C4C",
"T&	c #3E3E3E",
"U&	c #525252",
"V&	c #424242",
"W&	c #434343",
"X&	c #757575",
"Y&	c #2B2B2B",
"Z&	c #B6B6B6",
"`&	c #6C6C6C",
" *	c #2E2E2E",
".*	c #222222",
"+*	c #4B4B4B",
"@*	c #737373",
"#*	c #949494",
"$*	c #6D6D6D",
"%*	c #3A3A3A",
"&*	c #272727",
"                                                                                                ",
"                          . + @ # $ % & * = -                                                   ",
"                      ; > , ' ) ! ~ { ] ^ / ( _ :                                               ",
"                  < [ } | 1 2 3 4 5 6 7 8 9 0 a b c d                                           ",
"              e f g h , i j k l m n o p q r s t u v w x y                                       ",
"            z A B C D E F G H I J K L M N O P Q R S T U V W                                     ",
"          X Y Z 2 `  ...+.@.#.$.$.$.%.&.*.=.-.;.>.,.'.).!.~.{.                                  ",
"        ].^./.(.` _.:.<.[.[.[.[.<.<.<.<.}.|.1.2.3.4.5.6.7.!.8.9.                                ",
"        0.a.b.` c.d.e.f.g.g.g.g.h.i.i.j.j.}.k.|.l.m.n.o.p.).U q.                                ",
"      r.s.t.u.v.w.x.y.y.z.z.z.A.z.z.B.h.i.C.D.D.k.E.F.G.H.I.J.K.L.                              ",
"    M.N.O.P.Q.R.S.z.S.T.U.V.y.V.S.A.z.z.B.h.C.j.}.W.X.Y.Z.`. +.+8.++                            ",
"    @+#+$+%+&+*+[.=+-+;+|.g.*+>+U.,+S.A.f.B.g.D.'+D.)+!+~+{+]+^+/+(+                            ",
"    _+:+<+[+}+|+<.1+1+1+-+-+-+$.z.T.2+V.S.A.z.B.D.C.D.3+4+5+6+7+.+8+                            ",
"  9+0+a+b+c+d+2+U.z.i.|.e+f+e+-+-+g+C.T.U.V.y.z.g.g.C.h+i+j+k+l+m+n+o+                          ",
"  p+q+r+s+t+u+v+w+x+y+z+A+B+*+x.C+W.D+W.d.E+t+F+E+B+[.G+H+I+J+K+7.L+M+                          ",
"  N+O+P+Q+R+S+T+U+T+V+W+W+X+Y+Z+`+ @.@+@@@#@$@%@&@*@h.=@-@;@>@,@'@)@!@                          ",
"  ~@{@]@^@/@(@_@:@<@[@}@|@1@2@3@4@5@6@7@8@9@0@a@b@c@d@e@f@f@g@h@i@j@q.                          ",
"  k@l@m@n@/@o@p@q@r@s@t@u@v@w@x@y@z@A@B@C@D@E@F@G@H@I@J@K@L@M@N@O@P@Q@                          ",
"  R@S@T@U@V@W@W@X@Y@Z@`@ #.#+#@###$#%#&#*#=#-#;#>#,#'#)#!#~#{#]#^#j@/#                          ",
"  (#_#:#<#[#}#|#1#2#3#4#5#6#7#8#9#0#a#b#c#d#e#f#g#h##@i#j#~#k#l#m#n#o#                          ",
"  p#q#r#s#t#|#u#v#w#*@x#y#z#A#B#C#D#E#F#G#H#I#J#K#L#M#N#O#O#P#Q#R#S#T#                          ",
"  8+U#V#W#X#Y#:@Z#`# $ $ $ $ $ $.$X#+$@$#$t#$$%$q@/@=+&$*$=$-$;$>$,$'$                          ",
"  )$!$~${$]$^$/$($_$:$_$($($($<$[$}$|$1$}#2$3$_@4$g.5$6$=@7$8$9$0$a$b$                          ",
"    c$d$e$f$ $g$h$i$j$k$:$:$l$/$<$m$u#n$o$p$q$r$T+s$=+t$N#u$v$R@w$x$y$                          ",
"    z$A$B$C$ $X@X@D$D$D$D$i$E$g$($<$[$u#|#}#p$q$z.g+e+t$F$G+G$H$I$J$                            ",
"    K$L$M$N$O$ $D$P$Q$R$S$D$T$:$_$($U$[$|$}#}#4$V$W$f+X$Y$Z$`$ %.%+%                            ",
"      z$U @%#%$% $Q$Q$%%R$S$&%T$E$l$<$U$*%=%W@-%j.|.g+:.;%>%,%'%)%                              ",
"      !%~%!.{%]%Q$ $R$ $%%Q$S$T$i$_$<$U$[$|#S+f.<.W$W.^%/%(%_%:%<%                              ",
"        [%}%!.|%1%2% $ $Q$Q$3%D$i$:$/$<$}$U+4%y.W.5%6%7%8%9%0%a%                                ",
"          b%c%.+{%d%e% $ $ $%%D$T$f%g%U$p@h%B+}+*+i%j%k%l%m%n%o%                                ",
"            p%q%r%s%t%u%v% $ $ $.$1#`#w%x%y%z%A%B%m%C%D%E%F%G%H%I%                              ",
"              J%~%K%L%B$ +M%N%O%P%Q%R%S%T%U%V%.%W%X%] Y%Z%`% &.&+&@&#&$&                        ",
"                %&&&*&=&-&;&>&,&'&)&!&~&{&]&^&X%/&(&_&:&  <&[&}&|&1&2&3&4&                      ",
"                    5&o#6&7&8&9&0&a&b&c&d&e&f&g&h&i&        j&k&l&m&n&o&p&q&                    ",
"                        r&s&t&]@u&v&w&x&y&z&A&B&            C&D&E&F&G&H&o&p&q&                  ",
"                                                            I&J&K&L&J&G&n&o&p&4&                ",
"                                                              M&N&O&P&N&G&H&o&p&q&              ",
"                                                                M&Q&R&P&J&G&H&o&p&q&            ",
"                                                                  S&Q&O&L&J&G&n&o&p&4&          ",
"                                                                    M&N&O&P&N&G&H&o&p&q&        ",
"                                                                      M&Q&R&P&J&G&H&T&3&U&      ",
"                                                                        S&Q&O&L&J&G&n&V&W&      ",
"                                                                          M&N&O&P&X&M&H&Y&      ",
"                                                                            M&Q&O&Z&`& *.*      ",
"                                                                              +*@*#*$*%*        ",
"                                                                                &*G&            ",
"                                                                                                ",
"                                                                                                "};
