/* XPM */
static char * zmgolly_play_xpm[] = {
"48 48 340 2",
"  	c None",
". 	c #E2E0E0",
"+ 	c #E1DFDF",
"@ 	c #E0DEDE",
"# 	c #DFDDDD",
"$ 	c #DCDADA",
"% 	c #DBD9D9",
"& 	c #DDDBDB",
"* 	c #DAD8D8",
"= 	c #D9D7D7",
"- 	c #D8D6D6",
"; 	c #D6D4D4",
"> 	c #D4D2D2",
", 	c #DEDCDC",
"' 	c #D7D5D5",
") 	c #D5D3D3",
"! 	c #D3D2D2",
"~ 	c #D3D1D1",
"{ 	c #D2D0D0",
"] 	c #D1CFCF",
"^ 	c #CFCECE",
"/ 	c #CFCDCD",
"( 	c #CECCCC",
"_ 	c #CFCCCC",
": 	c #CECDCD",
"< 	c #D0CECE",
"[ 	c #D0CFCF",
"} 	c #CCCCCC",
"| 	c #CBC9C9",
"1 	c #CECBCB",
"2 	c #CBC8C8",
"3 	c #C9C7C7",
"4 	c #C8C5C5",
"5 	c #C8C3C3",
"6 	c #C7C3C3",
"7 	c #C6C2C2",
"8 	c #C8C4C4",
"9 	c #C9C5C5",
"0 	c #CAC7C7",
"a 	c #CBCACA",
"b 	c #CCCBCB",
"c 	c #CCCACA",
"d 	c #CCC9C9",
"e 	c #C5C1C1",
"f 	c #C4BFBF",
"g 	c #C2BEBE",
"h 	c #C1BDBD",
"i 	c #C0BCBC",
"j 	c #C0BBBB",
"k 	c #BFBBBB",
"l 	c #C3BFBF",
"m 	c #C4C0C0",
"n 	c #C6C1C1",
"o 	c #C7C4C4",
"p 	c #C9C6C6",
"q 	c #CBC7C7",
"r 	c #CAC6C6",
"s 	c #DCD9D9",
"t 	c #D4D3D3",
"u 	c #BEBABA",
"v 	c #DFDCDC",
"w 	c #C1BCBC",
"x 	c #BEBBBB",
"y 	c #D6D5D5",
"z 	c #BDB9B9",
"A 	c #D0CDCD",
"B 	c #BFBABA",
"C 	c #BCB8B8",
"D 	c #B6B2B2",
"E 	c #BAB6B6",
"F 	c #B3AFAF",
"G 	c #ADAAAA",
"H 	c #B2AEAE",
"I 	c #A8A5A5",
"J 	c #CDCBCB",
"K 	c #918E8E",
"L 	c #9E9A9A",
"M 	c #B1AEAE",
"N 	c #A7A4A4",
"O 	c #A09D9D",
"P 	c #BFBCBC",
"Q 	c #7B7878",
"R 	c #262525",
"S 	c #343232",
"T 	c #6A6868",
"U 	c #A09E9E",
"V 	c #BBB7B7",
"W 	c #9C9B9B",
"X 	c #D1D0D0",
"Y 	c #616060",
"Z 	c #020202",
"` 	c #000000",
" .	c #121212",
"..	c #313030",
"+.	c #666565",
"@.	c #9F9B9B",
"#.	c #9A9898",
"$.	c #939191",
"%.	c #656363",
"&.	c #0A0909",
"*.	c #010101",
"=.	c #101010",
"-.	c #373535",
";.	c #6B6969",
">.	c #9D9A9A",
",.	c #B4B0B0",
"'.	c #908D8D",
").	c #666464",
"!.	c #0B0A0A",
"~.	c #040404",
"{.	c #373636",
"].	c #686666",
"^.	c #A29F9F",
"/.	c #B5B1B1",
"(.	c #8D8B8B",
"_.	c #888585",
":.	c #0A0A0A",
"<.	c #100F0F",
"[.	c #353434",
"}.	c #676666",
"|.	c #9C9A9A",
"1.	c #B7B3B3",
"2.	c #A7A5A5",
"3.	c #999898",
"4.	c #8C8A8A",
"5.	c #827F7F",
"6.	c #323131",
"7.	c #686767",
"8.	c #9E9B9B",
"9.	c #B8B4B4",
"0.	c #A8A6A6",
"a.	c #999797",
"b.	c #8A8787",
"c.	c #7F7C7C",
"d.	c #C7C2C2",
"e.	c #393838",
"f.	c #B9B5B5",
"g.	c #A9A6A6",
"h.	c #989696",
"i.	c #898686",
"j.	c #D1CECE",
"k.	c #CDCCCC",
"l.	c #131313",
"m.	c #383737",
"n.	c #6E6C6C",
"o.	c #A4A1A1",
"p.	c #979595",
"q.	c #878484",
"r.	c #787575",
"s.	c #CDCDCD",
"t.	c #343434",
"u.	c #A8A4A4",
"v.	c #969494",
"w.	c #858282",
"x.	c #747171",
"y.	c #0D0D0D",
"z.	c #7E7B7B",
"A.	c #949292",
"B.	c #6F6D6D",
"C.	c #1F1F1F",
"D.	c #B4B2B2",
"E.	c #A6A3A3",
"F.	c #928F8F",
"G.	c #7F7B7B",
"H.	c #6B6A6A",
"I.	c #CCC8C8",
"J.	c #8C8C8C",
"K.	c #DAD9D9",
"L.	c #8E8C8C",
"M.	c #7A7777",
"N.	c #272626",
"O.	c #858484",
"P.	c #E6E5E5",
"Q.	c #EFEEEE",
"R.	c #DAD7D7",
"S.	c #747272",
"T.	c #605E5E",
"U.	c #262626",
"V.	c #898888",
"W.	c #E0DFDF",
"X.	c #F1EFEF",
"Y.	c #B4B1B1",
"Z.	c #9B9999",
"`.	c #858181",
" +	c #6D6B6B",
".+	c #595858",
"++	c #222222",
"@+	c #8B8B8B",
"#+	c #F3F1F1",
"$+	c #D3D0D0",
"%+	c #B1ADAD",
"&+	c #959393",
"*+	c #7D7B7B",
"=+	c #656464",
"-+	c #525151",
";+	c #1D1D1D",
">+	c #8E8D8D",
",+	c #DDDCDC",
"'+	c #EBEAEA",
")+	c #D5D2D2",
"!+	c #AAA7A7",
"~+	c #8E8B8B",
"{+	c #5C5B5B",
"]+	c #4E4C4C",
"^+	c #2C2C2C",
"/+	c #878787",
"(+	c #E4E3E3",
"_+	c #D8D5D5",
":+	c #A19E9E",
"<+	c #838181",
"[+	c #696868",
"}+	c #525050",
"|+	c #454343",
"1+	c #636161",
"2+	c #080808",
"3+	c #272727",
"4+	c #8D8D8D",
"5+	c #F2F0F0",
"6+	c #D2CFCF",
"7+	c #B0ACAC",
"8+	c #979494",
"9+	c #787676",
"0+	c #5D5C5C",
"a+	c #494646",
"b+	c #232323",
"c+	c #909090",
"d+	c #D8D8D8",
"e+	c #F1F0F0",
"f+	c #A6A4A4",
"g+	c #8B8888",
"h+	c #6A6969",
"i+	c #514F4F",
"j+	c #413F3F",
"k+	c #878686",
"l+	c #E5E4E4",
"m+	c #EFEDED",
"n+	c #D9D6D6",
"o+	c #989595",
"p+	c #5A5959",
"q+	c #434141",
"r+	c #3A3838",
"s+	c #E6E3E3",
"t+	c #D6D3D3",
"u+	c #A3A0A0",
"v+	c #4A4949",
"w+	c #ABA8A8",
"x+	c #AEAAAA",
"y+	c #BEB9B9",
"z+	c #929090",
"A+	c #737070",
"B+	c #545353",
"C+	c #3C3A3A",
"D+	c #A5A2A2",
"E+	c #9D9B9B",
"F+	c #7D7A7A",
"G+	c #414040",
"H+	c #9F9D9D",
"I+	c #9F9C9C",
"J+	c #848181",
"K+	c #444242",
"L+	c #2D2C2C",
"M+	c #959494",
"N+	c #989797",
"O+	c #A19F9F",
"P+	c #ABA7A7",
"Q+	c #B0ADAD",
"R+	c #676565",
"S+	c #464545",
"T+	c #333131",
"U+	c #2E2D2D",
"V+	c #8F8D8D",
"W+	c #B8B3B3",
"X+	c #868383",
"Y+	c #4A4848",
"Z+	c #333232",
"`+	c #8D8A8A",
" @	c #9B9898",
".@	c #817E7E",
"+@	c #646262",
"@@	c #484646",
"#@	c #807D7D",
"$@	c #767575",
"%@	c #302F2F",
"&@	c #838080",
"*@	c #BAB7B7",
"=@	c #ACA9A9",
"-@	c #7E7C7C",
";@	c #696767",
">@	c #515050",
",@	c #3A3939",
"'@	c #2F2E2E",
")@	c #726F6F",
"!@	c #918F8F",
"~@	c #ACAAAA",
"{@	c #B3B0B0",
"]@	c #B6B3B3",
"^@	c #B5B2B2",
"/@	c #AFACAC",
"(@	c #A2A0A0",
"_@	c #6D6A6A",
":@	c #595757",
"<@	c #454444",
"[@	c #656565",
"}@	c #767474",
"|@	c #969393",
"1@	c #908E8E",
"2@	c #8B8989",
"3@	c #858383",
"4@	c #7C7A7A",
"5@	c #716F6F",
"6@	c #575656",
"7@	c #464444",
"8@	c #2F2D2D",
"9@	c #5E5C5C",
"0@	c #5F5E5E",
"a@	c #646363",
"b@	c #727070",
"c@	c #767373",
"d@	c #777575",
"e@	c #706D6D",
"f@	c #636262",
"g@	c #5B5959",
"h@	c #4F4E4E",
"i@	c #383636",
"j@	c #535252",
"k@	c #565454",
"l@	c #585757",
"m@	c #5C5A5A",
"n@	c #5B5A5A",
"o@	c #565555",
"p@	c #4C4A4A",
"q@	c #444343",
"r@	c #343333",
"s@	c #302E2E",
"t@	c #494747",
"u@	c #464343",
"v@	c #424141",
"w@	c #403F3F",
"x@	c #3E3D3D",
"y@	c #3B3A3A",
"                                      . . . + @ # $ $ $ %                                       ",
"                                . . . + @ # & % * * = - - ; ; ; >                               ",
"                            . . . + , $ * - ' ; ) > ! > > > ~ ~ { ] ]                           ",
"                        . . . @ & * ' > ~ ] ^ / ( ( _ : : / ^ < < [ ^ } |                       ",
"                    + . . @ & - > [ 1 2 3 4 5 6 7 6 5 8 4 9 0 | a a b c d 2                     ",
"                  . . + , = > / | 4 e f g h i j k i i h g l m n o p q q q r 8 8                 ",
"                . . + s t / 2 7 m h i k u u u u u u u k k k i h g m 7 8 9 8 9 7 m               ",
"              . . v = ] | 6 l w k u u u u u u k k k u u u u u k k i h l e 6 7 e m h             ",
"            . + , ' < p e g i k u u u u k u x k x x k u k k u u u k k h g l m m l h i           ",
"          . . & y / p m h k k u u u k x k x x k x x k u k x k u u u u k i h g g g h z           ",
"        . + , ' A 9 m h k u u k k k k k B u u k k k k u k k B u u k u k k i h h g i C D         ",
"        @ & - / p m h k u u k k u z z u k k x k x x k u k x u k x u k u u k k i h k E F G       ",
"      , & = { 2 m h k u u k u u h 7 e i k k u u x k k B k x B x B k k k k u k k i k E H I       ",
"      $ * > J 7 g k u u k k k i H K L k n g k u u k k u k u B x u k B B k k u u k u E M N O     ",
"    $ % ; ^ p l i u k k u B h P Q R S T U x 6 l k u u u k u u x u k B u B u k k k u V H N W     ",
"    $ ' X d 7 h k u k u u B l V Y Z `  ...+.@.z m j u u k u u u u u k u u u B x k k V F N #.$.  ",
"  * - > : 9 l k u u u x k B l E %.&.` ` *.=.-.;.>.u 7 h k k u u B k k k B x k k k k C ,.N #.'.  ",
"  ; ) { c 7 h k u u k x k k l E ).!.` ` ` ` ~. .{.].^.h 7 g k u k k k k B x k k k u z /.N #.(._.",
"  ; ~ / p l k u u k B u B B l E ).:.` ` ` ` ` ` ` <.[.}.|.V m k z u k k u u B k k k u 1.2.3.4.5.",
"; > ] J 8 g k u k u u x x B l E ).:.` ` ` ` ` ` ` ` `  .6.7.8.u m i u u k k k x u k k 9.0.a.b.c.",
"{ ] / | d.h k u k x k u u B l E ).:.` ` ` ` ` ` ` ` ` ` Z =.e.;.8.h 7 h k u u k u k k f.g.h.i.Q ",
"j.[ k.0 e i k u k u k u B B l E ).:.` ` ` ` ` ` ` ` ` ` ` ` ~.l.m.n.o.i h u u u B u k E g.p.q.r.",
"[ s.| p m k u u x x k x x k l E ).:.` ` ` ` ` ` ` ` ` ` ` ` ` ` ` l.t.n.u.i k k u u j V 0.v.w.x.",
"s.c 2 9 l k u k x x k k k B l E ).:.` ` ` ` ` ` ` ` ` ` ` ` ` ` ` ` ` y.z.8 i u k u k V N A.5.B.",
"| d 0 8 f k u k x x k x x k l E ).:.` ` ` ` ` ` ` ` ` ` ` ` ` ` ` ` ` C.D.j.B u k u i E E.F.G.H.",
"I.2 9 6 l k u k x x k x x k l E ).:.` ` ` ` ` ` ` ` ` ` ` ` ` ` ` C.J.K.$ l z k k u i E o.L.M.+.",
"r 9 9 7 g k u u k k k k k B l E ).:.` ` ` ` ` ` ` ` ` *.Z ` ` N.O.P.Q.R.g z u k u k k 1.O b.S.T.",
"8 9 8 e l k u k x x u u u B l E ).:.` ` ` ` ` ` ` ` ` ` ` U.V.W.X.> g C z u k u u k k Y.Z.`. +.+",
"6 7 e e l i u u u u k k k B l E ).:.` ` ` ` ` ` ` ` ` ++@+y #+$+P C u k k u u k u k u %+&+*+=+-+",
"  m e m g h k u x x k x x k l E ).:.` ` ` ` ` ` ` ;+>+,+'+)+C V u k k k u x k u k k C !+~+S.{+]+",
"  l l g g h k u u u k k k B l E ).!.` ` *.` ` ^+/+(+Q._+g C z u k k B k B k k k k u 1.:+<+[+}+|+",
"  h h g g h k u x x k x k B l E 1+2+` ` ` 3+4+W.5+6+h C z u k k u k k k B k u k k C 7+8+9+0+a+  ",
"  u k i h i k u k u k u u B l E B.~.` b+c+d+e+$+u z u k k u u x u k k u B k u k k 9.f+g+h+i+j+  ",
"    f.E z u u u u k u k k k i E g.{+k+l+m+n+i V z u k k k k B x x k k k k u k u C 7+o+M.p+q+r+  ",
"    %+F 1.E z z u u k u u k u u l R.s+t+g C z u u k k B k x B k k k k u u u k u 1.u+q.}.v+r+    ",
"      w+x+,.f.C u u u k u u u k i h k z y+u k k k k k u k x B x u k u u k k u E G z+A+B+C+6.    ",
"      D+D+!+%+9.V z u k k u k u u u u k k u u k x k k u k x B x u k u k k u V M E+F+{+G+6.      ",
"        8.H+D+x+/.E z u u k k u k B B x B u u B x k k u k x B k k u u k u E %+I+J+T.K+6.L+      ",
"          M+N+O+P+F f.z u u u k k u B x k k k B x k k B k x k u u k k u V Q+O q.R+S+T+U+        ",
"          '.V+A.W E.7+W+C u u k k k u x k x x B x k k u k u k k k k u E Q+8.X+].Y+Z+U+          ",
"            b.i.`+&+U w+,.E z u k k k k u k x u x x x u u k k k k C D w+ @.@+@@@S U+            ",
"              #@#@w.4.p.O+w+F f.C u k k k u u u u u u k k k u C 1.G H+~+$@.+j+%@U+              ",
"                Q r.Q &@4.v.H+g.%+D *@y+k i i i i w i j u V ,.=@:+K -@;@>@,@'@U+                ",
"                    )@)@r.#@_.!@a.O f+~@%+{@]@1.1.^@{@/@!+(@o+`+c._@:@<@[.U+'@                  ",
"                      [@=+;@B.}@F+&@i.~+!@A.v.p.|@A.1@2@3@4@5@%.6@7@{.8@U+'@                    ",
"                          9@{+0@a@;@n.b@c@d@9+9+d@S.e@T f@g@h@q+i@'@U+U+                        ",
"                              j@>@j@k@l@g@m@m@n@.+o@i+p@q@C+r@s@U+U+                            ",
"                                  t@u@K+q+q+v@w@x@y@{.Z+%@'@U+                                  "};
