/* XPM */
static char * zmgolly_zoomin_xpm[] = {
"48 48 791 2",
"  	c None",
". 	c #9DA8B2",
"+ 	c #A4AFBB",
"@ 	c #A8B4C0",
"# 	c #A9B6C2",
"$ 	c #A8B6C2",
"% 	c #A5B2BF",
"& 	c #9EACB9",
"* 	c #97A4B0",
"= 	c #8B98A4",
"- 	c #7E8A96",
"; 	c #A8B4BF",
"> 	c #B7C3D0",
", 	c #BFCDDB",
"' 	c #C6D5E3",
") 	c #C8D7E7",
"! 	c #C6D5E4",
"~ 	c #C2D2E2",
"{ 	c #BECEDE",
"] 	c #BACADB",
"^ 	c #B5C5D6",
"/ 	c #ABBBCB",
"( 	c #9EADBD",
"_ 	c #8F9DAC",
": 	c #7B8995",
"< 	c #ABB6C1",
"[ 	c #BDCAD7",
"} 	c #CBDAE8",
"| 	c #CFDEED",
"1 	c #C7D5E4",
"2 	c #B8C7D4",
"3 	c #AAB8C6",
"4 	c #A5B2C1",
"5 	c #A1AFBE",
"6 	c #9EACBB",
"7 	c #9CAAB9",
"8 	c #9BAAB9",
"9 	c #A0B1C0",
"0 	c #A6B7C8",
"a 	c #A5B7CA",
"b 	c #98A9BB",
"c 	c #8494A4",
"d 	c #6F7D8B",
"e 	c #A1ABB5",
"f 	c #B5C2CD",
"g 	c #CDDBE9",
"h 	c #D0DEEE",
"i 	c #A8B4C1",
"j 	c #9FACBC",
"k 	c #A3B1C3",
"l 	c #A7B4C9",
"m 	c #A9B8CE",
"n 	c #AAB9D0",
"o 	c #A8B8CF",
"p 	c #A3B3CA",
"q 	c #9CABC1",
"r 	c #92A1B5",
"s 	c #8796A7",
"t 	c #8595A6",
"u 	c #90A2B5",
"v 	c #95A8BC",
"w 	c #889AAD",
"x 	c #6D7D8E",
"y 	c #576471",
"z 	c #A4AFBA",
"A 	c #BECAD8",
"B 	c #D3E2F1",
"C 	c #C4D2E0",
"D 	c #A8B5C2",
"E 	c #A0ACBC",
"F 	c #B1BFD5",
"G 	c #C0CEE6",
"H 	c #CAD7F0",
"I 	c #D1DFF9",
"J 	c #D2DFF8",
"K 	c #D1DEF7",
"L 	c #CEDDF6",
"M 	c #CBDAF5",
"N 	c #C7D6F3",
"O 	c #BBCBE8",
"P 	c #AFBFDA",
"Q 	c #9AAAC2",
"R 	c #7C8B9E",
"S 	c #778899",
"T 	c #8699AD",
"U 	c #8498AD",
"V 	c #708093",
"W 	c #596775",
"X 	c #A3AEB9",
"Y 	c #BFCDDA",
"Z 	c #D1E0F0",
"` 	c #A0ACBA",
" .	c #B0BDD0",
"..	c #CEDAF2",
"+.	c #DAE6FD",
"@.	c #DEE9FF",
"#.	c #DFE9FF",
"$.	c #DFE9FE",
"%.	c #DDE8FD",
"&.	c #DBE5FC",
"*.	c #D7E2FA",
"=.	c #D2DFF7",
"-.	c #CCDBF5",
";.	c #C6D6F2",
">.	c #B2C4E1",
",.	c #7B90AE",
"'.	c #6A7C90",
").	c #7F91A4",
"!.	c #869AAF",
"~.	c #728395",
"{.	c #596574",
"].	c #9FA9B4",
"^.	c #BCC9D7",
"/.	c #CFDEEE",
"(.	c #B1BFCC",
"_.	c #C4D0E5",
":.	c #DFEBFF",
"<.	c #E1EBFF",
"[.	c #E2EBFF",
"}.	c #E0EAFF",
"|.	c #DEE9FE",
"1.	c #DAE6FC",
"2.	c #D3DFF7",
"3.	c #CBD9F2",
"4.	c #ADC3E9",
"5.	c #7B94BD",
"6.	c #6A7B91",
"7.	c #7C8EA0",
"8.	c #708192",
"9.	c #53606C",
"0.	c #B2BFCC",
"a.	c #CDDCEC",
"b.	c #B2C0CE",
"c.	c #CFD9ED",
"d.	c #E6EFFF",
"e.	c #E2ECFE",
"f.	c #E3ECFF",
"g.	c #E2EBFE",
"h.	c #E8EFFF",
"i.	c #E7EFFF",
"j.	c #E6EEFF",
"k.	c #DFEAFF",
"l.	c #D8E3FA",
"m.	c #C8D7F1",
"n.	c #A2BBE7",
"o.	c #7D98C2",
"p.	c #6A7D92",
"q.	c #697889",
"r.	c #A5B1BE",
"s.	c #C5D4E3",
"t.	c #B8C7D5",
"u.	c #9DA9B6",
"v.	c #CFD9EB",
"w.	c #E8F1FF",
"x.	c #E4EEFF",
"y.	c #E4EDFE",
"z.	c #E3ECFE",
"A.	c #E3EDFF",
"B.	c #E1EBFE",
"C.	c #D9E4FD",
"D.	c #D8E3FD",
"E.	c #D8E2FC",
"F.	c #D9E4FC",
"G.	c #E0EAFE",
"H.	c #E1EAFF",
"I.	c #DEE9FD",
"J.	c #BDCFF1",
"K.	c #9EB8E6",
"L.	c #7E97BF",
"M.	c #6D7E93",
"N.	c #8396AA",
"O.	c #7D90A4",
"P.	c #5F6D7C",
"Q.	c #949FAA",
"R.	c #B4C3D1",
"S.	c #C1D1E0",
"T.	c #9AA7B5",
"U.	c #C1CBDC",
"V.	c #EAF3FF",
"W.	c #E4ECFE",
"X.	c #E5EEFE",
"Y.	c #E6EEFE",
"Z.	c #E5EDFE",
"`.	c #ECF3FF",
" +	c #D0DDFB",
".+	c #6F94EA",
"++	c #6A8FE6",
"@+	c #6489E1",
"#+	c #7C9BE5",
"$+	c #D7E2FB",
"%+	c #E2ECFF",
"&+	c #D3E1FC",
"*+	c #B0C6EC",
"=+	c #9CB7E4",
"-+	c #768CAE",
";+	c #738495",
">+	c #869AB0",
",+	c #4C5864",
"'+	c #9FACB9",
")+	c #BECDDD",
"!+	c #A8B7C6",
"~+	c #A3AFBE",
"{+	c #E4EDFF",
"]+	c #E5EEFF",
"^+	c #DAE6FF",
"/+	c #DAE6FE",
"(+	c #DBE6FF",
"_+	c #F0F6FF",
":+	c #CAD9F9",
"<+	c #4975DF",
"[+	c #426FDA",
"}+	c #3B68D5",
"|+	c #5A80DA",
"1+	c #D4E0FA",
"2+	c #EAF1FF",
"3+	c #E0EBFF",
"4+	c #DEE8FF",
"5+	c #C3D6F9",
"6+	c #ADC3EB",
"7+	c #92ACD8",
"8+	c #6C7F97",
"9+	c #8092A5",
"0+	c #7E91A5",
"a+	c #5E6C7B",
"b+	c #A9B8C6",
"c+	c #B9C9D9",
"d+	c #92A0AF",
"e+	c #CBD4E6",
"f+	c #EBF3FF",
"g+	c #D9E6FE",
"h+	c #C4D5F9",
"i+	c #4D77DC",
"j+	c #4671D7",
"k+	c #3E6AD2",
"l+	c #5D82D7",
"m+	c #D5E1FA",
"n+	c #EBF2FF",
"o+	c #E3EBFE",
"p+	c #CFDEFF",
"q+	c #BFD2F6",
"r+	c #A8BFEB",
"s+	c #7E95BA",
"t+	c #738494",
"u+	c #6C7C8D",
"v+	c #909CA9",
"w+	c #AEBDCD",
"x+	c #A6B6C7",
"y+	c #9DAABA",
"z+	c #DFE8F9",
"A+	c #E7EEFE",
"B+	c #E1EAFE",
"C+	c #DBE7FE",
"D+	c #DCE7FE",
"E+	c #C0D2F8",
"F+	c #4A74D8",
"G+	c #436ED3",
"H+	c #3D67CE",
"I+	c #5C80D4",
"J+	c #D7E1FA",
"K+	c #D2E0FF",
"L+	c #CBDBFD",
"M+	c #B7CCF3",
"N+	c #92AAD3",
"O+	c #6F8299",
"P+	c #8497AB",
"Q+	c #77899B",
"R+	c #54606D",
"S+	c #93A1B0",
"T+	c #AEBFD0",
"U+	c #92A2B2",
"V+	c #AFBACA",
"W+	c #EDF4FF",
"X+	c #E9EFFE",
"Y+	c #F1F6FF",
"Z+	c #F0F5FF",
"`+	c #EEF4FF",
" @	c #E9F1FF",
".@	c #F0F7FF",
"+@	c #C8D8F9",
"@@	c #4872D5",
"#@	c #426CD0",
"$@	c #3B65C9",
"%@	c #5A7DD2",
"&@	c #D7E3FC",
"*@	c #F4FAFF",
"=@	c #ECF4FF",
"-@	c #D2E1FE",
";@	c #CFDFFF",
">@	c #C2D5F8",
",@	c #A2BAE4",
"'@	c #788CA8",
")@	c #7E91A6",
"!@	c #5D6A79",
"~@	c #93A2B2",
"{@	c #A7B8CA",
"]@	c #8B9BAB",
"^@	c #C0C9DA",
"/@	c #E8EFFE",
"(@	c #E9F0FE",
"_@	c #EBF1FF",
":@	c #DEE8FC",
"<@	c #DEE7FC",
"[@	c #DDE6FB",
"}@	c #BDCEF3",
"|@	c #456FD0",
"1@	c #4069CB",
"2@	c #3963C5",
"3@	c #5378CD",
"4@	c #BDCEF4",
"5@	c #D0DEFB",
"6@	c #CFDCF8",
"7@	c #D3DEF8",
"8@	c #D3DEF7",
"9@	c #D6E1F8",
"0@	c #E2EAFE",
"a@	c #D6E3FF",
"b@	c #D0E0FF",
"c@	c #CBDBFC",
"d@	c #B3C9F2",
"e@	c #8298B8",
"f@	c #75889A",
"g@	c #8296AA",
"h@	c #647382",
"i@	c #91A1B1",
"j@	c #9EB0C2",
"k@	c #8A99A8",
"l@	c #CCD5E4",
"m@	c #EEF5FF",
"n@	c #EAF0FE",
"o@	c #EBF1FE",
"p@	c #F4F8FF",
"q@	c #D8E3FB",
"r@	c #7094E9",
"s@	c #658BE4",
"t@	c #648AE1",
"u@	c #6287DE",
"v@	c #6387DB",
"w@	c #5A7FD6",
"x@	c #416ACC",
"y@	c #3E67C8",
"z@	c #3A63C3",
"A@	c #3E66C1",
"B@	c #5074C7",
"C@	c #5173C4",
"D@	c #4D70C1",
"E@	c #4D6EBE",
"F@	c #4767B7",
"G@	c #6B86C6",
"H@	c #D9E4F9",
"I@	c #DDE9FF",
"J@	c #D0DFFF",
"K@	c #BBD0F6",
"L@	c #8CA2C4",
"M@	c #75889C",
"N@	c #8397AB",
"O@	c #8D9CAD",
"P@	c #95A7BA",
"Q@	c #8796A6",
"R@	c #D4DCEB",
"S@	c #EBF2FE",
"T@	c #EDF2FE",
"U@	c #F7FBFF",
"V@	c #507BE1",
"W@	c #426FDB",
"X@	c #416DD6",
"Y@	c #3F6BD2",
"Z@	c #3C68CE",
"`@	c #3C66CA",
" #	c #3B64C4",
".#	c #3A62BF",
"+#	c #365EBC",
"@#	c #3058B6",
"##	c #2D54B2",
"$#	c #2A52AE",
"%#	c #284FAA",
"&#	c #1E45A2",
"*#	c #4869B5",
"=#	c #CEDCF8",
"-#	c #DCEAFF",
";#	c #D1E0FF",
">#	c #D2E1FF",
",#	c #C2D5F9",
"'#	c #92A8CA",
")#	c #76889C",
"!#	c #8296AB",
"~#	c #6D7C8D",
"{#	c #8596A7",
"]#	c #8CA0B3",
"^#	c #8190A1",
"/#	c #D6DCEB",
"(#	c #F1F5FF",
"_#	c #EEF3FE",
":#	c #FAFCFF",
"<#	c #D6E1F9",
"[#	c #527BDD",
"}#	c #436FD7",
"|#	c #416BCF",
"1#	c #3F69CB",
"2#	c #3D66C7",
"3#	c #3B64C3",
"4#	c #3962BF",
"5#	c #375FBC",
"6#	c #345BB8",
"7#	c #3258B4",
"8#	c #2E55B0",
"9#	c #2D52AC",
"0#	c #2B50A8",
"a#	c #2146A0",
"b#	c #4A6AB4",
"c#	c #C8D7F8",
"d#	c #DAE8FF",
"e#	c #D3E0FF",
"f#	c #D3E1FF",
"g#	c #C7D9FC",
"h#	c #97ACCE",
"i#	c #76889D",
"j#	c #707F90",
"k#	c #7E8FA1",
"l#	c #8699AE",
"m#	c #79899A",
"n#	c #CFD7E4",
"o#	c #F3F9FF",
"p#	c #EFF4FE",
"q#	c #F0F5FE",
"r#	c #FBFDFF",
"s#	c #D8E2F9",
"t#	c #547CDA",
"u#	c #4670D4",
"v#	c #466FD0",
"w#	c #446CCD",
"x#	c #426AC9",
"y#	c #3E67C5",
"z#	c #3A61C0",
"A#	c #355BB8",
"B#	c #335AB4",
"C#	c #3459B2",
"D#	c #3257AE",
"E#	c #3054AA",
"F#	c #2E52A7",
"G#	c #24489E",
"H#	c #4C6BB3",
"I#	c #CAD8F8",
"J#	c #DCE9FF",
"K#	c #D3E2FF",
"L#	c #CADBFE",
"M#	c #97ACCC",
"N#	c #788A9F",
"O#	c #899DB1",
"P#	c #728191",
"Q#	c #748597",
"R#	c #8297AB",
"S#	c #718395",
"T#	c #C2CBD8",
"U#	c #F9FDFF",
"V#	c #F2F6FE",
"W#	c #F5F8FF",
"X#	c #EFF3FD",
"Y#	c #D5DFF6",
"Z#	c #D4DFF6",
"`#	c #D3DEF5",
" $	c #DCE5F8",
".$	c #B6C7EB",
"+$	c #3B62BE",
"@$	c #2D55B2",
"#$	c #4B6CBC",
"$$	c #BDCBEA",
"%$	c #D1DBF3",
"&$	c #C8D5EF",
"*$	c #C8D3EE",
"=$	c #C5D1ED",
"-$	c #C4D2F1",
";$	c #D5E2FD",
">$	c #D7E4FF",
",$	c #D4E2FF",
"'$	c #CCDEFF",
")$	c #94A7C5",
"!$	c #7E8FA2",
"~$	c #90A2B6",
"{$	c #72808E",
"]$	c #8397AC",
"^$	c #6B7E91",
"/$	c #ABB6C2",
"($	c #FDFFFF",
"_$	c #F3F7FF",
":$	c #F4F8FE",
"<$	c #F7FAFF",
"[$	c #FFFFFF",
"}$	c #DCE4F6",
"|$	c #3960B9",
"1$	c #3158B4",
"2$	c #2850AD",
"3$	c #5170BB",
"4$	c #E8EEFC",
"5$	c #F8FCFF",
"6$	c #F7FCFF",
"7$	c #D6E3FE",
"8$	c #D5E3FF",
"9$	c #D5E4FF",
"0$	c #C9DAFC",
"a$	c #8DA0B9",
"b$	c #8899AB",
"c$	c #93A5B8",
"d$	c #6D7A87",
"e$	c #657384",
"f$	c #7F92A7",
"g$	c #74889C",
"h$	c #8F9CAB",
"i$	c #F1F5FD",
"j$	c #F9FBFF",
"k$	c #F6F8FE",
"l$	c #F6F9FE",
"m$	c #F7FAFE",
"n$	c #F8FAFE",
"o$	c #D3DCF2",
"p$	c #375DB6",
"q$	c #2F55B0",
"r$	c #274DA9",
"s$	c #4D6CB7",
"t$	c #DDE4F6",
"u$	c #F6FBFF",
"v$	c #ECF2FE",
"w$	c #EAF1FE",
"x$	c #D9E5FE",
"y$	c #D8E4FF",
"z$	c #D8E6FF",
"A$	c #BECFEF",
"B$	c #8798AD",
"C$	c #97A9BB",
"D$	c #91A2B3",
"E$	c #65707B",
"F$	c #788A9D",
"G$	c #8398AC",
"H$	c #6D7D8F",
"I$	c #DADFE7",
"J$	c #F8F9FE",
"K$	c #F8FAFF",
"L$	c #F9FBFE",
"M$	c #F9FAFE",
"N$	c #F9FAFF",
"O$	c #D3DCF1",
"P$	c #345AB3",
"Q$	c #254BA5",
"R$	c #4B6AB4",
"S$	c #DDE5F6",
"T$	c #EDF3FE",
"U$	c #ECF2FF",
"V$	c #DDE8FE",
"W$	c #D8E5FF",
"X$	c #D9E7FF",
"Y$	c #AEBFDC",
"Z$	c #A3B5C8",
"`$	c #8999A8",
" %	c #555E67",
".%	c #6C7D8E",
"+%	c #8599AE",
"@%	c #6E8195",
"#%	c #9BA6B3",
"$%	c #FBFCFE",
"%%	c #D4DCF0",
"&%	c #3055AD",
"*%	c #284DA7",
"=%	c #2045A0",
"-%	c #4766AF",
";%	c #EEF4FE",
">%	c #DCE8FE",
",%	c #D9E5FF",
"'%	c #93A3B7",
")%	c #99AABB",
"!%	c #A3B4C6",
"~%	c #7C8895",
"{%	c #5C6B7A",
"]%	c #7B8EA2",
"^%	c #8194A9",
"/%	c #6A7B8D",
"(%	c #D8DDE3",
"_%	c #FDFDFE",
":%	c #FEFEFE",
"<%	c #FDFEFE",
"[%	c #FCFDFE",
"}%	c #D7DFF1",
"|%	c #3C5EAF",
"1%	c #3557AA",
"2%	c #2C50A3",
"3%	c #516EB2",
"4%	c #DFE6F6",
"5%	c #DFEAFE",
"6%	c #DEE8FE",
"7%	c #D9E4FE",
"8%	c #DEEBFF",
"9%	c #B4C3DC",
"0%	c #8C9CAC",
"a%	c #AABCCF",
"b%	c #97A6B6",
"c%	c #656F78",
"d%	c #73869B",
"e%	c #84919F",
"f%	c #F7F8FA",
"g%	c #FEFEFF",
"h%	c #FDFDFF",
"i%	c #F4F6FC",
"j%	c #D9E1F1",
"k%	c #D7DEF0",
"l%	c #D4DCEF",
"m%	c #D9E0F2",
"n%	c #EFF4FD",
"o%	c #F2F7FF",
"p%	c #CCD9F3",
"q%	c #93A2B3",
"r%	c #A4B6C7",
"s%	c #AABCCE",
"t%	c #84919E",
"u%	c #556270",
"v%	c #75879A",
"w%	c #6B7E92",
"x%	c #949FAB",
"y%	c #D5E1F9",
"z%	c #9CAABB",
"A%	c #9FB0C0",
"B%	c #B7C8DA",
"C%	c #98A6B5",
"D%	c #5F676F",
"E%	c #5F6E7D",
"F%	c #7B8FA2",
"G%	c #697B8F",
"H%	c #95A0AC",
"I%	c #FAFBFB",
"J%	c #FDFEFF",
"K%	c #F5F8FE",
"L%	c #F2F7FE",
"M%	c #E6EDFE",
"N%	c #E5EFFF",
"O%	c #D5E0F7",
"P%	c #9FACBE",
"Q%	c #9EAEBE",
"R%	c #BACBDE",
"S%	c #93A3B4",
"T%	c #67727D",
"U%	c #647383",
"V%	c #7D91A4",
"W%	c #8693A1",
"X%	c #DFE2E5",
"Y%	c #FAFBFE",
"Z%	c #F8FBFF",
"`%	c #F7F9FE",
" &	c #F4F7FE",
".&	c #E9F0FF",
"+&	c #C7D2E6",
"@&	c #9BAABA",
"#&	c #A2B2C2",
"$&	c #BECEE0",
"%&	c #97A6B5",
"&&	c #959DA6",
"*&	c #7E8EA0",
"=&	c #647282",
"-&	c #7C8EA2",
";&	c #859AAF",
">&	c #73879B",
",&	c #6C7D8F",
"'&	c #A3ADB7",
")&	c #E5E8EA",
"!&	c #FEFFFF",
"~&	c #F3F8FF",
"{&	c #F2F8FF",
"]&	c #F1F7FF",
"^&	c #E4EDFD",
"/&	c #D1DBED",
"(&	c #AAB7C8",
"_&	c #ACBDCD",
":&	c #BFD0E1",
"<&	c #90A0B0",
"[&	c #526171",
"}&	c #A4ADB8",
"|&	c #D3DBE5",
"1&	c #8799AE",
"2&	c #5E6D7B",
"3&	c #8498AE",
"4&	c #8094AA",
"5&	c #9CA7B3",
"6&	c #BCC3CB",
"7&	c #D5DAE0",
"8&	c #E1E5EB",
"9&	c #E5E9F2",
"0&	c #E1E7F2",
"a&	c #D9E1EC",
"b&	c #CCD5E2",
"c&	c #BAC4D3",
"d&	c #A7B4C3",
"e&	c #A4B4C4",
"f&	c #B8CADB",
"g&	c #A6B3C1",
"h&	c #5B6978",
"i&	c #45586E",
"j&	c #6B7D93",
"k&	c #AEB8C5",
"l&	c #D1DBE5",
"m&	c #6E767F",
"n&	c #4E4D4D",
"o&	c #5E5E5F",
"p&	c #525E6A",
"q&	c #6A7B8C",
"r&	c #7C8EA3",
"s&	c #8A9EB2",
"t&	c #8C9FB3",
"u&	c #8093A8",
"v&	c #7D8FA2",
"w&	c #8798A9",
"x&	c #909FAE",
"y&	c #95A2B2",
"z&	c #97A5B5",
"A&	c #98A7B7",
"B&	c #98A8B8",
"C&	c #9BABBC",
"D&	c #A8B9CA",
"E&	c #BACBDC",
"F&	c #ACBBCA",
"G&	c #94A0AD",
"H&	c #697077",
"I&	c #43556A",
"J&	c #4A5E75",
"K&	c #65798F",
"L&	c #C2C7CE",
"M&	c #6C6B69",
"N&	c #393939",
"O&	c #555555",
"P&	c #5F5F5F",
"Q&	c #5C6976",
"R&	c #8596A8",
"S&	c #92A4B7",
"T&	c #99ACC0",
"U&	c #9CAFC2",
"V&	c #9DB0C3",
"W&	c #A0B2C5",
"X&	c #A4B6C9",
"Y&	c #A9BCCE",
"Z&	c #AFC1D3",
"`&	c #B4C5D6",
" *	c #B1C1D1",
".*	c #A7B5C4",
"+*	c #929FAB",
"@*	c #77808A",
"#*	c #58697E",
"$*	c #B2BAC4",
"%*	c #A3A6A6",
"&*	c #424242",
"**	c #313131",
"=*	c #3F3F3F",
"-*	c #545454",
";*	c #5D5D5D",
">*	c #5B6671",
",*	c #6E7A87",
"'*	c #7D8B99",
")*	c #92A1B0",
"!*	c #96A6B6",
"~*	c #99A9B9",
"{*	c #9BA9B8",
"]*	c #98A5B3",
"^*	c #8E9AA6",
"/*	c #7F8994",
"(*	c #69727A",
"_*	c #C6C5C3",
":*	c #CBC9C9",
"<*	c #A6ADAD",
"[*	c #707171",
"}*	c #444444",
"|*	c #323232",
"1*	c #666666",
"2*	c #727272",
"3*	c #BAB8B8",
"4*	c #B0B0B0",
"5*	c #464646",
"6*	c #767676",
"7*	c #B8B8B8",
"8*	c #B1B1B1",
"9*	c #777777",
"0*	c #B7B7B7",
"a*	c #4C4C4C",
"b*	c #3E3E3E",
"c*	c #525252",
"d*	c #434343",
"e*	c #757575",
"f*	c #2B2B2B",
"g*	c #B6B6B6",
"h*	c #6C6C6C",
"i*	c #2E2E2E",
"j*	c #222222",
"k*	c #4B4B4B",
"l*	c #737373",
"m*	c #949494",
"n*	c #6D6D6D",
"o*	c #3A3A3A",
"p*	c #272727",
"                                                                                                ",
"                          . + @ # $ % & * = -                                                   ",
"                      ; > , ' ) ! ~ { ] ^ / ( _ :                                               ",
"                  < [ } | 1 2 3 4 5 6 7 8 9 0 a b c d                                           ",
"              e f g h , i j k l m n o p q r s t u v w x y                                       ",
"            z A B C D E F G H I J K L M N O P Q R S T U V W                                     ",
"          X Y Z 2 `  ...+.@.#.$.$.$.%.&.*.=.-.;.>.,.'.).!.~.{.                                  ",
"        ].^./.(.` _.:.<.[.[.[.[.<.<.<.<.}.|.1.2.3.4.5.6.7.!.8.9.                                ",
"        0.a.b.` c.d.e.f.g.g.g.f.h.h.i.j.<.}.k.|.l.m.n.o.p.).U q.                                ",
"      r.s.t.u.v.w.x.y.y.z.z.A.B.C.D.E.F.G.<.H.H.k.I.J.K.L.M.N.O.P.                              ",
"    Q.R.S.T.U.V.W.z.W.X.Y.Z.`. +.+++@+#+$+h.B.G.}.%+&+*+=+-+;+>+8.,+                            ",
"    '+)+!+~+{+]+[.^+/+(+|.g._+:+<+[+}+|+1+2+g.H.3+H.4+5+6+7+8+9+0+a+                            ",
"    b+c+d+e+f+j.<.g+g+g+/+/+x.h+i+j+k+l+m+n+z.o+H.B.H.p+q+r+s+t+>+u+                            ",
"  v+w+x+y+z+2+A+Y.z.B+|.C+D+]+E+F+G+H+I+J+`.y.z.g.g.B.K+L+M+N+O+P+Q+R+                          ",
"  S+T+U+V+W+i.h.X+n+Y+Z+`+ @.@+@@@#@$@%@&@*@W+=@`. @[.-@;@>@,@'@7.)@!@                          ",
"  ~@{@]@^@_+/@(@_@(@:@<@<@[@Z.}@|@1@2@3@4@5@6@7@8@9@0@a@b@c@d@e@f@g@h@                          ",
"  i@j@k@l@m@n@o@p@q@r@s@t@u@v@w@x@y@z@A@B@C@D@E@F@G@H@I@J@J@K@L@M@N@q.                          ",
"  O@P@Q@R@m@S@T@U@1+V@W@X@Y@Z@`@y@ #.#+#@###$#%#&#*#=#-#;#>#,#'#)#!#~#                          ",
"  {#]#^#/#(#_#_#:#<#[#}#G+|#1#2#3#4#5#6#7#8#9#0#a#b#c#d#e#f#g#h#i#N@j#                          ",
"  k#l#m#n#o#p#q#r#s#t#u#v#w#x#y#z#5#A#B#C#D#E#F#G#H#I#J#K#f#L#M#N#O#P#                          ",
"  Q#R#S#T#U#q#V#W#X#9@Y#Z#`# $.$+$6#@$#$$$%$&$*$=$-$;$>$,$,$'$)$!$~${$                          ",
"  u+]$^$/$($_$p@:$<$[$[$[$[$[$}$|$1$2$3$4$[$5$6$U@m@^+7$8$9$0$a$b$c$d$                          ",
"  e$f$g$h$i$j$k$l$m$n$m$l$l$[$o$p$q$r$s$t$u$v$o@w$g.x$y$a@z$A$B$C$D$E$                          ",
"    F$G$H$I$[$J$K$L$M$N$n$n$[$O$P$9#Q$R$S$U@T$U$(@V$^+W$>$X$Y${#Z$`$ %                          ",
"    .%+%@%#%[$:#:#$%$%$%$%L$[$%%&%*%=%-%S$5$;%T$z.>%C+W$,%-@'%)%!%~%                            ",
"    {%]%^%/%(%[$$%_%:%<%[%$%[$}%|%1%2%3%4%5$p#w$5%6%D+7%8%9%0%a%b%c%                            ",
"      .%U d%e%f%[$:%:%g%<%[%h%i%j%k%l%m%n%o%_#{+G.|.>%:.p%q%r%s%t%                              ",
"      u%v%!.w%x%:%[$<%[$g%:%$%h%[$[$[$[$p@p#/@f.<.6%%+y%z%A%B%C%D%                              ",
"        E%F%!.G%H%I%[$[$:%:%J%$%L$n$k$K%L%_@M%y.%+N%O%P%Q%R%S%T%                                ",
"          U%V%>+w%W%X%[$[$[$g%$%Y%Z%`% &T@.& @f+]++&@&#&$&%&&&*&                                ",
"            =&-&;&>&,&'&)&[$[$[$!&r#<$~&{&]&^&/&(&%&_&:&<&[&}&|&1&                              ",
"              2&v%3&4&@%;+5&6&7&8&9&0&a&b&c&d&b%e&f&] g&h&i&j&k&l&m&n&o&                        ",
"                p&q&r&s&t&u&v&w&x&y&z&A&B&C&D&f&E&F&G&H&  I&J&K&L&M&N&O&P&                      ",
"                    Q&P#R&S&T&U&V&W&X&Y&Z&`& *.*+*@*        #*$*%*&***=*-*;*                    ",
"                        >*,*'*k@)*!*~*{*]*^*/*(*            _*:*<*[*}*|*=*-*;*                  ",
"                                                            1*2*3*4*2*}***=*-*P&                ",
"                                                              5*6*7*8*6*}*|*=*-*;*              ",
"                                                                5*9*0*8*2*}*|*=*-*;*            ",
"                                                                  a*9*7*4*2*}***=*-*P&          ",
"                                                                    5*6*7*8*6*}*|*=*-*;*        ",
"                                                                      5*9*0*8*2*}*|*b*O&c*      ",
"                                                                        a*9*7*4*2*}***&*d*      ",
"                                                                          5*6*7*8*e*5*|*f*      ",
"                                                                            5*9*7*g*h*i*j*      ",
"                                                                              k*l*m*n*o*        ",
"                                                                                p*}*            ",
"                                                                                                ",
"                                                                                                "};
