/* XPM */
static char * zmhelp_xpm[] = {
"48 48 330 2",
"  	c None",
". 	c #000000",
"+ 	c #040000",
"@ 	c #110000",
"# 	c #180000",
"$ 	c #100000",
"% 	c #0C0000",
"& 	c #500000",
"* 	c #8B0000",
"= 	c #B80000",
"- 	c #CA0000",
"; 	c #D30000",
"> 	c #D80000",
", 	c #D60000",
"' 	c #CC0000",
") 	c #BE0000",
"! 	c #A90000",
"~ 	c #7D0000",
"{ 	c #460000",
"] 	c #0A0000",
"^ 	c #5E0000",
"/ 	c #BD0000",
"( 	c #FE0000",
"_ 	c #FF0000",
": 	c #F90000",
"< 	c #F20000",
"[ 	c #EC0000",
"} 	c #E70000",
"| 	c #E30000",
"1 	c #E10000",
"2 	c #DF0000",
"3 	c #E00000",
"4 	c #E20000",
"5 	c #D90000",
"6 	c #9D0000",
"7 	c #4C0000",
"8 	c #080000",
"9 	c #720000",
"0 	c #F10000",
"a 	c #E60000",
"b 	c #DC0000",
"c 	c #D70000",
"d 	c #D00000",
"e 	c #CD0000",
"f 	c #CB0000",
"g 	c #C90000",
"h 	c #C80000",
"i 	c #C70000",
"j 	c #C60000",
"k 	c #BF0000",
"l 	c #580000",
"m 	c #030000",
"n 	c #4E0000",
"o 	c #EB0000",
"p 	c #F30000",
"q 	c #E80000",
"r 	c #DD0000",
"s 	c #C50000",
"t 	c #C20000",
"u 	c #BC0000",
"v 	c #BB0000",
"w 	c #BA0000",
"x 	c #C00000",
"y 	c #CF0000",
"z 	c #B00000",
"A 	c #390000",
"B 	c #020000",
"C 	c #A30000",
"D 	c #FD0000",
"E 	c #C40000",
"F 	c #B90000",
"G 	c #B50000",
"H 	c #B20000",
"I 	c #AF0000",
"J 	c #AE0000",
"K 	c #AD0000",
"L 	c #B10000",
"M 	c #B30000",
"N 	c #B40000",
"O 	c #B60000",
"P 	c #B70000",
"Q 	c #730000",
"R 	c #010000",
"S 	c #DA0000",
"T 	c #EE0000",
"U 	c #AB0000",
"V 	c #A70000",
"W 	c #A40000",
"X 	c #A20000",
"Y 	c #A50000",
"Z 	c #A60000",
"` 	c #A80000",
" .	c #AA0000",
"..	c #AC0000",
"+.	c #950000",
"@.	c #0B0000",
"#.	c #200000",
"$.	c #E90000",
"%.	c #A10000",
"&.	c #A00101",
"*.	c #A00202",
"=.	c #9B0000",
"-.	c #9C0000",
";.	c #9E0000",
">.	c #A00000",
",.	c #140000",
"'.	c #ED0000",
").	c #FC0000",
"!.	c #9F0000",
"~.	c #9A0000",
"{.	c #B02A2A",
"].	c #BD4E4E",
"^.	c #C25C5C",
"/.	c #C15858",
"(.	c #B94545",
"_.	c #AC2020",
":.	c #970000",
"<.	c #980000",
"[.	c #B73D3D",
"}.	c #DEA6A6",
"|.	c #FFFEFE",
"1.	c #FFFFFF",
"2.	c #FDFAFA",
"3.	c #BA4545",
"4.	c #990000",
"5.	c #840000",
"6.	c #DBA0A0",
"7.	c #FEFDFD",
"8.	c #E7BEBE",
"9.	c #DDA4A4",
"0.	c #EBC9C9",
"a.	c #FCF8F8",
"b.	c #FEFCFC",
"c.	c #E1AFAF",
"d.	c #5F0000",
"e.	c #4D0000",
"f.	c #EA0000",
"g.	c #EDD0D0",
"h.	c #EDCECE",
"i.	c #A30808",
"j.	c #AA1B1B",
"k.	c #F2DCDC",
"l.	c #FEFEFE",
"m.	c #EFD5D5",
"n.	c #940000",
"o.	c #2C0000",
"p.	c #F60000",
"q.	c #DA9D9D",
"r.	c #EFD4D4",
"s.	c #D59090",
"t.	c #920000",
"u.	c #930000",
"v.	c #810000",
"w.	c #700000",
"x.	c #D20000",
"y.	c #AB1D1D",
"z.	c #FCF7F7",
"A.	c #EDCFCF",
"B.	c #960000",
"C.	c #E4B7B7",
"D.	c #F6E8E8",
"E.	c #A61111",
"F.	c #8C0000",
"G.	c #910000",
"H.	c #3C0000",
"I.	c #090000",
"J.	c #D50000",
"K.	c #B73F3F",
"L.	c #D08383",
"M.	c #CC7676",
"N.	c #B33434",
"O.	c #850000",
"P.	c #7B0000",
"Q.	c #050000",
"R.	c #590000",
"S.	c #B94343",
"T.	c #ECCBCB",
"U.	c #C56363",
"V.	c #2E0000",
"W.	c #D40000",
"X.	c #AC2121",
"Y.	c #E2B1B1",
"Z.	c #B63B3B",
"`.	c #8D0000",
" +	c #7E0000",
".+	c #DB0000",
"++	c #CE0000",
"@+	c #D38A8A",
"#+	c #B23232",
"$+	c #E2B2B2",
"%+	c #FBF5F5",
"&+	c #AA1A1A",
"*+	c #8E0000",
"=+	c #770000",
"-+	c #760000",
";+	c #4B0000",
">+	c #C56464",
",+	c #E5BBBB",
"'+	c #ECCDCD",
")+	c #E3B6B6",
"!+	c #B53B3B",
"~+	c #A50D0D",
"{+	c #F7EAEA",
"]+	c #8F0000",
"^+	c #230000",
"/+	c #A10303",
"(+	c #C35F5F",
"_+	c #900000",
":+	c #710000",
"<+	c #F6E7E7",
"[+	c #B73E3E",
"}+	c #780000",
"|+	c #6E0000",
"1+	c #CF7D7D",
"2+	c #BB4848",
"3+	c #6B0000",
"4+	c #510000",
"5+	c #0F0000",
"6+	c #C30000",
"7+	c #AC2222",
"8+	c #FDF9F9",
"9+	c #750000",
"0+	c #690000",
"a+	c #540000",
"b+	c #060000",
"c+	c #160000",
"d+	c #D10000",
"e+	c #C10000",
"f+	c #E9C5C5",
"g+	c #FDFCFC",
"h+	c #EBCBCB",
"i+	c #A50F0F",
"j+	c #830000",
"k+	c #740000",
"l+	c #660000",
"m+	c #530000",
"n+	c #B43535",
"o+	c #D58E8E",
"p+	c #630000",
"q+	c #0E0000",
"r+	c #DA9C9C",
"s+	c #C45F5F",
"t+	c #7F0000",
"u+	c #4A0000",
"v+	c #E7C0C0",
"w+	c #D79494",
"x+	c #A10404",
"y+	c #7C0000",
"z+	c #6A0000",
"A+	c #5B0000",
"B+	c #430000",
"C+	c #A20606",
"D+	c #B02B2B",
"E+	c #890000",
"F+	c #560000",
"G+	c #3A0000",
"H+	c #A30A0A",
"I+	c #F6E6E6",
"J+	c #A91919",
"K+	c #290000",
"L+	c #3E0000",
"M+	c #A20707",
"N+	c #DB9E9E",
"O+	c #DFABAB",
"P+	c #6D0000",
"Q+	c #570000",
"R+	c #650000",
"S+	c #450000",
"T+	c #B63A3A",
"U+	c #B63C3C",
"V+	c #5C0000",
"W+	c #490000",
"X+	c #300000",
"Y+	c #420000",
"Z+	c #8A0000",
"`+	c #670000",
" @	c #520000",
".@	c #440000",
"+@	c #070000",
"@@	c #FDFBFB",
"#@	c #6F0000",
"$@	c #470000",
"%@	c #DEA7A7",
"&@	c #860000",
"*@	c #620000",
"=@	c #4F0000",
"-@	c #400000",
";@	c #190000",
">@	c #EED1D1",
",@	c #790000",
"'@	c #330000",
")@	c #310000",
"!@	c #E1AEAE",
"~@	c #EAC8C8",
"{@	c #3B0000",
"]@	c #B02C2C",
"^@	c #210000",
"/@	c #C15959",
"(@	c #C76969",
"_@	c #2A0000",
":@	c #A30909",
"<@	c #BF5353",
"[@	c #C05555",
"}@	c #A50E0E",
"|@	c #380000",
"1@	c #880000",
"2@	c #A10101",
"3@	c #800000",
"4@	c #680000",
"5@	c #480000",
"6@	c #2D0000",
"7@	c #870000",
"8@	c #6C0000",
"9@	c #360000",
"0@	c #820000",
"a@	c #1E0000",
"b@	c #240000",
"c@	c #7A0000",
"d@	c #5D0000",
"e@	c #150000",
"f@	c #250000",
"g@	c #5A0000",
"h@	c #550000",
"i@	c #3F0000",
"j@	c #280000",
"k@	c #130000",
"l@	c #1B0000",
"m@	c #2F0000",
"n@	c #410000",
"o@	c #340000",
"                                      . . + @ # # $ + . .                                       ",
"                                . % & * = - ; > , ' ) ! ~ { ] .                                 ",
"                          . ] ^ / ( _ : < [ } | 1 2 2 2 3 4 5 6 7 8 .                           ",
"                        + 9 0 _ : a 3 b c ; d e f - g g h i j d > k l m                         ",
"                    . n o _ p q r c d - s t k / u v w v v / / ) x t y z A .                     ",
"                  B C _ D } b ; f E ) F G H z I J K J I z L M N G O P k j Q R                   ",
"                @ S _ T 1 , ' E u O I U V W C X X C C Y Z `  ...J I z L z F +.@.                ",
"              #.T _ $.b y s v M U Z %.&.*.6 =.=.=.-.;.*.&.>.C Y V ` !  .U  .N 6 ,.              ",
"            $ '.).a S e x P K Y >.!.~.~.!.{.].^./.(._.6 =.~.!.>.%.C Y Z Z Z W V :.]             ",
"          B c _ a c - / H ` %.!.!.<.[.}.|.1.1.1.1.1.1.2.}.3.4.!.!.>.%.C C C %.!.V 5.R           ",
"        . >._ } > g ) L Z >.!.6 ;.6.1.1.7.8.9.0.1.1.a.b.1.1.c.*.-.>.!.>.%.>.!.6 ~.!.d..         ",
"        e._ f.5 f u z W !.!.>.;.g.1.1.h.i.:.4.:.j.k.1.l.l.1.1.m.;.>.>.!.!.!.;.=.<.n.6 o.        ",
"      + a p.r ' k L Y !.!.!.~.q.1.b.1.r.-.;.!.>.<._.a.1.l.l.b.1.s.4.!.>.>.!.;.=.<.t.u.v.B       ",
"    . w._ 3 x.t G V >.!.>.6 y.z.1.1.l.1.A.6 >.!.>.B.C.1.l.l.1.1.D.E.;.!.>.!.;.=.:.t.F.G.H..     ",
"    I.} o J.i F ..>.!.>.>.-.K.1.l.1.l.l.1.L.~.>.>.~.M.1.l.l.1.1.1.N.-.!.>.>.!.-.<.t.F.O.P.Q.    ",
"    R._ 2 e k L W !.>.!.>.-.S.1.l.1.l.1.1.T.B.>.>.=.U.1.l.l.1.l.1.(.-.>.>.!.>.;.4.u.F.5.O.V.    ",
"  . H '.W.s P  .>.!.>.!.!.6 X.7.1.1.1.l.1.Y.:.!.!.~.M.1.l.l.|.1.1.Z.-.>.!.>.>.!.=.n.`.5. +R..   ",
"  @.0 .+++k L W !.!.>.>.>.!.=.@+1.1.1.1.1.#+6 >.>.B.$+1.1.l.1.1.%+&+6 !.>.!.>.>.6 B.*+5.=+-+Q.  ",
"  ;+p W.i = ..%.!.>.!.!.!.>.&.4.>+,+'+)+!+~.>.!.6 ~+{+1.1.l.l.1.6.4.!.!.!.!.!.>.!.:.]+5.=+-+^+  ",
". 5.f.d t N ` !.>.>.>.!.!.!.!./+~.6 /+=.-.*.!.>.4.(+1.1.l.l.1.7.~+!.>.>.!.>.>.!.>.4._+5.=+:+H.. ",
". K 4 ' / z W !.>.>.>.>.>.>.>.>.>.!.!.!.>.>.>.&.-.<+1.l.l.1.1.[+~.>.!.>.>.>.>.!.>.~.G.O.}+|+e.. ",
"+ v .+i w K X !.>.!.!.>.>.!.!.>.!.>.!.!.>.>.>.~.1+1.b.l.1.1.2+4.>.!.!.!.>.!.!.!.>.-.G.O.=+3+4+R ",
"5+6+, E P U X !.>.!.>.>.>.!.!.>.>.>.!.>.>.>.-.7+1.1.l.1.8+[.4.&.>.>.!.>.>.!.!.!.>.6 G.O.9+0+a+b+",
"c+i d+e+N ! %.!.>.>.>.>.>.>.>.>.>.>.!.>.>./+~.f+1.g+1.h+i+~.>.!.>.>.!.>.>.>.>.!.>.6 G.j+k+l+m+I.",
"c+E ++) H ! X !.>.>.>.>.>.>.!.>.>.>.!.>.>.6 n+1.l.1.o+6 6 >.!.>.>.>.!.>.>.>.>.!.>.6 _+v.:+p+& 8 ",
"q+F ' u L ` %.!.>.>.>.>.>.>.!.>.>.>.!.>.!.<.r+1.1.s+<.;.>.>.!.>.>.>.!.>.>.>.>.!.>.-.]+t+|+^ u+Q.",
"+ K - w z ` %.!.>.>.>.>.>.>.!.>.>.>.!.>.!.;.v+1.w+<.x+!.>.>.!.>.>.>.!.>.>.>.>.!.>.=.F.y+z+A+B+R ",
". 4.- = z ` X !.>.>.>.>.>.>.>.>.>.>.!.>.;.C+m.1.D+-.!.>.>.>.>.>.>.>.!.>.>.>.>.!.>.<.E+}+l+F+G+. ",
". :+g P I ` C !.>.>.>.>.!.>.!.>.>.>.!.>.;.H+I+7.J+6 !.>.!.>.!.>.>.>.!.>.!.>.>.>.>.n.O.Q d.4+K+. ",
"  L+g M I ` W >.!.!.!.>.>.!.!.>.!.>.!.!.!.M+N+O+i+;.!.>.>.!.!.>.!.>.!.!.>.!.!.>.;.]+t+P+Q+e.c+  ",
"  I.x L K ` W >.!.!.>.>.!.!.!.>.>.>.!.!.>.*.~.4.&.&.!.>.!.!.!.>.>.>.!.>.!.!.>.>.~.E+}+R+n S+B   ",
"  . E+= ..V C %.!.!.>.>.!.!.!.>.>.>.>.>.=.;.T+U+!.~.!.>.!.!.!.>.>.>.!.>.!.>.>.!.u.v.:+V+W+X+.   ",
"    Y+/ U Z C >.!.!.>.!.!.!.!.!.>.!.>.=.S.2.1.1.l.].-.!.!.!.!.!.>.!.!.>.>.!.>.~.Z+}+`+ @.@c+    ",
"    +@Z U W X >.!.>.>.!.>.!.>.>.>.>.;._.1.1.@@g+1.1.N.6 >.!.>.>.>.>.!.>.!.>.!.G.v.#@V+$@A B     ",
"    . e.M X >.;.;.!.>.>.!.!.!.>.!.>.<.%@1.l.l.1.l.1.v+4.!.!.!.>.!.>.!.!.>.!.:.&@9+*@=@-@;@.     ",
"      m <.Y ;.-.6 6 ;.>.>.!.!.>.>.>.B.>@1.1.1.1.1.1.{+<.!.>.!.>.>.>.!.>.%.~.* ,@z+F+B+'@.       ",
"        )@ .~.~.~.~.-.!.>.>.!.>.>.>.<.!@1.l.1.1.l.1.~@4.>.>.>.>.>.!.>.%.=.F.~ 3+A+S+{@$         ",
"        . *@6 +.+.B.<.=.;.>.>.!.>.!.6 ]@1.1.g+g+l.1.(.-.>.!.!.>.!.>.>.~.F.y+P+A+u+A ^@.         ",
"          .  +~._+G.u.B.4.6 >.>.>.>.>.~./@1.1.1.1.(@-.!.>.!.>.>.>.>.:.* y+P+^ ;+H._@.           ",
"            8 j+`.* `.]+t.+.~.6 >.>.>.!.~.:@<@[@}@~.!.>.!.>.>.>.~.G.O.,@3+A+u+|@V.m             ",
"              @  +F.O.1@* *+G.+.4.6 !.>.>.>.-.-.>.2@>.>.>.!.~.n.Z+3@k+4@R.5@{@6@Q.              ",
"                I.P+j+ +v.5.7@Z+*+G.+.<.=.6 6 ;.;.6 -.4.n.*+7@3@-+8@d. @Y+9@K+m                 ",
"                  R n 3@P.,@~ 3@j+O.1@* `.]+]+_+]+*+* 7@0@y+9+P+p+l u+L+9@a@.                   ",
"                    . b@4@-+:+9 k+=+,@P.y+ + +~ y+c@=+9 P+`+d.F+;+-@A o.q+.                     ",
"                        R X+p+8@4@R+4@z+3+8@3+z+4@R+*@d@Q+=@{ -@G+X+e@.                         ",
"                          . + f@$@^ d.d@V+g@g@Q+h@ @n W+B+i@A j@k@B .                           ",
"                                . + l@m@{@-@n@-@i@G+o@6@#.@ B .                                 ",
"                                      . . R Q.+@+@+ R . .                                       "};
