/* XPM */
static char *buttons_zurueck_1[] = {
/* columns rows colors chars-per-pixel */
"40 40 5 1",
"  c #E1001B",
". c gray100",
"X c #3C3B3B",
"o c #1A161B",
"O c #AF061A",
/* pixels */
"XX......................................",
"XX......................................",
"XX..                               OOO..",
"XX..                               OOO..",
"XX..                               OOO..",
"XX..                               OOO..",
"XX..                               OOO..",
"XX..                               OOO..",
"XX..                               OOO..",
"XX..oo............                 OOO..",
"XX..oo............                 OOO..",
"XX..oo............                 OOO..",
"XX..    ooo.......                 OOO..",
"XX..   ooo....o...         ooo.... OOO..",
"XX..  ooo....oo...          ooo....OOO..",
"XX.. ooo....ooo...           ooo....OO..",
"XX.. ooo... ooo...            ooo...OO..",
"XX.. ooo... ooo...            ooo...OO..",
"XX.. ooo... ooo...            ooo...OO..",
"XX.. ooo... ooo...            ooo...OO..",
"XX.. ooo... ooo...            ooo...OO..",
"XX.. ooo...                   ooo...OO..",
"XX.. ooo...                   ooo...OO..",
"XX.. ooo...                   ooo...OO..",
"XX.. ooo....                 ooo....OO..",
"XX.. ooo.....               ooo.....OO..",
"XX..  ooo.....             ooo.....OOO..",
"XX..   ooo.....           ooo..... OOO..",
"XX..    ooo.....         ooo.....  OOO..",
"XX..     ooo.....       ooo.....   OOO..",
"XX..      ooo.....     ooo.....    OOO..",
"XX..       ooo................     OOO..",
"XX..        ooo..............      OOO..",
"XX..         ooo............       OOO..",
"XX..                               OOO..",
"XX..                               OOO..",
"XX......................................",
"XX......................................",
"XXXXXXXXXXXXXXXXXXXXXXXXXXXXXXXXXXXXXXXX",
"XXXXXXXXXXXXXXXXXXXXXXXXXXXXXXXXXXXXXXXX"
};
