/* XPM */
static char *buttons_leer_2[] = {
/* columns rows colors chars-per-pixel */
"120 40 3 1",
"  c #716F6F",
". c gray100",
"X c #3C3B3B",
/* pixels */
"......................................................................................................................XX",
"......................................................................................................................XX",
"..                                                                                                                 X..XX",
"..                                                                                                                 X..XX",
"..                                                                                                                 X..XX",
"..                                                                                                                 X..XX",
"..                                                                                                                 X..XX",
"..                                                                                                                 X..XX",
"..                                                                                                                 X..XX",
"..                                                                                                                 X..XX",
"..                                                                                                                 X..XX",
"..                                                                                                                 X..XX",
"..                                                                                                                 X..XX",
"..                                                                                                                 X..XX",
"..                                                                                                                 X..XX",
"..                                                                                                                 X..XX",
"..                                                                                                                 X..XX",
"..                                                                                                                 X..XX",
"..                                                                                                                 X..XX",
"..                                                                                                                 X..XX",
"..                                                                                                                 X..XX",
"..                                                                                                                 X..XX",
"..                                                                                                                 X..XX",
"..                                                                                                                 X..XX",
"..                                                                                                                 X..XX",
"..                                                                                                                 X..XX",
"..                                                                                                                 X..XX",
"..                                                                                                                 X..XX",
"..                                                                                                                 X..XX",
"..                                                                                                                 X..XX",
"..                                                                                                                 X..XX",
"..                                                                                                                 X..XX",
"..                                                                                                                 X..XX",
"..                                                                                                                 X..XX",
"..                                                                                                                 X..XX",
"..                                                                                                                 X..XX",
"......................................................................................................................XX",
"......................................................................................................................XX",
"XXXXXXXXXXXXXXXXXXXXXXXXXXXXXXXXXXXXXXXXXXXXXXXXXXXXXXXXXXXXXXXXXXXXXXXXXXXXXXXXXXXXXXXXXXXXXXXXXXXXXXXXXXXXXXXXXXXXXXXX",
"XXXXXXXXXXXXXXXXXXXXXXXXXXXXXXXXXXXXXXXXXXXXXXXXXXXXXXXXXXXXXXXXXXXXXXXXXXXXXXXXXXXXXXXXXXXXXXXXXXXXXXXXXXXXXXXXXXXXXXXX"
};
