/* XPM */
static char *buttons_deutsch_2[] = {
/* columns rows colors chars-per-pixel */
"120 40 95 2",
"   c #716F6F",
".  c gray100",
"X  c #3C3B3B",
"o  c #FDFBFB",
"O  c #010101",
"+  c #B2B0B0",
"@  c #E1DFDF",
"#  c gray15",
"$  c #3D3C3C",
"%  c #CECCCC",
"&  c #BDBBBB",
"*  c #4C4A4A",
"=  c #F4F2F2",
"-  c #5B5959",
";  c #8A8989",
":  c gray9",
">  c gray27",
",  c #EAE8E8",
"<  c #BCBABA",
"1  c #1F1E1E",
"2  c #646363",
"3  c #444343",
"4  c #353434",
"5  c #5A5959",
"6  c gray3",
"7  c #555454",
"8  c #A09E9E",
"9  c gray7",
"0  c #7A7878",
"q  c #6A6868",
"w  c #777676",
"e  c #101010",
"r  c #878686",
"t  c #848282",
"y  c #A9A8A8",
"u  c #666565",
"i  c #C5C3C3",
"p  c #BAB8B8",
"a  c #CBC9C9",
"s  c #D8D6D6",
"d  c #8D8B8B",
"f  c #2E2D2D",
"g  c #232222",
"h  c #B0AFAF",
"j  c #969494",
"k  c #393939",
"l  c #A9A7A7",
"z  c #626060",
"x  c #D5D3D3",
"c  c #7A7979",
"v  c #878585",
"b  c gray20",
"n  c #F3F1F1",
"m  c #535252",
"M  c #F2F0F0",
"N  c #F1EFEF",
"B  c #CCCACA",
"V  c #828181",
"C  c #7F7E7E",
"Z  c #ECEAEA",
"A  c #C0BEBE",
"S  c #E6E4E4",
"D  c #D2D0D0",
"F  c #7C7B7B",
"G  c #E5E3E3",
"H  c #BEBCBC",
"J  c #817F7F",
"K  c #AEADAD",
"L  c #F0EEEE",
"P  c #9C9B9B",
"I  c #444444",
"U  c #CFCDCD",
"Y  c #8F8D8D",
"T  c #B3B1B1",
"R  c #DCDBDB",
"E  c #3F3F3F",
"W  c #646262",
"Q  c #C4C2C2",
"!  c #434242",
"~  c #737272",
"^  c #EDEBEB",
"/  c #DDDBDB",
"(  c #5F5E5E",
")  c #DBDADA",
"_  c #B8B6B6",
"`  c #6E6D6D",
"'  c #9B9999",
"]  c #A5A3A3",
"[  c gray31",
"{  c #181818",
"}  c #999898",
"|  c #6A6969",
" . c #E7E5E5",
".. c #C6C4C4",
"X. c #515151",
/* pixels */
". . . . . . . . . . . . . . . . . . . . . . . . . . . . . . . . . . . . . . . . . . . . . . . . . . . . . . . . . . . . . . . . . . . . . . . . . . . . . . . . . . . . . . . . . . . . . . . . . . . . . . . . . . . . . . . . . . . . . . X X ",
". . . . . . . . . . . . . . . . . . . . . . . . . . . . . . . . . . . . . . . . . . . . . . . . . . . . . . . . . . . . . . . . . . . . . . . . . . . . . . . . . . . . . . . . . . . . . . . . . . . . . . . . . . . . . . . . . . . . . . X X ",
". .                                                                                                                                                                                                                                   X . . X X ",
". .                                                                                                                                                                                                                                   X . . X X ",
". .                                                                                                                                                                                                                                   X . . X X ",
". .                                                                                                                                                                                                                                   X . . X X ",
". .                                                                                                                                                                                                                                   X . . X X ",
". .                                                                                                                                                                                                                                   X . . X X ",
". .                                                                                                                                                                                                                                   X . . X X ",
". .           $ O w o o o o o o o n < 0                                                               3 # l %                                                   # O & o +                                                             X . . X X ",
". .           $ O w o o o o o o o o o , d                                                           - O > o @                                                   # O & o +                                                             X . . X X ",
". .           $ O ; o %       3 : u % o , 0                                                         - O > o @                                                   # O & o +                                                             X . . X X ",
". .           $ O ; o %           : O x o <                                                         - O > o @                                                   # O & o +                                                             X . . X X ",
". .           $ O ; o %           * O 5 o =                                                         - O > o @                                                   # O & o +                                                             X . . X X ",
". .           $ O ; o %             e O S o j       * 1 7 p o o @ l       # O & o +     * O 5 o = # O y o o o o @   4 O r o o o @ l           4 O r o o o % d   # O & o V 7 a o o s t                                                 X . . X X ",
". .           $ O ; o %             f O h o +     $ O w o o o o o o <     # O & o +     * O 5 o = # O y o o o o @ : O a o o o o o o +     q : 9 a o o o o o o j # O T o p o o o o o = 0                                               X . . X X ",
". .           $ O ; o %             $ O ; o %   m O I o o % 3 6 u N o 8   # O & o +     * O 5 o =   - O > o @   $ O V o @ d $ O c o = 0   1 O H o , ' 1 9 A o @ # O y o o s W 6 7 L o +                                               X . . X X ",
". .           $ O ; o %             3 O F o %   1 O Q o %     3 O ~ o @   # O & o +     * O 5 o =   - O > o @   4 O 8 o <     e O G o 8 - O b o o d   q 6 9 M o X.O K o ,     $ O v o s                                               X . . X X ",
". .           $ O ; o %             * O ` o %   6 O M o j       6 O n o t # O & o +     * O 5 o =   - O > o @   $ O C o , <             $ O v o s               # O _ o i     * O 2 o @                                               X . . X X ",
". .           $ O ; o %             $ O ; o % - O k o =         1 O % o 8 # O & o +     * O 5 o =   - O > o @   q 6 9 Z o o o  .< d     f O h o +               # O & o +     * O 2 o @                                               X . . X X ",
". .           $ O ; o %             $ O Y o i * O 7 o o o o o o o o o o l # O & o +     * O 5 o =   - O > o @     z 1 g p o o o o o %   # O & o +               # O & o +     * O 2 o @                                               X . . X X ",
". .           $ O ; o %             f O h o + * O 7 o o o o o o o o o o + # O & o +     * O 5 o =   - O > o @           4 # r y o o o 8 # O & o +               # O & o +     * O 2 o @                                               X . . X X ",
". .           $ O ; o %             e O S o j m O [ o ,                   # O & o +     3 O | o =   - O > o @                 1 O ..o i f O h o +               # O & o +     * O 2 o @                                               X . . X X ",
". .           $ O ; o %           * O ( o ,   z O g o o t                 # O & o +     $ O c o =   - O > o @                 $ O ; o % $ O v o s       1 O B o F O & o +     * O 2 o @                                               X . . X X ",
". .           $ O ; o %           : O x o <     : O x o <     z 6 g n o t 4 O } o %     : O B o =   - O E o ,   e O G o 8     4 O P o i - O k o = t   - O b o o ! O & o +     * O 2 o @                                               X . . X X ",
". .           $ O ; o %       $ : w U o @       * O 7 o o < - : b D o %   3 O u o o ] 1 { p ^ o =   - O k o = 0 $ O C o , 8 3 6 u N o 8   1 O A o @ J : g D o % # O & o +     * O 2 o @                                               X . . X X ",
". .           $ O w o o o o o o o o o , t         4 O r o o o o o o , 0     : O a o o o o o c o =     6 O Z o o , : O a o o o o o o i     q e 9 ) o o o o o @ 0 # O & o +     * O 2 o @                                               X . . X X ",
". .           $ O w o o o o o o o @ <               3 1 u p o o o <         q # 9 y o o / 7 k o =     * e 7 R o =   4 O r o o o @ +         q 4 9 r o o o <     # O & o +     * O 2 o @                                               X . . X X ",
". .                                                                                                                                                                                                                                   X . . X X ",
". .                                                                                                                                                                                                                                   X . . X X ",
". .                                                                                                                                                                                                                                   X . . X X ",
". .                                                                                                                                                                                                                                   X . . X X ",
". .                                                                                                                                                                                                                                   X . . X X ",
". .                                                                                                                                                                                                                                   X . . X X ",
". .                                                                                                                                                                                                                                   X . . X X ",
". .                                                                                                                                                                                                                                   X . . X X ",
". . . . . . . . . . . . . . . . . . . . . . . . . . . . . . . . . . . . . . . . . . . . . . . . . . . . . . . . . . . . . . . . . . . . . . . . . . . . . . . . . . . . . . . . . . . . . . . . . . . . . . . . . . . . . . . . . . . . . . X X ",
". . . . . . . . . . . . . . . . . . . . . . . . . . . . . . . . . . . . . . . . . . . . . . . . . . . . . . . . . . . . . . . . . . . . . . . . . . . . . . . . . . . . . . . . . . . . . . . . . . . . . . . . . . . . . . . . . . . . . . X X ",
"X X X X X X X X X X X X X X X X X X X X X X X X X X X X X X X X X X X X X X X X X X X X X X X X X X X X X X X X X X X X X X X X X X X X X X X X X X X X X X X X X X X X X X X X X X X X X X X X X X X X X X X X X X X X X X X X X X X X X X X X ",
"X X X X X X X X X X X X X X X X X X X X X X X X X X X X X X X X X X X X X X X X X X X X X X X X X X X X X X X X X X X X X X X X X X X X X X X X X X X X X X X X X X X X X X X X X X X X X X X X X X X X X X X X X X X X X X X X X X X X X X X X "
};
