/* XPM */
static char *buttons_info_1[] = {
/* columns rows colors chars-per-pixel */
"40 40 5 1",
"  c #E1001A",
". c gray100",
"X c #3C3B3B",
"o c #AF061A",
"O c black",
/* pixels */
"XX......................................",
"XX......................................",
"XX..                               ooo..",
"XX..                               ooo..",
"XX..                               ooo..",
"XX..           OOO......           ooo..",
"XX..           OOO......           ooo..",
"XX..           OOO......           ooo..",
"XX..           OOO......           ooo..",
"XX..           OOO......           ooo..",
"XX..                               ooo..",
"XX..                               ooo..",
"XX..                               ooo..",
"XX..           OOO......           ooo..",
"XX..           OOO......           ooo..",
"XX..           OOO......           ooo..",
"XX..           OOO......           ooo..",
"XX..           OOO......           ooo..",
"XX..           OOO......           ooo..",
"XX..           OOO......           ooo..",
"XX..           OOO......           ooo..",
"XX..           OOO......           ooo..",
"XX..           OOO......           ooo..",
"XX..           OOO......           ooo..",
"XX..           OOO......           ooo..",
"XX..           OOO......           ooo..",
"XX..           OOO......           ooo..",
"XX..           OOO......           ooo..",
"XX..           OOO......           ooo..",
"XX..           OOO......           ooo..",
"XX..           OOO......           ooo..",
"XX..           OOO......           ooo..",
"XX..           OOO......           ooo..",
"XX..                               ooo..",
"XX..                               ooo..",
"XX..                               ooo..",
"XX......................................",
"XX......................................",
"XXXXXXXXXXXXXXXXXXXXXXXXXXXXXXXXXXXXXXXX",
"XXXXXXXXXXXXXXXXXXXXXXXXXXXXXXXXXXXXXXXX"
};
