/* XPM */
static char *buttons_pause_2[] = {
/* columns rows colors chars-per-pixel */
"40 40 4 1",
"  c #716F6F",
". c gray100",
"X c #3C3B3B",
"o c #1A161B",
/* pixels */
"......................................XX",
"......................................XX",
"..                                 X..XX",
"..                                 X..XX",
"..                                 X..XX",
"..                                 X..XX",
"..                                 X..XX",
"..                                 X..XX",
"..      o.......     o.......      X..XX",
"..      o.......     o.......      X..XX",
"..      o.......     o.......      X..XX",
"..      o.......     o.......      X..XX",
"..      o.......     o.......      X..XX",
"..      o.......     o.......      X..XX",
"..      o.......     o.......      X..XX",
"..      o.......     o.......      X..XX",
"..      o.......     o.......      X..XX",
"..      o.......     o.......      X..XX",
"..      o.......     o.......      X..XX",
"..      o.......     o.......      X..XX",
"..      o.......     o.......      X..XX",
"..      o.......     o.......      X..XX",
"..      o.......     o.......      X..XX",
"..      o.......     o.......      X..XX",
"..      o.......     o.......      X..XX",
"..      o.......     o.......      X..XX",
"..      o.......     o.......      X..XX",
"..      o.......     o.......      X..XX",
"..      o.......     o.......      X..XX",
"..      o.......     o.......      X..XX",
"..                                 X..XX",
"..                                 X..XX",
"..                                 X..XX",
"..                                 X..XX",
"..                                 X..XX",
"..                                 X..XX",
"......................................XX",
"......................................XX",
"XXXXXXXXXXXXXXXXXXXXXXXXXXXXXXXXXXXXXXXX",
"XXXXXXXXXXXXXXXXXXXXXXXXXXXXXXXXXXXXXXXX"
};
