/* XPM */
static char *buttons_verkleinern_1[] = {
/* columns rows colors chars-per-pixel */
"40 40 5 1",
"  c gray100",
". c #E1001B",
"X c #3C3B3B",
"o c #AF061A",
"O c #1A161B",
/* pixels */
"XX                                      ",
"XX                                      ",
"XX  .................O.. ..........ooo  ",
"XX  .................OO.  .........ooo  ",
"XX  .................OOO   ........ooo  ",
"XX  .................OOO    .......ooo  ",
"XX  .................OOO     ......ooo  ",
"XX  .................OOO      .....ooo  ",
"XX  .................OOO       ....ooo  ",
"XX  .................OOO        ...ooo  ",
"XX  .................OOO         ..ooo  ",
"XX  .................OOO          .ooo  ",
"XX  .................OOO           ooo  ",
"XX  .................OOO            oo  ",
"XX  .................OOO             o  ",
"XX  .................OOO                ",
"XX                      ...........ooo  ",
"XX                      ...........ooo  ",
"XX                      ...........ooo  ",
"XX                      ...........ooo  ",
"XX                      ...........ooo  ",
"XX                      ...........ooo  ",
"XX                      ...........ooo  ",
"XX                      ...........ooo  ",
"XX                      ...........ooo  ",
"XX                      ...........ooo  ",
"XX                      ...........ooo  ",
"XX                      ...........ooo  ",
"XX                      ...........ooo  ",
"XX                      ...........ooo  ",
"XX                      ...........ooo  ",
"XX                      ...........ooo  ",
"XX                      ...........ooo  ",
"XX                      ...........ooo  ",
"XX                      ...........ooo  ",
"XX                      ...........ooo  ",
"XX                                      ",
"XX                                      ",
"XXXXXXXXXXXXXXXXXXXXXXXXXXXXXXXXXXXXXXXX",
"XXXXXXXXXXXXXXXXXXXXXXXXXXXXXXXXXXXXXXXX"
};
