/* XPM */
static char *buttons_schrittweise_1[] = {
/* columns rows colors chars-per-pixel */
"40 40 5 1",
"  c gray100",
". c #E1001B",
"X c #3C3B3B",
"o c #1A161B",
"O c #AF071B",
/* pixels */
"XX                                      ",
"XX                                      ",
"XX  ...............................OOO  ",
"XX  ...............................OOO  ",
"XX  .o.. ...........o.. ...........OOO  ",
"XX  .oo.  ..........oo.  ..........OOO  ",
"XX  .ooo   .........ooo   .........OOO  ",
"XX  .ooo    ........ooo    ........OOO  ",
"XX  .ooo     .......ooo     .......OOO  ",
"XX  .ooo      ......ooo      ......OOO  ",
"XX  .ooo       .....ooo       .....OOO  ",
"XX  .ooo        ....ooo        ....OOO  ",
"XX  .ooo         ...ooo         ...OOO  ",
"XX  .ooo          ..ooo          ..OOO  ",
"XX  .ooo           .ooo           .OOO  ",
"XX  .ooo            ooo            OOO  ",
"XX  .ooo             oo             OO  ",
"XX  .ooo              o              O  ",
"XX  .ooo                                ",
"XX  .ooo              o              O  ",
"XX  .ooo             oo             OO  ",
"XX  .ooo            ooo            OOO  ",
"XX  .ooo           .ooo           .OOO  ",
"XX  .ooo          ..ooo          ..OOO  ",
"XX  .ooo         ...ooo         ...OOO  ",
"XX  .ooo        ....ooo        ....OOO  ",
"XX  .ooo       .....ooo       .....OOO  ",
"XX  .ooo      ......ooo      ......OOO  ",
"XX  .ooo     .......ooo     .......OOO  ",
"XX  .ooo    ........ooo    ........OOO  ",
"XX  .ooo   .........ooo   .........OOO  ",
"XX  .oo.  ..........oo.  ..........OOO  ",
"XX  .o.. ...........o.. ...........OOO  ",
"XX  ...............................OOO  ",
"XX  ...............................OOO  ",
"XX  ...............................OOO  ",
"XX                                      ",
"XX                                      ",
"XXXXXXXXXXXXXXXXXXXXXXXXXXXXXXXXXXXXXXXX",
"XXXXXXXXXXXXXXXXXXXXXXXXXXXXXXXXXXXXXXXX"
};
