/* XPM */
static char *buttons_pause_1[] = {
/* columns rows colors chars-per-pixel */
"40 40 5 1",
"  c #E1001B",
". c gray100",
"X c #3C3B3B",
"o c #1A161B",
"O c #AF071B",
/* pixels */
"XX......................................",
"XX......................................",
"XX..                               OOO..",
"XX..                               OOO..",
"XX..                               OOO..",
"XX..                               OOO..",
"XX..                               OOO..",
"XX..                               OOO..",
"XX..    ooo.......   ooo.......    OOO..",
"XX..    ooo.......   ooo.......    OOO..",
"XX..    ooo.......   ooo.......    OOO..",
"XX..    ooo.......   ooo.......    OOO..",
"XX..    ooo.......   ooo.......    OOO..",
"XX..    ooo.......   ooo.......    OOO..",
"XX..    ooo.......   ooo.......    OOO..",
"XX..    ooo.......   ooo.......    OOO..",
"XX..    ooo.......   ooo.......    OOO..",
"XX..    ooo.......   ooo.......    OOO..",
"XX..    ooo.......   ooo.......    OOO..",
"XX..    ooo.......   ooo.......    OOO..",
"XX..    ooo.......   ooo.......    OOO..",
"XX..    ooo.......   ooo.......    OOO..",
"XX..    ooo.......   ooo.......    OOO..",
"XX..    ooo.......   ooo.......    OOO..",
"XX..    ooo.......   ooo.......    OOO..",
"XX..    ooo.......   ooo.......    OOO..",
"XX..    ooo.......   ooo.......    OOO..",
"XX..    ooo.......   ooo.......    OOO..",
"XX..    ooo.......   ooo.......    OOO..",
"XX..    ooo.......   ooo.......    OOO..",
"XX..                               OOO..",
"XX..                               OOO..",
"XX..                               OOO..",
"XX..                               OOO..",
"XX..                               OOO..",
"XX..                               OOO..",
"XX......................................",
"XX......................................",
"XXXXXXXXXXXXXXXXXXXXXXXXXXXXXXXXXXXXXXXX",
"XXXXXXXXXXXXXXXXXXXXXXXXXXXXXXXXXXXXXXXX"
};
