/* XPM */
static char *buttons_english_2[] = {
/* columns rows colors chars-per-pixel */
"120 40 75 1",
"  c #716F6F",
". c gray100",
"X c #3C3B3B",
"o c #FDFBFB",
"O c #030000",
"+ c #5B5959",
"@ c #F4F2F2",
"# c #3B3838",
"$ c #A09E9E",
"% c #191616",
"& c #B2B0B0",
"* c #4C4A4A",
"= c #DAD8D8",
"- c #282525",
"; c #E1DFDF",
": c #BDBBBB",
"> c #656262",
", c #BCBABA",
"< c #353232",
"1 c #363434",
"2 c #565454",
"3 c #0A0707",
"4 c #ECEAEA",
"5 c #120F0F",
"6 c #201E1E",
"7 c #E5E3E3",
"8 c #CECCCC",
"9 c #BAB8B8",
"0 c #3E3B3B",
"q c #A9A7A7",
"w c #CBC9C9",
"e c #7A7878",
"r c #888686",
"t c #D8D6D6",
"y c #EAE8E8",
"u c #2F2C2C",
"i c #F2F0F0",
"p c #242121",
"a c #8D8B8B",
"s c #676464",
"d c #C5C3C3",
"f c #ADABAB",
"g c #605E5E",
"h c #DCDADA",
"j c #D1CFCF",
"k c #454343",
"l c #807D7D",
"z c #474444",
"x c #AAA8A8",
"c c #141111",
"v c #626060",
"b c #999797",
"n c #969494",
"m c #6A6868",
"M c #848282",
"N c #B6B4B4",
"B c #AAA7A7",
"V c #E7E5E5",
"C c #C2C0C0",
"Z c #C4C2C2",
"A c #8B8989",
"S c #5E5C5C",
"D c #F1EFEF",
"F c #9A9797",
"G c #545151",
"H c #D2D0D0",
"J c #646262",
"K c #EFEDED",
"L c #9D9A9A",
"P c #C0BEBE",
"I c #838181",
"U c #464343",
"Y c #7B7979",
"T c #D4D2D2",
"R c #C6C4C4",
/* pixels */
"......................................................................................................................XX",
"......................................................................................................................XX",
"..                                                                                                                 X..XX",
"..                                                                                                                 X..XX",
"..                                                                                                                 X..XX",
"..                                                                                                                 X..XX",
"..                                                                                                                 X..XX",
"..                                                                                                                 X..XX",
"..                                                                                                                 X..XX",
"..     *O2ooooooooooo$                          +O#o@ -O:o&            +O#o@                                       X..XX",
"..     *O2ooooooooooo$                          +O#o@ -O:o&            +O#o@                                       X..XX",
"..     *O>o;                                    +O#o@                  +O#o@                                       X..XX",
"..     *O>o;                                    +O#o@                  +O#o@                                       X..XX",
"..     *O>o;                                    +O#o@                  +O#o@                                       X..XX",
"..     *O>o;          +OzoTOboo@&    +6<9ooZ<Co$+O#o@ -O:o&  1Orooo;q  +O#oKOboo@&                                 X..XX",
"..     *O>o;          +Ozow9ooooo&  +3<4oooo4=o$+O#o@ -O:o& %Owoooooo& +O#o4wooooo,                                X..XX",
"..     *O>o;          +O<oo@q6O,o@  %OjotS3s4oo$+O#o@ -O:o&0OIo;a0OYo@e+O<ooo&6O,o@                                X..XX",
"..     *O2oooooooooo8 +O<oo& m3cion*Ogoye *O2oo$+O#o@ -O:o&1O$o,  5O7o$+O<oo&  3Oion                               X..XX",
"..     *O2oooooooooo8 +O<ooM  5O7o$uOfo,   5O7o$+O#o@ -O:o&0Oloy,      +O<ooM  %O=o$                               X..XX",
"..     *O>o;          +O#o@   %O=o$%Otoq   uONo$+O#o@ -O:o&m3c4oooV,a  +O#o@   %O=o$                               X..XX",
"..     *O>o;          +O#o@   %O=o$5O7o$   1Oxo$+O#o@ -O:o& v6p9ooooo8 +O#o@   %O=o$                               X..XX",
"..     *O>o;          +O#o@   %O=o$5O7o$   1Oxo$+O#o@ -O:o&    1-rBooo$+O#o@   %O=o$                               X..XX",
"..     *O>o;          +O#o@   %O=o$%Otoq   uONo$+O#o@ -O:o&       6ORod+O#o@   %O=o$                               X..XX",
"..     *O>o;          +O#o@   %O=o$uOfo,   %O=o$+O#o@ -O:o&       0OAo8+O#o@   %O=o$                               X..XX",
"..     *O>o;          +O#o@   %O=o$*Ogoye GOUoo$+O#o@ -O:o&5O7o$  1OLod+O#o@   %O=o$                               X..XX",
"..     *O>o;          +O#o@   %O=o$ %OjotJ52hoo$+O#o@ -O:o&0Oloy$k3sDo$+O#o@   %O=o$                               X..XX",
"..     *O2ooooooooooo,+O#o@   %O=o$ +3<4ooooh7o$+O#o@ -O:o& %Owooooood +O#o@   %O=o$                               X..XX",
"..     *O2ooooooooooo,+O#o@   %O=o$  v6p9ooPp=o$+O#o@ -O:o&  1Orooo;&  +O#o@   %O=o$                               X..XX",
"..                                         3Oioa                                                                   X..XX",
"..                                 1OFo8  +O#o@                                                                    X..XX",
"..                                 kOsoo&*%2Ho8                                                                    X..XX",
"..                                  6O9oooooo;e                                                                    X..XX",
"..                                   13r4oo@,                                                                      X..XX",
"..                                                                                                                 X..XX",
"..                                                                                                                 X..XX",
"..                                                                                                                 X..XX",
"......................................................................................................................XX",
"......................................................................................................................XX",
"XXXXXXXXXXXXXXXXXXXXXXXXXXXXXXXXXXXXXXXXXXXXXXXXXXXXXXXXXXXXXXXXXXXXXXXXXXXXXXXXXXXXXXXXXXXXXXXXXXXXXXXXXXXXXXXXXXXXXXXX",
"XXXXXXXXXXXXXXXXXXXXXXXXXXXXXXXXXXXXXXXXXXXXXXXXXXXXXXXXXXXXXXXXXXXXXXXXXXXXXXXXXXXXXXXXXXXXXXXXXXXXXXXXXXXXXXXXXXXXXXXX"
};
