/* XPM */
static char *buttons_stift_1[] = {
/* columns rows colors chars-per-pixel */
"40 40 5 1",
"  c #E1001B",
". c gray100",
"X c #3C3B3B",
"o c #020202",
"O c #AF071B",
/* pixels */
"XX......................................",
"XX......................................",
"XX..                               OOO..",
"XX..                               OOO..",
"XX..                               OOO..",
"XX..                               OOO..",
"XX..                         ooo.ooOOO..",
"XX..                      oooo...ooOOO..",
"XX..                     ooo....o..OOO..",
"XX..                    ooo.......oOOO..",
"XX..                   ooo........ OOO..",
"XX..                  ooo... ..... OOO..",
"XX..                 ooo.o........ OOO..",
"XX..                ooo.o . .....  OOO..",
"XX..               ooo.o  ......   OOO..",
"XX..              ooo.o   .....    OOO..",
"XX..             ooo.o . .....     OOO..",
"XX..            ooo.o . .....      OOO..",
"XX..           ooo.o . .....       OOO..",
"XX..          ooo.o . .....        OOO..",
"XX..         ooo.o . .....         OOO..",
"XX..        ooo.o . .....          OOO..",
"XX..       ooo.o . .....           OOO..",
"XX..      ooo.o . .....            OOO..",
"XX..     ooo.o . .....             OOO..",
"XX..    ooo.o . .....              OOO..",
"XX..   ooo.o .......               OOO..",
"XX..  ooo.o .......                OOO..",
"XX.. ooo.. .......                 OOO..",
"XX.. ooo.........                  OOO..",
"XX..  ooo.......                   OOO..",
"XX..   ooo.....                    OOO..",
"XX..    ooo...                     OOO..",
"XX..     ooo.                      OOO..",
"XX..                               OOO..",
"XX..                               OOO..",
"XX......................................",
"XX......................................",
"XXXXXXXXXXXXXXXXXXXXXXXXXXXXXXXXXXXXXXXX",
"XXXXXXXXXXXXXXXXXXXXXXXXXXXXXXXXXXXXXXXX"
};
