/* XPM */
static char *buttons_stopp_2_xpm[] = {
/* columns rows colors chars-per-pixel */
"40 40 4 1",
"  c gray100",
". c #716F6F",
"X c #3C3B3B",
"o c #1A161B",
/* pixels */
"                                      XX",
"                                      XX",
"  .................................X  XX",
"  .................................X  XX",
"  .................................X  XX",
"  .................................X  XX",
"  .................................X  XX",
"  .................................X  XX",
"  ......o                    ......X  XX",
"  ......o                    ......X  XX",
"  ......o                    ......X  XX",
"  ......o                    ......X  XX",
"  ......o                    ......X  XX",
"  ......o                    ......X  XX",
"  ......o                    ......X  XX",
"  ......o                    ......X  XX",
"  ......o                    ......X  XX",
"  ......o                    ......X  XX",
"  ......o                    ......X  XX",
"  ......o                    ......X  XX",
"  ......o                    ......X  XX",
"  ......o                    ......X  XX",
"  ......o                    ......X  XX",
"  ......o                    ......X  XX",
"  ......o                    ......X  XX",
"  ......o                    ......X  XX",
"  ......o                    ......X  XX",
"  ......o                    ......X  XX",
"  ......o                    ......X  XX",
"  ......o                    ......X  XX",
"  .................................X  XX",
"  .................................X  XX",
"  .................................X  XX",
"  .................................X  XX",
"  .................................X  XX",
"  .................................X  XX",
"                                      XX",
"                                      XX",
"XXXXXXXXXXXXXXXXXXXXXXXXXXXXXXXXXXXXXXXX",
"XXXXXXXXXXXXXXXXXXXXXXXXXXXXXXXXXXXXXXXX"
};
