/* XPM */
static char *buttons_start_2_xpm[] = {
/* columns rows colors chars-per-pixel */
"40 40 4 1",
"  c #716F6F",
". c gray100",
"X c #3C3B3B",
"o c #1A161B",
/* pixels */
"......................................XX",
"......................................XX",
"..                                 X..XX",
"..           o.                    X..XX",
"..           o..                   X..XX",
"..           o...                  X..XX",
"..           o....                 X..XX",
"..           o.....                X..XX",
"..           o......               X..XX",
"..           o.......              X..XX",
"..           o........             X..XX",
"..           o.........            X..XX",
"..           o..........           X..XX",
"..           o...........          X..XX",
"..           o............         X..XX",
"..           o.............        X..XX",
"..           o..............       X..XX",
"..           o...............      X..XX",
"..           o................     X..XX",
"..           o...............      X..XX",
"..           o..............       X..XX",
"..           o.............        X..XX",
"..           o............         X..XX",
"..           o...........          X..XX",
"..           o..........           X..XX",
"..           o.........            X..XX",
"..           o........             X..XX",
"..           o.......              X..XX",
"..           o......               X..XX",
"..           o.....                X..XX",
"..           o....                 X..XX",
"..           o...                  X..XX",
"..           o..                   X..XX",
"..           o.                    X..XX",
"..                                 X..XX",
"..                                 X..XX",
"......................................XX",
"......................................XX",
"XXXXXXXXXXXXXXXXXXXXXXXXXXXXXXXXXXXXXXXX",
"XXXXXXXXXXXXXXXXXXXXXXXXXXXXXXXXXXXXXXXX"
};
