/* XPM */
static char *buttons_start_1_xpm[] = {
/* columns rows colors chars-per-pixel */
"40 40 5 1",
"  c #E1001B",
". c gray100",
"X c #3C3B3B",
"o c #AF071B",
"O c #1A161B",
/* pixels */
"XX......................................",
"XX......................................",
"XX..                               ooo..",
"XX..         O  .                  ooo..",
"XX..         OO ..                 ooo..",
"XX..         OOO...                ooo..",
"XX..         OOO....               ooo..",
"XX..         OOO.....              ooo..",
"XX..         OOO......             ooo..",
"XX..         OOO.......            ooo..",
"XX..         OOO........           ooo..",
"XX..         OOO.........          ooo..",
"XX..         OOO..........         ooo..",
"XX..         OOO...........        ooo..",
"XX..         OOO............       ooo..",
"XX..         OOO.............      ooo..",
"XX..         OOO..............     ooo..",
"XX..         OOO...............    ooo..",
"XX..         OOO................   ooo..",
"XX..         OOO...............    ooo..",
"XX..         OOO..............     ooo..",
"XX..         OOO.............      ooo..",
"XX..         OOO............       ooo..",
"XX..         OOO...........        ooo..",
"XX..         OOO..........         ooo..",
"XX..         OOO.........          ooo..",
"XX..         OOO........           ooo..",
"XX..         OOO.......            ooo..",
"XX..         OOO......             ooo..",
"XX..         OOO.....              ooo..",
"XX..         OOO....               ooo..",
"XX..         OOO...                ooo..",
"XX..         OO ..                 ooo..",
"XX..         O  .                  ooo..",
"XX..                               ooo..",
"XX..                               ooo..",
"XX......................................",
"XX......................................",
"XXXXXXXXXXXXXXXXXXXXXXXXXXXXXXXXXXXXXXXX",
"XXXXXXXXXXXXXXXXXXXXXXXXXXXXXXXXXXXXXXXX"
};
