/* XPM */
static char *buttons_deutsch_1_xpm[] = {
/* columns rows colors chars-per-pixel */
"120 40 102 2",
"   c #E1001A",
".  c gray100",
"X  c #3C3B3B",
"o  c #FDFBFB",
"O  c #010101",
"+  c #AF061A",
"@  c #F7C9CE",
"#  c #EE7583",
"$  c #4C0109",
"%  c #78000E",
"&  c #F4A7B0",
"*  c #D1A7AC",
"=  c #960012",
"-  c #FBEAEC",
";  c #B40015",
":  c #9F767A",
">  c #F08692",
",  c #2E0106",
"<  c #573337",
"1  c #F9DADD",
"2  c #3D0108",
"3  c #735458",
"4  c #6A010D",
"5  c #870010",
"6  c #100103",
"7  c #5F5456",
"8  c #555454",
"9  c #EA5465",
"0  c gray7",
"q  c #E31129",
"w  c #777676",
"e  c #D20018",
"r  c #E52138",
"t  c #1F0104",
"y  c #878686",
"u  c #E73247",
"i  c #666565",
"p  c #CBC9C9",
"a  c #F297A1",
"s  c #A9A8A8",
"d  c #BAB8B8",
"f  c #F6B8BF",
"g  c #E84356",
"h  c #C8979C",
"j  c #EC6474",
"k  c #5B010B",
"l  c #232222",
"z  c #3F3335",
"x  c #C30017",
"c  c #E0C9CB",
"v  c #977679",
"b  c #7F7677",
"n  c gray20",
"m  c #F6EAEB",
"M  c #DAC9CB",
"N  c #A50013",
"B  c #877677",
"V  c #C6B8BA",
"C  c #8F7678",
"Z  c #EFDADC",
"A  c #ECEAEA",
"S  c #93656A",
"D  c #F1DADC",
"F  c #F9EAEC",
"G  c #444444",
"H  c #695456",
"J  c #DDDADA",
"K  c #DBDADA",
"L  c #EEC9CD",
"P  c #A7767B",
"I  c #642229",
"U  c #CF3245",
"Y  c #A42131",
"T  c #E2B8BD",
"R  c #F3DADC",
"E  c #E05464",
"W  c #F4EAEB",
"Q  c #BDA8AA",
"!  c #5A4446",
"~  c #B8868C",
"^  c #FAEAEC",
"/  c #201214",
"(  c #6F3339",
")  c #E36473",
"_  c #D2B8BB",
"`  c #AA868A",
"'  c #C2B8B9",
"]  c #B3A8A9",
"[  c #D1C9CA",
"{  c #816568",
"}  c #D4C9CA",
"|  c #CEB8BA",
" . c #CEC9C9",
".. c #4B3335",
"X. c #C7A8AB",
"o. c #F8EAEC",
"O. c #EDEAEA",
"+. c #B1868B",
"@. c #87545A",
"#. c #F7EAEC",
"$. c #6F6566",
"%. c #DEB8BC",
/* pixels */
"X X . . . . . . . . . . . . . . . . . . . . . . . . . . . . . . . . . . . . . . . . . . . . . . . . . . . . . . . . . . . . . . . . . . . . . . . . . . . . . . . . . . . . . . . . . . . . . . . . . . . . . . . . . . . . . . . . . . . . . . ",
"X X . . . . . . . . . . . . . . . . . . . . . . . . . . . . . . . . . . . . . . . . . . . . . . . . . . . . . . . . . . . . . . . . . . . . . . . . . . . . . . . . . . . . . . . . . . . . . . . . . . . . . . . . . . . . . . . . . . . . . . ",
"X X . .                                                                                                                                                                                                                               + + + . . ",
"X X . .                                                                                                                                                                                                                               + + + . . ",
"X X . .                                                                                                                                                                                                                               + + + . . ",
"X X . .                                                                                                                                                                                                                               + + + . . ",
"X X . .                                                                                                                                                                                                                               + + + . . ",
"X X . .                                                                                                                                                                                                                               + + + . . ",
"X X . .                                                                                                                                                                                                                               + + + . . ",
"X X . .       % O w o o o o o o o ^ > q                                                               5 $ j &                                                   $ O * o #                                                             + + + . . ",
"X X . .       % O w o o o o o o o o o 1 u                                                           ; O < o @                                                   $ O * o #                                                             + + + . . ",
"X X . .       % O : o &       5 , i [ o 1 q                                                         ; O < o @                                                   $ O * o #                                                             + + + . . ",
"X X . .       % O : o &           , O c o >                                                         ; O < o @                                                   $ O * o #                                                             + + + . . ",
"X X . .       % O : o &           = O 7 o -                                                         ; O < o @                                                   $ O * o #                                                             + + + . . ",
"X X . .       % O : o &             t O D o g       = 2 8 d o o @ j       $ O * o #     = O 7 o - $ O s o o o o @   4 O y o o o @ j           4 O y o o o & u   $ O * o C 8 p o o f r                                                 + + + . . ",
"X X . .       % O : o &             k O h o #     % O w o o o o o o >     $ O * o #     = O 7 o - $ O s o o o o @ , O p o o o o o o #     e , 0 p o o o o o o g $ O Q o d o o o o o - q                                               + + + . . ",
"X X . .       % O : o &             % O : o &   N O G o o & 5 6 i m o 9   $ O * o #     = O 7 o -   ; O < o @   % O C o @ u % O b o - q   2 O ' o 1 E 2 0 V o @ $ O s o o f Y 6 8 W o #                                               + + + . . ",
"X X . .       % O : o &             5 O S o &   2 O | o &     5 O { o @   $ O * o #     = O 7 o -   ; O < o @   4 O ~ o >     t O Z o 9 ; O n o o u   e 6 0 o.o ( O ] o 1     % O v o f                                               + + + . . ",
"X X . .       % O : o &             = O @.o &   6 O #.o g       6 O F o r $ O * o #     = O 7 o -   ; O < o @   % O B o 1 >             % O v o f               $ O X.o a     = O 3 o @                                               + + + . . ",
"X X . .       % O : o &             % O : o & ; O z o -         2 O T o 9 $ O * o #     = O 7 o -   ; O < o @   e 6 0 A o o o R > u     k O h o #               $ O * o #     = O 3 o @                                               + + + . . ",
"X X . .       % O : o &             % O P o a = O 8 o o o o o o o o o o j $ O * o #     = O 7 o -   ; O < o @     x 2 l d o o o o o &   $ O * o #               $ O * o #     = O 3 o @                                               + + + . . ",
"X X . .       % O : o &             k O h o # = O 8 o o o o o o o o o o # $ O * o #     = O 7 o -   ; O < o @           4 $ y s o o o 9 $ O * o #               $ O * o #     = O 3 o @                                               + + + . . ",
"X X . .       % O : o &             t O D o g N O ! o 1                   $ O * o #     5 O $.o -   ; O < o @                 2 O _ o a k O h o #               $ O * o #     = O 3 o @                                               + + + . . ",
"X X . .       % O : o &           = O H o 1   x O l o o r                 $ O * o #     % O b o -   ; O < o @                 % O : o & % O v o f       2 O %.o S O * o #     = O 3 o @                                               + + + . . ",
"X X . .       % O : o &           , O c o >     , O c o >     x 6 l F o r 4 O ` o &     , O  .o -   ; O ..o 1   t O Z o 9     4 O +.o a ; O z o - r   ; O n o o I O * o #     = O 3 o @                                               + + + . . ",
"X X . .       % O : o &       % , w } o @       = O 8 o o > ; , n M o &   5 O i o o ) 2 / d O.o -   ; O z o - q % O B o 1 9 5 6 i m o 9   2 O V o @ U , l M o & $ O * o #     = O 3 o @                                               + + + . . ",
"X X . .       % O w o o o o o o o o o 1 r         4 O y o o o o o o 1 q     , O p o o o o o b o -     6 O A o o 1 , O p o o o o o o a     e t 0 K o o o o o @ q $ O * o #     = O 3 o @                                               + + + . . ",
"X X . .       % O w o o o o o o o @ >               5 2 i d o o o >         e $ 0 s o o L 8 z o -     = t 8 J o -   4 O y o o o @ #         e 4 0 y o o o >     $ O * o #     = O 3 o @                                               + + + . . ",
"X X . .                                                                                                                                                                                                                               + + + . . ",
"X X . .                                                                                                                                                                                                                               + + + . . ",
"X X . .                                                                                                                                                                                                                               + + + . . ",
"X X . .                                                                                                                                                                                                                               + + + . . ",
"X X . .                                                                                                                                                                                                                               + + + . . ",
"X X . .                                                                                                                                                                                                                               + + + . . ",
"X X . .                                                                                                                                                                                                                               + + + . . ",
"X X . .                                                                                                                                                                                                                               + + + . . ",
"X X . . . . . . . . . . . . . . . . . . . . . . . . . . . . . . . . . . . . . . . . . . . . . . . . . . . . . . . . . . . . . . . . . . . . . . . . . . . . . . . . . . . . . . . . . . . . . . . . . . . . . . . . . . . . . . . . . . . . . . ",
"X X . . . . . . . . . . . . . . . . . . . . . . . . . . . . . . . . . . . . . . . . . . . . . . . . . . . . . . . . . . . . . . . . . . . . . . . . . . . . . . . . . . . . . . . . . . . . . . . . . . . . . . . . . . . . . . . . . . . . . . ",
"X X X X X X X X X X X X X X X X X X X X X X X X X X X X X X X X X X X X X X X X X X X X X X X X X X X X X X X X X X X X X X X X X X X X X X X X X X X X X X X X X X X X X X X X X X X X X X X X X X X X X X X X X X X X X X X X X X X X X X X X ",
"X X X X X X X X X X X X X X X X X X X X X X X X X X X X X X X X X X X X X X X X X X X X X X X X X X X X X X X X X X X X X X X X X X X X X X X X X X X X X X X X X X X X X X X X X X X X X X X X X X X X X X X X X X X X X X X X X X X X X X X X "
};
