/* XPM */
static char *buttons_stift_2_xpm[] = {
/* columns rows colors chars-per-pixel */
"40 40 4 1",
"  c #716F6F",
". c gray100",
"X c #3C3B3B",
"o c #020202",
/* pixels */
"......................................XX",
"......................................XX",
"..                                 X..XX",
"..                                 X..XX",
"..                                 X..XX",
"..                                 X..XX",
"..                          oo.oo  X..XX",
"..                        oo...oo  X..XX",
"..                       o....o..  X..XX",
"..                      o.......o  X..XX",
"..                     o........   X..XX",
"..                    o... .....   X..XX",
"..                   o.o........   X..XX",
"..                  o.o . .....    X..XX",
"..                 o.o  ......     X..XX",
"..                o.o   .....      X..XX",
"..               o.o . .....       X..XX",
"..              o.o . .....        X..XX",
"..             o.o . .....         X..XX",
"..            o.o . .....          X..XX",
"..           o.o . .....           X..XX",
"..          o.o . .....            X..XX",
"..         o.o . .....             X..XX",
"..        o.o . .....              X..XX",
"..       o.o . .....               X..XX",
"..      o.o . .....                X..XX",
"..     o.o .......                 X..XX",
"..    o.o .......                  X..XX",
"..   o.. .......                   X..XX",
"..   o.........                    X..XX",
"..    o.......                     X..XX",
"..     o.....                      X..XX",
"..      o...                       X..XX",
"..       o.                        X..XX",
"..                                 X..XX",
"..                                 X..XX",
"......................................XX",
"......................................XX",
"XXXXXXXXXXXXXXXXXXXXXXXXXXXXXXXXXXXXXXXX",
"XXXXXXXXXXXXXXXXXXXXXXXXXXXXXXXXXXXXXXXX"
};
