/* XPM */
static char *buttons_english_1_xpm[] = {
/* columns rows colors chars-per-pixel */
"120 40 80 1",
"  c #E1001A",
". c gray100",
"X c #3C3B3B",
"o c #FDFBFB",
"O c #030000",
"+ c #AF061A",
"@ c #B50015",
"# c #FBEAEC",
"$ c #413234",
"% c #EA5465",
"& c #2F0005",
"* c #EE7583",
"= c #970011",
"- c #E9C9CC",
"; c #4D0009",
": c #F7C9CE",
"> c #D1A7AC",
", c #745457",
"< c #353232",
"1 c #F08692",
"2 c #6B000C",
"3 c #120002",
"4 c #565454",
"5 c #3E0007",
"6 c #ECEAEA",
"7 c #210003",
"8 c #EFDADC",
"9 c #F4A7B0",
"0 c #79000E",
"q c #BAB8B8",
"w c #E31129",
"e c #CBC9C9",
"r c #F9DADD",
"t c #5C000A",
"y c #888686",
"u c #EC6474",
"i c #242121",
"p c #E73247",
"a c #F297A1",
"s c #676464",
"d c #999797",
"f c #E6C9CC",
"g c #887577",
"h c #CD868E",
"j c #D20018",
"k c #D4979D",
"l c #6A5456",
"z c #F7EAEC",
"x c #BEB8B9",
"c c #141111",
"v c #E52138",
"b c #E84356",
"n c #C30017",
"m c #DCDADA",
"M c #D7C9CA",
"N c #583236",
"B c #F6B8BF",
"V c #C3979B",
"C c #880010",
"Z c #B2868B",
"A c #B9868B",
"S c #A52130",
"D c #F6EAEB",
"F c #807576",
"G c #CEB8BA",
"H c #DBA7AD",
"J c #AAA7A7",
"K c #AB868A",
"L c #8F7578",
"P c #D2B8BB",
"I c #DDC9CB",
"U c #C6B8B9",
"Y c #DAC9CB",
"T c #F3DADC",
"R c #9F757A",
"E c #98212F",
"W c #F8EAEC",
"Q c #F2EAEB",
"! c #464343",
"~ c #A60013",
/* pixels */
"XX......................................................................................................................",
"XX......................................................................................................................",
"XX..                                                                                                               +++..",
"XX..                                                                                                               +++..",
"XX..                                                                                                               +++..",
"XX..                                                                                                               +++..",
"XX..                                                                                                               +++..",
"XX..                                                                                                               +++..",
"XX..                                                                                                               +++..",
"XX..   =O4ooooooooooo%                          @O$o# ;O>o*            @O$o#                                       +++..",
"XX..   =O4ooooooooooo%                          @O$o# ;O>o*            @O$o#                                       +++..",
"XX..   =O,o:                                    @O$o#                  @O$o#                                       +++..",
"XX..   =O,o:                                    @O$o#                  @O$o#                                       +++..",
"XX..   =O,o:                                    @O$o#                  @O$o#                                       +++..",
"XX..   =O,o:          @ONoIOdoo#*    @5<qooG<Ho%@O$o# ;O>o*  2Oyooo:u  @O$oQOdoo#*                                 +++..",
"XX..   =O,o:          @ONoeqooooo*  @3<6oooo6-o%@O$o# ;O>o* &Oeoooooo* @O$o6eooooo1                                +++..",
"XX..   =O,o:          @O<oo#u5Oxo#  &OMoBE3s6oo%@O$o# ;O>o*0OLo:p0OFo#w@O<ooo*5Oxo#                                +++..",
"XX..   =O4oooooooooo9 @O<oo* j3czob=Olorw =O4oo%@O$o# ;O>o*2OAo1  7O8o%@O<oo*  3Ozob                               +++..",
"XX..   =O4oooooooooo9 @O<oov  7O8o%tOVo1   7O8o%@O$o# ;O>o*0Ogor1      @O<oov  &O-o%                               +++..",
"XX..   =O,o:          @O$o#   &O-o%&Ofou   tOko%@O$o# ;O>o*j3c6oooT1p  @O$o#   &O-o%                               +++..",
"XX..   =O,o:          @O$o#   &O-o%7O8o%   2Oho%@O$o# ;O>o* n5iqooooo9 @O$o#   &O-o%                               +++..",
"XX..   =O,o:          @O$o#   &O-o%7O8o%   2Oho%@O$o# ;O>o*    2;yJooo%@O$o#   &O-o%                               +++..",
"XX..   =O,o:          @O$o#   &O-o%&Ofou   tOko%@O$o# ;O>o*       5OPoa@O$o#   &O-o%                               +++..",
"XX..   =O,o:          @O$o#   &O-o%tOVo1   &O-o%@O$o# ;O>o*       0ORo9@O$o#   &O-o%                               +++..",
"XX..   =O,o:          @O$o#   &O-o%=Olorw ~O!oo%@O$o# ;O>o*7O8o%  2OZoa@O$o#   &O-o%                               +++..",
"XX..   =O,o:          @O$o#   &O-o% &OMoBS74moo%@O$o# ;O>o*0Ogor%C3sDo%@O$o#   &O-o%                               +++..",
"XX..   =O4ooooooooooo1@O$o#   &O-o% @3<6oooom8o%@O$o# ;O>o* &Oeooooooa @O$o#   &O-o%                               +++..",
"XX..   =O4ooooooooooo1@O$o#   &O-o%  n5iqooUi-o%@O$o# ;O>o*  2Oyooo:*  @O$o#   &O-o%                               +++..",
"XX..                                       3OWop                                                                   +++..",
"XX..                               2OKo9  @O$o#                                                                    +++..",
"XX..                               COsoo*=&4Yo9                                                                    +++..",
"XX..                                5Oqoooooo:w                                                                    +++..",
"XX..                                 23y6oo#1                                                                      +++..",
"XX..                                                                                                               +++..",
"XX..                                                                                                               +++..",
"XX..                                                                                                               +++..",
"XX......................................................................................................................",
"XX......................................................................................................................",
"XXXXXXXXXXXXXXXXXXXXXXXXXXXXXXXXXXXXXXXXXXXXXXXXXXXXXXXXXXXXXXXXXXXXXXXXXXXXXXXXXXXXXXXXXXXXXXXXXXXXXXXXXXXXXXXXXXXXXXXX",
"XXXXXXXXXXXXXXXXXXXXXXXXXXXXXXXXXXXXXXXXXXXXXXXXXXXXXXXXXXXXXXXXXXXXXXXXXXXXXXXXXXXXXXXXXXXXXXXXXXXXXXXXXXXXXXXXXXXXXXXX"
};
