/* XPM */
static char *buttons_leer_1_xpm[] = {
/* columns rows colors chars-per-pixel */
"120 40 4 1",
"  c #E1001B",
". c gray100",
"X c #3C3B3B",
"o c #AF061A",
/* pixels */
"XX......................................................................................................................",
"XX......................................................................................................................",
"XX..                                                                                                               ooo..",
"XX..                                                                                                               ooo..",
"XX..                                                                                                               ooo..",
"XX..                                                                                                               ooo..",
"XX..                                                                                                               ooo..",
"XX..                                                                                                               ooo..",
"XX..                                                                                                               ooo..",
"XX..                                                                                                               ooo..",
"XX..                                                                                                               ooo..",
"XX..                                                                                                               ooo..",
"XX..                                                                                                               ooo..",
"XX..                                                                                                               ooo..",
"XX..                                                                                                               ooo..",
"XX..                                                                                                               ooo..",
"XX..                                                                                                               ooo..",
"XX..                                                                                                               ooo..",
"XX..                                                                                                               ooo..",
"XX..                                                                                                               ooo..",
"XX..                                                                                                               ooo..",
"XX..                                                                                                               ooo..",
"XX..                                                                                                               ooo..",
"XX..                                                                                                               ooo..",
"XX..                                                                                                               ooo..",
"XX..                                                                                                               ooo..",
"XX..                                                                                                               ooo..",
"XX..                                                                                                               ooo..",
"XX..                                                                                                               ooo..",
"XX..                                                                                                               ooo..",
"XX..                                                                                                               ooo..",
"XX..                                                                                                               ooo..",
"XX..                                                                                                               ooo..",
"XX..                                                                                                               ooo..",
"XX..                                                                                                               ooo..",
"XX..                                                                                                               ooo..",
"XX......................................................................................................................",
"XX......................................................................................................................",
"XXXXXXXXXXXXXXXXXXXXXXXXXXXXXXXXXXXXXXXXXXXXXXXXXXXXXXXXXXXXXXXXXXXXXXXXXXXXXXXXXXXXXXXXXXXXXXXXXXXXXXXXXXXXXXXXXXXXXXXX",
"XXXXXXXXXXXXXXXXXXXXXXXXXXXXXXXXXXXXXXXXXXXXXXXXXXXXXXXXXXXXXXXXXXXXXXXXXXXXXXXXXXXXXXXXXXXXXXXXXXXXXXXXXXXXXXXXXXXXXXXX"
};
